<?xml version="1.0" encoding="UTF-8"?>
<svg id="Layer_1" data-name="Layer 1" xmlns="http://www.w3.org/2000/svg" viewBox="0 0 60 60">
  <defs>
    <style>
      .cls-1 {
        fill: #99f;
      }

      .cls-2 {
        fill: #00005b;
      }
    </style>
  </defs>
  <path class="cls-2" d="M10.65,0h38.73c5.87,0,10.62,4.87,10.62,10.9v38.21c0,6.03-4.75,10.9-10.62,10.9H10.65C4.78,60,.03,55.13.03,49.1V10.9C.03,4.87,4.78,0,10.65,0Z"/>
  <path class="cls-1" d="M14.27,42.05V15.64c0-.18.07-.28.25-.28.42,0,.82,0,1.4-.03.6-.03,1.22-.03,1.9-.05s1.4-.03,2.17-.05,1.52-.03,2.27-.03c2.05,0,3.75.26,5.15.79,1.25.44,2.4,1.15,3.35,2.1.8.82,1.42,1.82,1.82,2.92.37,1.08.57,2.18.57,3.33,0,2.21-.5,4.03-1.5,5.46s-2.4,2.51-4.02,3.13c-1.7.64-3.57.87-5.62.87-.6,0-1,0-1.25-.03s-.6-.03-1.07-.03v8.23c.02.18-.1.33-.27.36h-4.85c-.2,0-.3-.1-.3-.33v.03ZM19.72,20.33v8.62c.35.03.67.05.97.05h1.32c.97,0,1.95-.15,2.87-.46.8-.23,1.5-.72,2.05-1.36.52-.64.77-1.51.77-2.64.02-.79-.17-1.59-.57-2.28-.42-.67-1.02-1.18-1.75-1.46-.92-.38-1.92-.54-2.95-.51-.65,0-1.22,0-1.7.03-.5-.03-.85,0-1.02.03h0ZM36.76,21.85h4.37c.25,0,.45.18.52.41.07.21.12.41.15.64.05.26.1.54.12.79.02.28.05.59.05.92.75-.9,1.65-1.64,2.67-2.21,1.15-.67,2.47-1,3.8-1,.17-.03.32.1.35.28v5.1c0,.21-.12.28-.4.28-.9-.03-1.82.05-2.7.26-.72.15-1.42.38-2.1.69-.47.23-.92.54-1.27.95v13.08c0,.26-.1.36-.32.36h-4.92c-.2.03-.37-.1-.4-.31v-14.31c0-.62,0-1.26-.02-1.92s-.02-1.33-.05-2c0-.59-.05-1.15-.1-1.74-.02-.13.05-.26.17-.28,0-.03.05-.03.07,0h0Z"/>
</svg>