<?xml version="1.0" encoding="UTF-8"?>
<svg id="Layer_1" data-name="Layer 1" xmlns="http://www.w3.org/2000/svg" viewBox="0 0 60 60">
  <defs>
    <style>
      .cls-1 {
        fill: #ff9a00;
      }

      .cls-2 {
        fill: #300;
      }
    </style>
  </defs>
  <path class="cls-2" d="M10.63,0h38.75C55.25,0,60,4.87,60,10.9v38.21c0,6.03-4.75,10.9-10.62,10.9H10.63C4.75,60,0,55.13,0,49.1V10.9C0,4.87,4.75,0,10.63,0Z"/>
  <path class="cls-1" d="M29.08,36h-9.3l-1.9,6.03c-.05.23-.25.38-.48.36h-4.7c-.27,0-.35-.15-.27-.46l8.05-23.77c.08-.26.15-.54.25-.85.1-.54.15-1.1.15-1.67-.02-.13.08-.26.2-.28h6.47c.2,0,.3.08.33.21l9.12,26.41c.08.28,0,.41-.25.41h-5.23c-.17.03-.35-.1-.4-.28l-2.05-6.1ZM21.23,30.79h6.35c-.15-.54-.35-1.18-.58-1.85-.23-.69-.45-1.44-.67-2.21-.25-.79-.48-1.56-.73-2.36s-.48-1.54-.67-2.28c-.2-.72-.38-1.38-.55-2h-.05c-.23,1.1-.5,2.21-.85,3.31-.37,1.23-.75,2.51-1.15,3.79-.35,1.31-.73,2.51-1.1,3.59h0ZM42.45,19.74c-.83.03-1.63-.31-2.22-.9-.58-.64-.88-1.49-.85-2.36-.03-.87.3-1.69.9-2.28s1.4-.9,2.22-.9c.97,0,1.72.31,2.28.9.55.62.85,1.44.83,2.28.03.87-.28,1.72-.88,2.36-.58.62-1.42.95-2.28.9h0ZM39.65,42v-19.74c0-.26.1-.36.33-.36h4.95c.22,0,.33.13.33.36v19.74c0,.28-.1.41-.33.41h-4.9c-.25,0-.38-.15-.38-.41Z"/>
</svg>