<?xml version="1.0" encoding="UTF-8"?>
<svg id="Layer_1" data-name="Layer 1" xmlns="http://www.w3.org/2000/svg" viewBox="0 0 60 60">
  <defs>
    <style>
      .cls-1 {
        fill: #001e36;
      }

      .cls-2 {
        fill: #31a8ff;
      }
    </style>
  </defs>
  <path class="cls-1" d="M10.62,0h38.73C55.23,0,59.97,4.87,59.97,10.9v38.21c0,6.03-4.75,10.9-10.62,10.9H10.62C4.75,60,0,55.13,0,49.1V10.9C0,4.87,4.75,0,10.62,0Z"/>
  <path class="cls-2" d="M13.49,42.08V15.69c0-.18.07-.28.25-.28.42,0,.82,0,1.4-.03.6-.03,1.22-.03,1.9-.05s1.4-.03,2.17-.05,1.52-.03,2.27-.03c2.05,0,3.75.26,5.15.79,1.25.44,2.4,1.15,3.35,2.1.8.82,1.42,1.82,1.82,2.92.37,1.08.57,2.18.57,3.33,0,2.21-.5,4.03-1.5,5.46s-2.4,2.51-4.02,3.13c-1.7.64-3.57.87-5.62.87-.6,0-1,0-1.25-.03s-.6-.03-1.07-.03v8.23c.02.18-.1.33-.27.36h-4.85c-.2,0-.3-.1-.3-.33h0ZM18.94,20.36v8.62c.35.03.67.05.97.05h1.32c.97,0,1.95-.15,2.87-.46.8-.23,1.5-.72,2.05-1.36.52-.64.77-1.51.77-2.64.02-.79-.17-1.59-.57-2.28-.42-.67-1.02-1.18-1.75-1.46-.92-.38-1.92-.54-2.95-.51-.65,0-1.22,0-1.7.03-.5-.03-.85,0-1.02.03h0ZM47.98,27.41c-.75-.41-1.55-.69-2.4-.87-.92-.21-1.85-.33-2.8-.33-.5-.03-1.02.05-1.5.18-.32.08-.6.26-.77.51-.12.21-.2.46-.2.69s.1.46.25.67c.22.28.52.51.85.69.57.31,1.17.59,1.77.85,1.35.46,2.65,1.1,3.85,1.87.82.54,1.5,1.26,1.97,2.13.4.82.6,1.72.57,2.64.02,1.21-.32,2.41-.97,3.41-.7,1.03-1.67,1.82-2.8,2.28-1.22.54-2.72.82-4.52.82-1.15,0-2.27-.1-3.4-.33-.87-.15-1.75-.44-2.55-.82-.17-.1-.3-.28-.27-.49v-4.46c0-.08.02-.18.1-.23s.15-.03.22.03c.97.59,2,1,3.1,1.26.95.26,1.95.38,2.95.38s1.62-.13,2.07-.36c.4-.18.67-.62.67-1.08,0-.36-.2-.69-.6-1.03s-1.22-.72-2.45-1.21c-1.27-.46-2.45-1.08-3.55-1.85-.77-.56-1.42-1.31-1.9-2.18-.4-.82-.6-1.72-.57-2.62,0-1.1.3-2.15.85-3.1.62-1.03,1.55-1.85,2.62-2.36,1.17-.62,2.65-.9,4.42-.9,1.02,0,2.07.08,3.1.23.75.1,1.47.31,2.15.59.1.03.2.13.25.23.02.1.05.21.05.31v4.18c0,.1-.05.21-.12.26-.22.05-.35.05-.45,0h0Z"/>
</svg>