<?xml version="1.0" encoding="UTF-8"?>
<svg id="Layer_1" data-name="Layer 1" xmlns="http://www.w3.org/2000/svg" viewBox="0 0 60 60">
  <defs>
    <style>
      .cls-1 {
        fill: #49021f;
      }

      .cls-2 {
        fill: #f36;
      }
    </style>
  </defs>
  <path class="cls-1" d="M10.62,0h38.75C55.25,0,60,4.87,60,10.9v38.21c0,6.03-4.75,10.9-10.62,10.9H10.62c-5.88,0-10.62-4.87-10.62-10.9V10.9C0,4.87,4.75,0,10.62,0Z"/>
  <path class="cls-2" d="M21.8,15.69v26.41c0,.28-.12.41-.35.41h-4.9c-.23,0-.33-.13-.33-.41V15.69c0-.23.12-.33.35-.33h4.88c.15-.03.3.08.33.26.02.03.02.05.02.08h0ZM36.25,42.82c-1.85.03-3.7-.36-5.37-1.15-1.58-.74-2.88-1.97-3.77-3.49-.92-1.56-1.38-3.51-1.38-5.85-.02-1.9.45-3.77,1.38-5.41.95-1.67,2.33-3.05,3.98-3.97,1.75-1,3.85-1.49,6.33-1.49.12,0,.3,0,.53.03s.47.03.78.05v-8.1c0-.18.08-.28.25-.28h5.08c.12-.03.22.08.25.18v24.46c0,.46.03.97.05,1.54.05.54.08,1.05.1,1.49,0,.18-.08.33-.25.41-1.3.56-2.67.97-4.08,1.23-1.25.23-2.55.36-3.85.36h0ZM38.7,37.69v-11.28c-.22-.05-.45-.1-.67-.13-.28-.03-.55-.05-.83-.05-.97,0-1.95.21-2.83.67-.85.44-1.58,1.08-2.12,1.9s-.83,1.92-.83,3.26c-.02.9.12,1.79.42,2.64.25.69.62,1.31,1.12,1.82.47.46,1.05.82,1.7,1.03.67.23,1.38.33,2.08.33.38,0,.72-.03,1.05-.05.33.03.62-.03.9-.13h0Z"/>
</svg>