<?xml version="1.0" encoding="UTF-8"?>
<svg id="Layer_1" data-name="Layer 1" xmlns="http://www.w3.org/2000/svg" viewBox="0 0 60 60">
  <defs>
    <style>
      .cls-1 {
        fill: #f90;
        fill-rule: evenodd;
      }

      .cls-2 {
        fill: #252f3e;
      }
    </style>
  </defs>
  <path class="cls-2" d="M16.91,25.09c0,.74.08,1.34.22,1.78.16.44.36.92.64,1.44.1.16.14.32.14.46,0,.2-.12.4-.38.6l-1.26.84c-.18.12-.36.18-.52.18-.2,0-.4-.1-.6-.28-.28-.3-.52-.62-.72-.94-.2-.34-.4-.72-.62-1.18-1.56,1.84-3.51,2.75-5.87,2.75-1.68,0-3.01-.48-3.99-1.44s-1.48-2.24-1.48-3.83c0-1.7.6-3.07,1.82-4.11s2.83-1.56,4.89-1.56c.68,0,1.38.06,2.12.16s1.5.26,2.29.44v-1.46c0-1.52-.32-2.57-.94-3.19-.64-.62-1.72-.92-3.25-.92-.7,0-1.42.08-2.16.26s-1.46.4-2.16.68c-.32.14-.56.22-.7.26s-.24.06-.32.06c-.28,0-.42-.2-.42-.62v-.98c0-.32.04-.56.14-.7s.28-.28.56-.42c.7-.36,1.54-.66,2.51-.9.98-.26,2.02-.38,3.11-.38,2.37,0,4.11.54,5.23,1.62,1.1,1.08,1.66,2.71,1.66,4.91v6.47h.04ZM8.81,28.12c.66,0,1.34-.12,2.06-.36s1.36-.68,1.9-1.28c.32-.38.56-.8.68-1.28s.2-1.06.2-1.74v-.84c-.58-.14-1.2-.26-1.84-.34s-1.26-.12-1.88-.12c-1.34,0-2.31.26-2.97.8s-.98,1.3-.98,2.29c0,.94.24,1.64.74,2.12.48.5,1.18.74,2.1.74h0ZM24.83,30.28c-.36,0-.6-.06-.76-.2-.16-.12-.3-.4-.42-.78l-4.69-15.43c-.12-.4-.18-.66-.18-.8,0-.32.16-.5.48-.5h1.96c.38,0,.64.06.78.2.16.12.28.4.4.78l3.35,13.21,3.11-13.21c.1-.4.22-.66.38-.78s.44-.2.8-.2h1.6c.38,0,.64.06.8.2.16.12.3.4.38.78l3.15,13.37,3.45-13.37c.12-.4.26-.66.4-.78.16-.12.42-.2.78-.2h1.86c.32,0,.5.16.5.5,0,.1-.02.2-.04.32-.02.12-.06.28-.14.5l-4.81,15.43c-.12.4-.26.66-.42.78s-.42.2-.76.2h-1.72c-.38,0-.64-.06-.8-.2s-.3-.4-.38-.8l-3.09-12.87-3.07,12.85c-.1.4-.22.66-.38.8s-.44.2-.8.2h-1.72ZM50.47,30.82c-1.04,0-2.08-.12-3.07-.36s-1.78-.5-2.29-.8c-.32-.18-.54-.38-.62-.56s-.12-.38-.12-.56v-1.02c0-.42.16-.62.46-.62.12,0,.24.02.36.06s.3.12.5.2c.68.3,1.42.54,2.2.7.8.16,1.58.24,2.37.24,1.26,0,2.24-.22,2.91-.66s1.04-1.08,1.04-1.9c0-.56-.18-1.02-.54-1.4s-1.04-.72-2.02-1.04l-2.89-.9c-1.46-.46-2.53-1.14-3.19-2.04-.66-.88-1-1.86-1-2.89,0-.84.18-1.58.54-2.22s.84-1.2,1.44-1.64c.6-.46,1.28-.8,2.08-1.04s1.64-.34,2.51-.34c.44,0,.9.02,1.34.08.46.06.88.14,1.3.22.4.1.78.2,1.14.32.36.12.64.24.84.36.28.16.48.32.6.5.12.16.18.38.18.66v.94c0,.42-.16.64-.46.64-.16,0-.42-.08-.76-.24-1.14-.52-2.41-.78-3.83-.78-1.14,0-2.04.18-2.65.56s-.94.96-.94,1.78c0,.56.2,1.04.6,1.42s1.14.76,2.2,1.1l2.83.9c1.44.46,2.47,1.1,3.09,1.92s.92,1.76.92,2.79c0,.86-.18,1.64-.52,2.31-.36.68-.84,1.28-1.46,1.76-.62.5-1.36.86-2.22,1.12-.9.28-1.84.42-2.85.42h0Z"/>
  <g>
    <path class="cls-1" d="M54.25,40.52c-6.57,4.85-16.1,7.42-24.31,7.42-11.49,0-21.85-4.25-29.67-11.31-.62-.56-.06-1.32.68-.88,8.46,4.91,18.9,7.88,29.69,7.88,7.28,0,15.29-1.52,22.65-4.63,1.1-.5,2.04.72.96,1.52Z"/>
    <path class="cls-1" d="M56.98,37.4c-.84-1.08-5.55-.52-7.68-.26-.64.08-.74-.48-.16-.9,3.75-2.63,9.92-1.88,10.64-1,.72.9-.2,7.06-3.71,10.02-.54.46-1.06.22-.82-.38.8-1.98,2.57-6.43,1.74-7.48Z"/>
  </g>
</svg>