<?xml version="1.0" encoding="UTF-8"?>
<svg id="Layer_1" data-name="Layer 1" xmlns="http://www.w3.org/2000/svg" xmlns:xlink="http://www.w3.org/1999/xlink" viewBox="0 0 60 60">
  <defs>
    <style>
      .cls-1 {
        fill: url(#linear-gradient-3);
      }

      .cls-2 {
        fill: url(#linear-gradient-2);
      }

      .cls-3 {
        fill: url(#linear-gradient);
      }

      .cls-4 {
        fill: #0078d4;
      }
    </style>
    <linearGradient id="linear-gradient" x1="-250.48" y1="-724.45" x2="-256.38" y2="-741.89" gradientTransform="translate(808.4 -2255.46) scale(3.12 -3.12)" gradientUnits="userSpaceOnUse">
      <stop offset="0" stop-color="#114a8b"/>
      <stop offset="1" stop-color="#0669bc"/>
    </linearGradient>
    <linearGradient id="linear-gradient-2" x1="-248.63" y1="-732.58" x2="-250" y2="-733.04" gradientTransform="translate(808.4 -2255.46) scale(3.12 -3.12)" gradientUnits="userSpaceOnUse">
      <stop offset="0" stop-color="#000" stop-opacity=".3"/>
      <stop offset=".1" stop-color="#000" stop-opacity=".2"/>
      <stop offset=".3" stop-color="#000" stop-opacity=".1"/>
      <stop offset=".6" stop-color="#000" stop-opacity=".1"/>
      <stop offset="1" stop-color="#000" stop-opacity="0"/>
    </linearGradient>
    <linearGradient id="linear-gradient-3" x1="-249.34" y1="-723.93" x2="-242.87" y2="-741.18" gradientTransform="translate(808.4 -2255.46) scale(3.12 -3.12)" gradientUnits="userSpaceOnUse">
      <stop offset="0" stop-color="#3ccbf4"/>
      <stop offset="1" stop-color="#2892df"/>
    </linearGradient>
  </defs>
  <path class="cls-3" d="M20.07,1.77h17.72l-18.4,54.55c-.09.28-.23.54-.41.78-.17.24-.38.44-.62.62s-.5.3-.78.39-.57.14-.87.14H2.93c-.45,0-.89-.11-1.29-.31-.4-.2-.74-.5-1-.87-.26-.36-.43-.79-.5-1.23-.07-.44-.03-.9.12-1.32L17.39,3.69c.09-.28.23-.54.41-.78.17-.24.39-.44.62-.62.24-.17.5-.3.78-.39.28-.09.57-.14.87-.14h0s0,0,0,0Z"/>
  <path class="cls-4" d="M52.74,58.24h-15.91c-.18,0-.35-.02-.53-.05-.17-.03-.35-.08-.51-.15s-.32-.15-.47-.24c-.15-.09-.29-.2-.42-.32l-18.06-16.87c-.19-.18-.32-.41-.38-.66-.12-.52.09-1.06.54-1.36.22-.15.47-.23.73-.23h28.11l6.92,19.88h0Z"/>
  <path class="cls-2" d="M37.86,1.77l-12.41,36.59h20.27s6.95,19.88,6.95,19.88h-15.85c-.16,0-.33-.02-.49-.05s-.32-.07-.47-.13c-.31-.11-.6-.28-.85-.49l-12.19-11.38-3.41,10.06c-.09.25-.21.49-.36.71-.3.44-.72.79-1.2,1.02-.24.11-.5.2-.76.24H2.93c-.45,0-.9-.11-1.3-.31-.82-.42-1.38-1.22-1.5-2.13-.06-.45-.01-.91.14-1.33L17.39,3.73c.09-.28.22-.55.4-.79.17-.24.38-.45.62-.63s.51-.31.79-.4c.28-.09.58-.14.88-.14h17.79,0Z"/>
  <path class="cls-1" d="M59.85,54.51c.14.42.18.88.12,1.32-.07.44-.24.86-.5,1.23-.53.74-1.38,1.18-2.29,1.18h-19.75c.45,0,.89-.11,1.29-.31.4-.2.74-.5,1-.87s.43-.79.5-1.23.03-.9-.12-1.32L22.96,3.69c-.19-.56-.55-1.05-1.03-1.39-.24-.17-.5-.3-.78-.39s-.57-.14-.86-.14h19.75c.29,0,.58.05.86.14.28.09.54.22.78.39.24.17.45.38.62.61s.31.5.41.78l17.14,50.82h0Z"/>
</svg>