<?xml version="1.0" encoding="UTF-8"?>
<svg id="Layer_1" data-name="Layer 1" xmlns="http://www.w3.org/2000/svg" viewBox="0 0 60 60">
  <defs>
    <style>
      .cls-1 {
        fill: #ae1c59;
      }
    </style>
  </defs>
  <path class="cls-1" d="M36.7,40.56c4.69-2.95,12.62-7.87,16.69-10.79,4.69-3.33,8.05-6.1,5.96-9.76-1.8-3.1-5.63-2.45-12.18-.38-6.01,1.92-13.98,4.72-18.87,6.52-.59.21-1-.59-.47-.94,5.9-3.98,12.65-8.82,16.19-11.94,2.27-2,2.57-4.45,1.36-5.96-1.03-1.27-2.39-2.57-8.82-.47-4.63,1.53-10.53,4.01-15.83,6.16-.56.24-1-.5-.53-.88,1.27-1.06,3.74-2.98,5.1-4.39,2.15-2.27,2.18-4.48,1.09-5.93-.56-.77-1.83-2.03-5.4-1.74-2.95.24-6.37.86-10.97,2.12-3.36.94-2.89,6.16,1.89,5.31,1.21-.21,2.95-.56,4.22-.83.53-.12.88.59.44.91-3.18,2.54-6.96,5.57-8.7,7.14-2.27,2-3.18,4.16-1.68,6.16,1.56,2.03,4.63,1.42,8.31.35,2.27-.65,5.81-1.86,8.34-2.71.59-.21.97.62.44.94-4.69,2.95-12.62,7.87-16.69,10.79-4.69,3.33-8.05,6.1-5.96,9.76,1.8,3.1,5.63,2.45,12.18.38,6.01-1.92,13.98-4.72,18.87-6.52.59-.21,1,.59.47.94-5.9,3.98-12.65,8.82-16.19,11.94-2.27,2-2.57,4.45-1.36,5.96,1.03,1.27,2.39,2.57,8.82.47,4.63-1.53,10.53-4.01,15.83-6.16.56-.24,1,.5.53.88-1.27,1.06-3.74,2.98-5.1,4.39-2.15,2.27-2.18,4.48-1.09,5.93.56.77,1.83,2.03,5.4,1.74,2.95-.24,6.37-.86,10.97-2.12,3.36-.94,2.89-6.16-1.89-5.31-1.21.21-2.95.56-4.22.83-.53.12-.88-.59-.44-.91,3.18-2.51,6.93-5.54,8.67-7.11,2.27-2,3.18-4.16,1.68-6.16-1.56-2.03-4.63-1.42-8.31-.35-2.27.65-5.81,1.86-8.34,2.71-.53.18-.94-.65-.41-.97h0Z"/>
</svg>