<?xml version="1.0" encoding="UTF-8"?>
<svg id="Layer_1" data-name="Layer 1" xmlns="http://www.w3.org/2000/svg" viewBox="0 0 60 60">
  <defs>
    <style>
      .cls-1 {
        fill: #004482;
      }

      .cls-2 {
        fill: #00599c;
      }

      .cls-3 {
        fill: #fff;
      }

      .cls-4 {
        fill: #659ad2;
      }
    </style>
  </defs>
  <path class="cls-1" d="M56.65,17.64c.02-.93-.2-1.85-.65-2.67-.46-.79-1.13-1.44-1.93-1.88-7.1-4.1-14.2-8.19-21.31-12.28-1.91-1.11-3.77-1.07-5.67.06-2.83,1.66-16.97,9.78-21.19,12.22-1.74,1.01-2.58,2.55-2.58,4.55v24.72c-.02.91.2,1.81.63,2.61.46.81,1.14,1.48,1.96,1.93,4.22,2.45,18.37,10.56,21.19,12.23,1.9,1.12,3.76,1.16,5.67.06,7.1-4.1,14.2-8.2,21.31-12.29.82-.45,1.5-1.12,1.96-1.93.43-.8.64-1.7.63-2.61v-24.72h-.02Z"/>
  <path class="cls-2" d="M56.66,42.36c.02.91-.2,1.81-.63,2.61-.11.19-.22.38-.36.55l-25.69-15.53,24.08-16.91c.8.44,1.47,1.09,1.93,1.88.45.82.67,1.74.65,2.67,0,8.24,0,24.72,0,24.72h0Z"/>
  <path class="cls-4" d="M56,14.97L3.95,44.98c-.43-.8-.64-1.7-.62-2.61v-24.73c0-2,.85-3.54,2.58-4.55C10.12,10.65,24.27,2.53,27.1.86c1.9-1.12,3.75-1.16,5.67-.06,7.1,4.1,14.2,8.2,21.31,12.29.8.44,1.47,1.09,1.93,1.88Z"/>
  <path class="cls-3" d="M31.02,39.99c-3.57,0-6.86-1.93-8.58-5.06-.09-.15-.17-.31-.25-.47-2.36-4.87-.32-10.73,4.55-13.09,4.07-1.97,8.96-.9,11.84,2.6.13.16.25.32.38.49.06.08.12.16.17.25l8.6-4.95c-.21-.34-.43-.66-.66-.98-.12-.17-.25-.33-.36-.49-6.6-8.58-18.91-10.18-27.48-3.58-7.53,5.8-9.82,16.17-5.42,24.6.08.16.17.31.25.47,5.34,9.42,17.3,12.72,26.72,7.39,2.78-1.58,5.13-3.81,6.85-6.5l-8.41-5.08c-1.81,2.76-4.89,4.42-8.18,4.42h0Z"/>
</svg>