<?xml version="1.0" encoding="UTF-8"?>
<svg id="Layer_1" data-name="Layer 1" xmlns="http://www.w3.org/2000/svg" viewBox="0 0 60 60">
  <defs>
    <style>
      .cls-1 {
        fill: #5c8dbc;
      }

      .cls-2 {
        fill: #1a4674;
      }

      .cls-3 {
        fill: #fff;
      }

      .cls-4 {
        fill: #1b598e;
      }
    </style>
  </defs>
  <path class="cls-1" d="M56.69,17.81c0-1.01-.22-1.9-.65-2.67-.43-.75-1.07-1.38-1.93-1.88-7.11-4.1-14.22-8.18-21.33-12.29-1.92-1.11-3.77-1.07-5.67.06-2.83,1.67-16.99,9.78-21.21,12.23-1.74,1.01-2.58,2.55-2.58,4.55,0,8.24,0,16.48,0,24.72,0,.99.21,1.86.62,2.61.43.78,1.08,1.42,1.96,1.93,4.22,2.44,18.39,10.56,21.21,12.23,1.9,1.12,3.76,1.16,5.68.06,7.1-4.1,14.22-8.19,21.33-12.29.88-.51,1.53-1.16,1.96-1.93.42-.75.62-1.63.62-2.61,0,0,0-16.48,0-24.72"/>
  <path class="cls-2" d="M30.08,30.09L3.93,45.14c.43.78,1.08,1.42,1.96,1.93,4.22,2.44,18.39,10.56,21.21,12.23,1.9,1.12,3.76,1.16,5.68.06,7.1-4.1,14.22-8.19,21.33-12.29.88-.51,1.53-1.16,1.96-1.93l-25.99-15.05"/>
  <path class="cls-2" d="M22.34,34.55c1.52,2.66,4.38,4.45,7.66,4.45s6.18-1.81,7.69-4.5l-7.61-4.41-7.75,4.46"/>
  <path class="cls-4" d="M56.69,17.81c0-1.01-.22-1.9-.65-2.67l-25.96,14.95,25.99,15.05c.42-.75.62-1.63.62-2.61,0,0,0-16.48,0-24.72"/>
  <path class="cls-3" d="M55.26,31.16h-2.03v2.03h-2.03v-2.03h-2.03v-2.03h2.03v-2.03h2.03v2.03h2.03v2.03M47.85,31.16h-2.03v2.03h-2.03v-2.03h-2.03v-2.03h2.03v-2.03h2.03v2.03h2.03v2.03"/>
  <path class="cls-3" d="M37.69,34.5c-1.51,2.68-4.39,4.5-7.69,4.5s-6.14-1.79-7.66-4.45c-.76-1.33-1.17-2.84-1.16-4.38,0-4.88,3.95-8.83,8.83-8.83,3.26,0,6.11,1.77,7.64,4.4l7.72-4.44c-3.07-5.29-8.79-8.86-15.35-8.86-9.79,0-17.73,7.94-17.73,17.73,0,3.21.85,6.22,2.35,8.82,3.06,5.32,8.8,8.91,15.38,8.91s12.34-3.6,15.4-8.94l-7.7-4.46"/>
</svg>