<?xml version="1.0" encoding="UTF-8"?>
<svg id="Layer_1" data-name="Layer 1" xmlns="http://www.w3.org/2000/svg" viewBox="0 0 60 60">
  <defs>
    <style>
      .cls-1 {
        fill: #a179dc;
      }

      .cls-2 {
        fill: #fff;
      }

      .cls-3 {
        fill: #280068;
      }

      .cls-4 {
        fill: #390091;
      }
    </style>
  </defs>
  <path class="cls-1" d="M56.69,17.64c0-1.01-.22-1.9-.65-2.67-.43-.75-1.07-1.38-1.93-1.88-7.11-4.1-14.22-8.18-21.32-12.28-1.92-1.11-3.77-1.07-5.67.06-2.83,1.67-16.99,9.78-21.21,12.23-1.74,1.01-2.58,2.55-2.58,4.55,0,8.24,0,16.48,0,24.72,0,.99.21,1.86.62,2.61.43.78,1.08,1.42,1.96,1.93,4.22,2.44,18.38,10.56,21.21,12.23,1.9,1.12,3.76,1.16,5.67.06,7.1-4.1,14.22-8.19,21.33-12.28.88-.51,1.53-1.16,1.96-1.93.42-.75.62-1.63.62-2.61,0,0,0-16.48,0-24.72"/>
  <path class="cls-3" d="M30.08,29.92L3.93,44.98c.43.78,1.08,1.42,1.96,1.93,4.22,2.44,18.38,10.56,21.21,12.23,1.9,1.12,3.76,1.16,5.67.06,7.1-4.1,14.22-8.19,21.33-12.28.88-.51,1.53-1.16,1.96-1.93l-25.98-15.05Z"/>
  <path class="cls-4" d="M56.69,17.64c0-1.01-.22-1.9-.65-2.67l-25.95,14.94,25.98,15.05c.42-.75.62-1.63.62-2.61,0,0,0-16.48,0-24.72"/>
  <g>
    <path class="cls-2" d="M45.48,24.29v2.81h2.81v-2.81h1.41v2.81h2.81v1.41h-2.81v2.81h2.81v1.41h-2.81v2.81h-1.41v-2.81h-2.81v2.81h-1.41v-2.81h-2.81v-1.41h2.81v-2.81h-2.81v-1.41h2.81v-2.81h1.41ZM48.29,28.51h-2.81v2.81h2.81v-2.81Z"/>
    <path class="cls-2" d="M30.14,10.16c7.34,0,13.75,3.99,17.18,9.91l-.03-.06-8.64,4.97c-1.7-2.88-4.82-4.83-8.4-4.87h-.11c-5.46,0-9.88,4.42-9.88,9.88,0,1.72.45,3.41,1.3,4.9,1.7,2.97,4.9,4.98,8.58,4.98s6.92-2.03,8.61-5.04l-.04.07,8.62,5c-3.39,5.88-9.72,9.85-16.97,9.93h-.22c-7.36,0-13.79-4.01-17.21-9.97-1.67-2.91-2.63-6.28-2.63-9.87,0-10.96,8.88-19.84,19.84-19.84h0Z"/>
  </g>
</svg>