<?xml version="1.0" encoding="UTF-8"?>
<svg id="Layer_1" data-name="Layer 1" xmlns="http://www.w3.org/2000/svg" viewBox="0 0 60 60">
  <defs>
    <style>
      .cls-1 {
        fill: #1b73ba;
      }

      .cls-2 {
        fill: #fff;
      }

      .cls-3 {
        fill: #1c88c7;
      }
    </style>
  </defs>
  <g>
    <path class="cls-1" d="M12.14,54.88l-3.59-43.9,42.9.09-3.8,43.81-17.49,5.06-18.02-5.06Z"/>
    <path class="cls-3" d="M30.16,55.7V15.16l17.67.06-3.15,36.28-14.52,4.21Z"/>
    <path class="cls-2" d="M43.44,20.34h-27.18l.74,5.3h12.9l-12.69,5.45.74,5.12h18.7l-.68,7.15-6.33,1.24-5.74-1.47-.44-4.06h-5.27l.71,8.45,11.31,3.15,10.84-3.44,1.38-16.52h-11.45l12.48-5.18v-5.18Z"/>
  </g>
  <g>
    <path d="M23.82,5.16l2.17.69c-.15.64-.38,1.18-.69,1.61-.31.43-.7.76-1.17.98s-1.06.33-1.78.33c-.87,0-1.58-.13-2.14-.4-.55-.27-1.03-.74-1.43-1.41s-.6-1.54-.6-2.59c0-1.4.35-2.48,1.06-3.24.71-.75,1.71-1.13,3-1.13,1.01,0,1.8.22,2.38.65.58.43,1.01,1.1,1.29,1.99l-2.19.51c-.08-.26-.16-.45-.24-.57-.14-.2-.31-.36-.51-.46-.2-.11-.42-.16-.67-.16-.56,0-.99.24-1.29.72-.23.35-.34.91-.34,1.67,0,.94.13,1.58.4,1.93.27.35.65.52,1.14.52s.83-.14,1.08-.42.42-.69.53-1.23Z"/>
    <path d="M26.76,5.82l2.36-.16c.05.41.15.71.31.93.25.34.62.51,1.09.51.35,0,.63-.09.82-.26.19-.18.29-.38.29-.61s-.09-.42-.27-.59-.61-.34-1.27-.49c-1.09-.26-1.86-.6-2.32-1.03-.47-.43-.7-.97-.7-1.64,0-.44.12-.85.36-1.24.24-.39.6-.69,1.08-.91s1.14-.33,1.97-.33c1.03,0,1.81.2,2.34.6.54.4.86,1.04.96,1.92l-2.34.14c-.06-.38-.19-.66-.39-.83s-.47-.26-.82-.26c-.29,0-.51.06-.65.19s-.22.29-.22.47c0,.14.06.26.18.36.12.11.39.22.83.31,1.08.25,1.86.5,2.33.75.47.25.81.57,1.02.94.21.37.32.79.32,1.26,0,.54-.14,1.05-.43,1.5-.28.46-.68.81-1.19,1.04-.51.24-1.15.36-1.93.36-1.36,0-2.31-.28-2.83-.83s-.82-1.26-.89-2.12Z"/>
    <path d="M34.86,5.82l2.36-.16c.05.41.15.71.31.93.25.34.62.51,1.09.51.35,0,.63-.09.82-.26.19-.18.29-.38.29-.61s-.09-.42-.27-.59-.61-.34-1.27-.49c-1.09-.26-1.86-.6-2.32-1.03-.47-.43-.7-.97-.7-1.64,0-.44.12-.85.36-1.24.24-.39.6-.69,1.08-.91s1.14-.33,1.97-.33c1.03,0,1.81.2,2.34.6.54.4.86,1.04.96,1.92l-2.34.14c-.06-.38-.19-.66-.39-.83s-.47-.26-.82-.26c-.29,0-.51.06-.65.19s-.22.29-.22.47c0,.14.06.26.18.36.12.11.39.22.83.31,1.08.25,1.86.5,2.33.75.47.25.81.57,1.02.94.21.37.32.79.32,1.26,0,.54-.14,1.05-.43,1.5-.28.46-.68.81-1.19,1.04-.51.24-1.15.36-1.93.36-1.36,0-2.31-.28-2.83-.83s-.82-1.26-.89-2.12Z"/>
  </g>
</svg>