<?xml version="1.0" encoding="UTF-8"?>
<svg id="Layer_1" data-name="Layer 1" xmlns="http://www.w3.org/2000/svg" xmlns:xlink="http://www.w3.org/1999/xlink" viewBox="0 0 60 60">
  <defs>
    <style>
      .cls-1 {
        fill: #1b1e2e;
      }

      .cls-2 {
        fill: url(#linear-gradient-3);
      }

      .cls-3 {
        fill: url(#linear-gradient-2);
      }

      .cls-4 {
        fill: url(#linear-gradient);
      }

      .cls-5 {
        fill: #69d3a7;
      }
    </style>
    <linearGradient id="linear-gradient" x1="-212.89" y1="-770.14" x2="-223.07" y2="-776.73" gradientTransform="translate(622.48 -1996.32) scale(2.63 -2.63)" gradientUnits="userSpaceOnUse">
      <stop offset=".08" stop-color="#69d3a7"/>
      <stop offset="1" stop-color="#69d3a7" stop-opacity="0"/>
    </linearGradient>
    <linearGradient id="linear-gradient-2" x1="-228.96" y1="-758.83" x2="-235.36" y2="-772.39" gradientTransform="translate(622.48 -1996.32) scale(2.63 -2.63)" gradientUnits="userSpaceOnUse">
      <stop offset="0" stop-color="#69d3a7"/>
      <stop offset=".82" stop-color="#2ab586"/>
      <stop offset="1" stop-color="#1cae7f"/>
    </linearGradient>
    <linearGradient id="linear-gradient-3" x1="-236.58" y1="-775.28" x2="-219.82" y2="-780.54" gradientTransform="translate(622.48 -1996.32) scale(2.63 -2.63)" gradientUnits="userSpaceOnUse">
      <stop offset=".08" stop-color="#1cae7f"/>
      <stop offset=".16" stop-color="#1ca379"/>
      <stop offset=".32" stop-color="#1c8568"/>
      <stop offset=".52" stop-color="#1b554d"/>
      <stop offset=".72" stop-color="#1b1e2e"/>
    </linearGradient>
  </defs>
  <path class="cls-1" d="M21.09,23.77c2.43,0,4.4,1.29,5.41,3.54l.08.18,4.07-1.38-.08-.21c-1.57-3.84-5.2-6.22-9.47-6.22-3,0-5.44.96-7.45,2.94-2,1.96-3.01,4.43-3.01,7.34s1.02,5.34,3.01,7.3c2.01,1.98,4.45,2.94,7.45,2.94,4.26,0,7.89-2.39,9.47-6.22l.08-.21-4.07-1.38-.07.18c-.91,2.22-2.93,3.54-5.41,3.54-1.69,0-3.11-.59-4.24-1.75-1.14-1.17-1.72-2.66-1.72-4.4s.56-3.2,1.72-4.43c1.13-1.16,2.55-1.75,4.24-1.75Z"/>
  <path class="cls-4" d="M38.74,58.6l-1.21-4c10.94-3.32,18.29-13.23,18.29-24.65,0-3.15-.56-6.23-1.67-9.15l3.9-1.48c1.29,3.4,1.95,6.97,1.95,10.64,0,13.27-8.54,24.78-21.26,28.65Z"/>
  <path class="cls-5" d="M54.69,22.4c-3.34-10.9-13.26-18.22-24.69-18.22-1.55,0-3.11.14-4.62.41l-.74-4.11c1.76-.32,3.56-.48,5.36-.48,13.27,0,24.8,8.51,28.68,21.17l-3.99,1.23Z"/>
  <path class="cls-3" d="M1.92,40.51c-1.28-3.37-1.92-6.93-1.92-10.56C0,14.48,11.61,1.67,27.02.15l.41,4.16C14.17,5.61,4.17,16.64,4.17,29.95c0,3.13.56,6.19,1.65,9.09l-3.9,1.47Z"/>
  <path class="cls-1" d="M46.56,20.06l-5.79,14.68-5.84-14.68h-4.77l8.18,20.03-5.96,14.46,4.17.83,14.51-35.33h-4.51Z"/>
  <path class="cls-2" d="M33.13,52.73l-.88,2.13c-.2.49-.66.82-1.18.84-.36.01-.71.03-1.08.03-11.46,0-21.67-7.67-24.82-18.66l-4.02,1.15c3.66,12.76,15.52,21.68,28.83,21.69h0c.42,0,.83,0,1.25-.03,2.14-.09,4.05-1.43,4.88-3.42l1.19-2.89-4.17-.83Z"/>
</svg>