<?xml version="1.0" encoding="UTF-8"?>
<svg id="Layer_1" data-name="Layer 1" xmlns="http://www.w3.org/2000/svg" viewBox="0 0 60 60">
  <defs>
    <style>
      .cls-1 {
        fill: #2ba977;
      }
    </style>
  </defs>
  <path class="cls-1" d="M27.64.18h9.8v44.9c-5.02.95-8.71,1.32-12.71,1.32-11.96-.01-18.19-5.36-18.19-15.62S13.15,14.46,23.38,14.46c1.59,0,2.8.13,4.26.5V.18h0ZM27.99,23.05c-1.15-.37-2.09-.5-3.3-.5-4.95,0-7.82,3.02-7.82,8.32s2.74,8,7.75,8c1.08,0,1.97-.06,3.37-.25v-15.57h0Z"/>
  <path class="cls-1" d="M53.46,15.67v22.48c0,7.74-.58,11.46-2.28,14.67-1.59,3.09-3.68,5.03-8.01,7.18l-9.09-4.28c4.32-2.01,6.42-3.79,7.75-6.5,1.4-2.77,1.84-5.98,1.84-14.42V15.67h9.78ZM42.69.18h9.8v9.95h-9.8V.18Z"/>
</svg>