<?xml version="1.0" encoding="UTF-8"?>
<svg id="Layer_1" data-name="Layer 1" xmlns="http://www.w3.org/2000/svg" viewBox="0 0 60 60">
  <defs>
    <style>
      .cls-1 {
        fill: #0091e2;
      }
    </style>
  </defs>
  <path class="cls-1" d="M59.42,24.82c-.17-.14-1.67-1.26-4.9-1.26-.83,0-1.7.08-2.53.22-.61-4.2-4.15-6.24-4.29-6.35l-.86-.49-.56.8c-.7,1.07-1.22,2.28-1.53,3.52-.58,2.39-.22,4.64,1,6.57-1.47.82-3.87,1.02-4.37,1.04H1.87C.84,28.86,0,29.68,0,30.7c-.06,3.41.53,6.81,1.73,10.03,1.36,3.52,3.39,6.13,6.01,7.72,2.95,1.79,7.76,2.8,13.19,2.8,2.45,0,4.9-.22,7.32-.66,3.37-.6,6.6-1.76,9.57-3.43,2.44-1.4,4.64-3.18,6.51-5.28,3.14-3.49,5.01-7.39,6.37-10.85h.56c3.42,0,5.54-1.35,6.71-2.5.78-.71,1.36-1.59,1.78-2.58l.25-.71-.58-.41Z"/>
  <path class="cls-1" d="M5.54,27.73h5.29c.25,0,.47-.19.47-.47v-4.67c0-.25-.19-.47-.47-.47h-5.29c-.25,0-.47.19-.47.47v4.67c.03.27.22.47.47.47h0ZM12.83,27.73h5.29c.25,0,.47-.19.47-.47v-4.67c0-.25-.19-.47-.47-.47h-5.29c-.25,0-.47.19-.47.47v4.67c.03.27.22.47.47.47M20.26,27.73h5.29c.25,0,.47-.19.47-.47v-4.67c0-.25-.19-.47-.47-.47h-5.29c-.25,0-.47.19-.47.47v4.67c0,.27.19.47.47.47ZM27.58,27.73h5.29c.25,0,.47-.19.47-.47v-4.67c0-.25-.19-.47-.47-.47h-5.29c-.25,0-.47.19-.47.47v4.67c0,.27.22.47.47.47ZM12.83,21.06h5.29c.25,0,.47-.22.47-.47v-4.67c0-.25-.19-.47-.47-.47h-5.29c-.25,0-.47.19-.47.47v4.67c.03.25.22.47.47.47M20.26,21.06h5.29c.25,0,.47-.22.47-.47v-4.67c0-.25-.19-.47-.47-.47h-5.29c-.25,0-.47.19-.47.47v4.67c0,.25.19.47.47.47M27.58,21.06h5.29c.25,0,.47-.22.47-.47v-4.67c0-.25-.22-.47-.47-.47h-5.29c-.25,0-.47.19-.47.47v4.67c0,.25.22.47.47.47M27.58,14.35h5.29c.25,0,.47-.19.47-.47v-4.67c0-.25-.22-.47-.47-.47h-5.29c-.25,0-.47.19-.47.47v4.67c0,.25.22.47.47.47M34.96,27.73h5.29c.25,0,.47-.19.47-.47v-4.67c0-.25-.19-.47-.47-.47h-5.29c-.25,0-.47.19-.47.47v4.67c.03.27.22.47.47.47"/>
</svg>