<?xml version="1.0" encoding="UTF-8"?>
<svg id="Layer_1" data-name="Layer 1" xmlns="http://www.w3.org/2000/svg" viewBox="0 0 60 60">
  <defs>
    <style>
      .cls-1 {
        fill: #2dd0ed;
      }

      .cls-2 {
        fill: #2b2e3a;
      }
    </style>
  </defs>
  <circle class="cls-2" cx="30" cy="30" r="30"/>
  <g>
    <path class="cls-1" d="M23.65,16.72c-6.11-1.11-10.94.05-12.87,3.39-1.44,2.49-1.03,5.79,1,9.32.17.3.55.4.86.23,0,0,0,0,0,0,.3-.17.4-.56.23-.86-1.82-3.18-2.18-6.03-1-8.07,1.6-2.77,5.91-3.81,11.56-2.78.34.07.67-.15.74-.49.02-.08.02-.17,0-.26-.06-.25-.26-.44-.51-.48h0ZM14.95,33.71c2.47,2.72,5.68,5.26,9.34,7.38,8.86,5.12,18.3,6.49,22.95,3.31.28-.2.35-.59.15-.87-.19-.28-.57-.35-.85-.16-4.16,2.84-13.13,1.54-21.62-3.36-3.55-2.05-6.66-4.52-9.04-7.13-.17-.19-.44-.26-.68-.18-.33.12-.5.47-.38.8.03.08.07.16.13.22h0Z"/>
    <path class="cls-1" d="M45.77,32.95c4-4.73,5.4-9.48,3.48-12.81-1.41-2.45-4.4-3.74-8.38-3.79-.35,0-.63.27-.64.62,0,.25.15.48.38.58.08.03.16.05.24.05,3.57.05,6.15,1.16,7.31,3.17,1.6,2.76.35,7-3.35,11.37-.23.26-.2.66.06.88,0,0,0,0,0,0,.26.22.66.19.88-.07,0,0,0,0,0,0h0ZM35.48,16.93c-3.62.78-7.47,2.29-11.17,4.43-9.15,5.28-15.12,13.07-14.29,18.72.04.34.36.59.7.54.34-.04.59-.36.54-.7,0,0,0-.02,0-.03-.74-5.02,4.92-12.4,13.68-17.46,3.59-2.07,7.32-3.54,10.8-4.29.34-.08.54-.43.46-.76-.08-.32-.39-.52-.72-.46h0Z"/>
    <path class="cls-1" d="M20.66,44c2.09,5.84,5.52,9.44,9.36,9.44,2.81,0,5.4-1.91,7.43-5.28.09-.14.12-.32.08-.48-.08-.34-.41-.55-.75-.47-.09.02-.17.06-.24.12-.07.05-.12.12-.16.19-1.82,3.03-4.06,4.68-6.36,4.68-3.2,0-6.25-3.21-8.18-8.61-.05-.16-.17-.29-.32-.37-.08-.04-.16-.06-.24-.06-.35-.02-.64.25-.66.59,0,0,0,0,0,.01,0,.08.01.17.04.24h0ZM39.77,42.86c1.08-3.46,1.66-7.45,1.66-11.61,0-10.38-3.63-19.33-8.81-21.63-.32-.13-.69.02-.82.33-.13.31,0,.67.31.81,4.62,2.05,8.06,10.54,8.06,20.48,0,4.04-.56,7.9-1.61,11.24-.05.16-.04.33.03.49.16.31.53.43.84.28.16-.08.27-.22.32-.39ZM51.57,42.24c.01-1.66-1.32-3.01-2.98-3.02s-3.01,1.32-3.02,2.98c0,.01,0,.03,0,.04.01,1.66,1.36,2.99,3.02,2.98,1.64-.01,2.97-1.34,2.98-2.98ZM50.32,42.24c0,.96-.78,1.75-1.75,1.75-.96,0-1.75-.78-1.75-1.75s.78-1.75,1.75-1.75c.96,0,1.75.78,1.75,1.75ZM11.43,45.24c1.66,0,3-1.34,3-3h0c0-1.66-1.34-3-3-3h0c-1.66,0-3,1.34-3,3h0c0,1.66,1.34,3,3,3h0ZM11.43,43.99c-.96,0-1.75-.78-1.75-1.74s.78-1.75,1.74-1.75h0c.96,0,1.75.78,1.74,1.75,0,.96-.78,1.74-1.74,1.74Z"/>
    <path class="cls-1" d="M30.02,12.67c1.21,0,2.31-.73,2.77-1.85.63-1.53-.09-3.29-1.62-3.92-.36-.15-.75-.23-1.15-.23-1.66,0-3,1.34-3,3,0,.8.32,1.56.88,2.12.56.56,1.33.88,2.12.88h0ZM30.02,11.42c-.71,0-1.34-.43-1.61-1.08-.18-.43-.18-.91,0-1.34.18-.43.52-.77.94-.94.89-.37,1.91.05,2.28.95.37.89-.05,1.91-.95,2.28-.21.09-.44.13-.67.13h0ZM30.48,33.36c-.56.12-1.15.01-1.63-.3-1.01-.65-1.3-1.99-.65-3,.31-.48.8-.82,1.37-.95,1.16-.23,2.3.51,2.55,1.67.25,1.16-.48,2.3-1.63,2.57h0Z"/>
  </g>
</svg>