<?xml version="1.0" encoding="UTF-8"?>
<svg id="Layer_1" data-name="Layer 1" xmlns="http://www.w3.org/2000/svg" viewBox="0 0 60 60">
  <defs>
    <style>
      .cls-1 {
        fill: #fff;
      }

      .cls-2 {
        fill: #222;
      }
    </style>
  </defs>
  <rect class="cls-1" x="0" width="60" height="60" rx="4.55" ry="4.55"/>
  <path class="cls-2" d="M4.37,34.21v-5.78h7.22v-.34h-7.22v-5.27h7.67v-.34H4.04v12.07h8.08v-.34h-7.74ZM18.62,25.86l-2.99,3.94-2.92-3.94h-.44l3.16,4.19-3.46,4.49h.41l3.26-4.24,3.28,4.24h.42l-3.48-4.5,3.18-4.19h-.41,0ZM20.34,37.52v-5.41h.03c.2.79.6,1.42,1.2,1.9.6.48,1.36.72,2.28.72.6,0,1.13-.12,1.59-.36s.85-.57,1.16-.99c.31-.42.55-.9.71-1.45.16-.55.25-1.13.25-1.74,0-.65-.08-1.26-.25-1.81-.17-.55-.41-1.03-.74-1.44-.32-.41-.71-.72-1.17-.95-.46-.23-.97-.34-1.55-.34-.44,0-.85.06-1.23.19-.38.13-.71.31-1.01.55-.29.24-.55.52-.76.84-.21.32-.38.67-.49,1.06h-.03v-2.43h-.34v11.66h.34,0ZM23.86,34.41c-1.06,0-1.91-.36-2.55-1.09-.64-.73-.96-1.77-.96-3.13,0-.56.08-1.1.24-1.61.16-.51.39-.95.68-1.33.3-.38.67-.69,1.11-.91.44-.23.94-.34,1.49-.34s1.06.11,1.48.34c.42.23.77.53,1.05.92s.48.83.63,1.33c.14.5.21,1.03.21,1.6,0,.51-.06,1.01-.19,1.51-.13.5-.33.95-.6,1.35-.27.4-.62.73-1.04.98-.42.25-.93.38-1.53.38h0ZM29.42,34.55v-4.92c0-.47.07-.94.2-1.39.14-.45.34-.85.63-1.19.28-.34.64-.61,1.07-.81.43-.2.95-.28,1.55-.25v-.34c-.52-.01-.97.05-1.36.17-.39.12-.72.29-1.01.51-.28.21-.51.46-.68.75-.17.29-.29.6-.37.92h-.03v-2.15h-.34v8.69h.34ZM33.29,30.27h7.27c.02-.6-.04-1.17-.18-1.72-.14-.55-.37-1.04-.68-1.47-.31-.43-.71-.77-1.2-1.03s-1.07-.39-1.75-.39c-.48,0-.96.1-1.42.3-.46.2-.87.5-1.22.89s-.63.86-.84,1.43c-.21.56-.32,1.21-.32,1.93,0,.64.07,1.24.22,1.8s.37,1.04.68,1.45c.3.41.7.73,1.17.95.48.23,1.06.33,1.73.32.99,0,1.83-.28,2.5-.84.68-.56,1.08-1.34,1.2-2.36h-.34c-.15.96-.52,1.68-1.12,2.15-.6.48-1.36.72-2.27.72-.62,0-1.14-.11-1.57-.32-.43-.21-.78-.51-1.05-.88-.27-.37-.47-.81-.6-1.31-.13-.5-.2-1.04-.21-1.63h0ZM40.22,29.93h-6.93c.03-.61.15-1.15.34-1.64.19-.48.44-.9.75-1.24.31-.34.67-.61,1.08-.79.41-.18.85-.27,1.33-.27.56,0,1.06.1,1.49.31.43.21.79.49,1.07.85.29.36.5.78.65,1.26.15.48.22.98.22,1.51h0ZM47.57,28.43h.34c0-.97-.28-1.67-.84-2.11-.56-.44-1.33-.66-2.3-.66-.54,0-1,.07-1.37.2-.37.14-.68.31-.91.52-.24.21-.41.45-.51.71s-.15.51-.15.74c0,.47.08.85.25,1.13.17.28.43.5.79.66.25.11.53.21.84.3.32.09.68.19,1.1.29.37.09.74.18,1.1.27.36.09.68.21.95.36.28.15.5.35.68.58.17.24.26.55.26.93s-.09.69-.26.95c-.17.26-.4.47-.67.63-.27.16-.57.28-.9.35-.33.07-.66.11-.97.11-1.03,0-1.81-.23-2.36-.68-.55-.46-.82-1.17-.82-2.15h-.34c0,1.09.3,1.89.89,2.4.59.51,1.47.76,2.63.76.37,0,.75-.04,1.12-.13.38-.08.72-.22,1.01-.41.3-.19.54-.44.73-.74.19-.3.28-.68.28-1.12s-.08-.75-.25-1.01c-.16-.26-.38-.47-.64-.64-.26-.17-.56-.3-.9-.4-.33-.1-.67-.19-1.01-.28-.41-.11-.83-.22-1.24-.32-.35-.09-.68-.2-.99-.32-.29-.12-.53-.3-.7-.53-.17-.23-.26-.56-.26-.99,0-.08.02-.22.07-.42.05-.2.15-.41.32-.62.17-.21.43-.39.78-.56.35-.16.83-.25,1.44-.25.42,0,.8.05,1.14.14.34.09.64.23.89.43.25.2.44.45.57.75.14.3.2.68.2,1.12h0ZM55.39,28.43h.34c0-.97-.28-1.67-.84-2.11s-1.33-.66-2.3-.66c-.54,0-1,.07-1.37.2-.37.14-.68.31-.91.52-.24.21-.41.45-.51.71s-.15.51-.15.74c0,.47.08.85.25,1.13.17.28.43.5.79.66.25.11.53.21.84.3.32.09.68.19,1.1.29.37.09.74.18,1.1.27.36.09.68.21.95.36.28.15.5.35.68.58.17.24.26.55.26.93s-.09.69-.26.95c-.17.26-.4.47-.67.63-.27.16-.57.28-.9.35-.33.07-.66.11-.97.11-1.03,0-1.81-.23-2.36-.68-.55-.46-.82-1.17-.82-2.15h-.34c0,1.09.3,1.89.89,2.4.59.51,1.47.76,2.63.76.37,0,.75-.04,1.12-.13.38-.08.72-.22,1.01-.41.3-.19.54-.44.73-.74.19-.3.28-.68.28-1.12s-.08-.75-.25-1.01c-.16-.26-.38-.47-.64-.64-.26-.17-.56-.3-.9-.4-.33-.1-.67-.19-1.01-.28-.41-.11-.83-.22-1.24-.32-.35-.09-.68-.2-.99-.32-.29-.12-.53-.3-.7-.53-.17-.23-.26-.56-.26-.99,0-.08.02-.22.07-.42.05-.2.15-.41.32-.62.17-.21.43-.39.78-.56.35-.16.83-.25,1.44-.25.42,0,.8.05,1.14.14.34.09.64.23.89.43s.44.45.57.75c.14.3.2.68.2,1.12h0Z"/>
</svg>