<?xml version="1.0" encoding="UTF-8"?>
<svg id="Layer_1" data-name="Layer 1" xmlns="http://www.w3.org/2000/svg" viewBox="0 0 60 60">
  <defs>
    <style>
      .cls-1 {
        fill: none;
      }

      .cls-2 {
        fill: #0acf83;
      }

      .cls-3 {
        fill: #ff7262;
      }

      .cls-4 {
        fill: #1e1e1e;
      }

      .cls-5 {
        fill: #1abcfe;
      }

      .cls-6 {
        fill: #f24e1e;
      }

      .cls-7 {
        fill: #a259ff;
      }
    </style>
  </defs>
  <path class="cls-4" d="M10.63,0h38.75C55.25,0,60,4.87,60,10.9v38.21c0,6.03-4.75,10.9-10.62,10.9H10.63C4.75,60,0,55.13,0,49.1V10.9C0,4.87,4.75,0,10.63,0Z"/>
  <g>
    <path class="cls-1" d="M15.41,8.11h29.18v43.77H15.41V8.11Z"/>
    <path class="cls-5" d="M30,30c0-4.03,3.27-7.3,7.3-7.3s7.3,3.27,7.3,7.3-3.27,7.3-7.3,7.3-7.3-3.27-7.3-7.3Z"/>
    <path class="cls-2" d="M15.41,44.59c0-4.03,3.27-7.3,7.3-7.3h7.3v7.3c0,4.03-3.27,7.3-7.3,7.3s-7.3-3.27-7.3-7.3Z"/>
    <path class="cls-3" d="M30,8.11v14.59h7.3c4.03,0,7.3-3.27,7.3-7.3s-3.27-7.29-7.3-7.29h-7.3Z"/>
    <path class="cls-6" d="M15.41,15.41c0,4.03,3.27,7.3,7.3,7.3h7.3v-14.59h-7.3c-4.03,0-7.3,3.27-7.3,7.3h0Z"/>
    <path class="cls-7" d="M15.41,30c0,4.03,3.27,7.3,7.3,7.3h7.3v-14.59h-7.3c-4.03,0-7.3,3.27-7.3,7.3h0Z"/>
  </g>
</svg>