<?xml version="1.0" encoding="UTF-8"?>
<svg id="Layer_1" data-name="Layer 1" xmlns="http://www.w3.org/2000/svg" viewBox="0 0 60 60">
  <defs>
    <style>
      .cls-1 {
        fill: #fff;
      }
    </style>
  </defs>
  <g>
    <path class="cls-1" d="M7.24,11.9c-.09,1.48.9,2.78,1.3,4.16.48,1.66.9,3.34,1.36,5l2.74-1.16c-.15-.3-.3-.6-.45-.9l-2.59,1.51c.49.93.92,1.87,1.29,2.85l2.2-1.69-.3-.17c-1.13-.64-2.56.42-2.2,1.69.4,1.44,1.29,2.61,1.77,3.98s1.57,2.29,2.38,3.51,1.22,2.06,2.82,1.98c1.51-.08,3.05-.5,4.37-1.26,1.15-.66,2.17-1.65,2.82-2.81.71-1.26.77-2.22.34-3.56-.99-3.12-1.65-6.46-2.29-9.67l-2.89.8c.16.4.25.73.31,1.15.26,1.8,2.79,1.14,2.95-.4.11-1,.03-1.95-.17-2.94l-2.2,1.69.13.08-.74-1.3v.17c.25-.43.5-.86.74-1.3l-.12.08,2.2,1.69c.18-1.14.26-2.24.15-3.39-.08-.89-.63-1.39-1.5-1.5-2.14-.26-4.28-.44-6.42-.09-.83.13-2.11.32-2.81.84-.36.01-.45.12-.27.32-.09-.22-.22-.42-.38-.59-.33-.39-.7-.59-1.2-.67v2.89c1.66-.65,3.36-1.21,5.09-1.64,1.55-.38,3.47-.99,5.07-.85l-1.06-.44c-.31-.4-.02.1-.08.3-.09.28-.13.53-.34.76-.42.46-1.06.55-1.41,1.12-.76,1.26-.33,3.49-.12,4.86.55,3.55,2.16,6.78,3.22,10.18.1.32.42.95.33,1.26-.14.49-.17.24-.75.12-.75-.16-1.52-.1-2.27-.04-1.09.08-1.04.08-1.57-.83-.47-.8-.93-1.6-1.39-2.4-1.82-3.17-3.5-6.28-2.66-10.05l-2.51.66c1.15,1.26,1.51,2.97,1.95,4.57.49,1.8,1.14,3.45,2.18,5,.83,1.23,1.86,3.31,3.26,3.93,1.29.56,3.48.2,3.8-1.41.19-.96-.48-1.41-.85-2.21s-.49-1.79-.64-2.67c-.33-1.98-.43-3.99-.68-5.98-.18-1.44-.19-3.99-1.36-5.03-.7-.62-1.48-.46-2.3-.25-1.12.28-2.24.58-3.35.86-1.62.42-1.31,3,.4,2.95.99-.03,1.98-.06,2.97-.1l-1.06-2.56c-.65.77-1.76,1.68-1.81,2.77-.04.87.64,1.68.88,2.49.61,2.02.64,4.15,1.29,6.16l2.89-.8c-1.03-2.64-1.48-5.35-1.33-8.18l-2.56,1.06c.38.4.63.8.87,1.3l2.59-1.51c-.56-1.03-1.4-2.39-.86-3.59s1.33-2.51-.23-3.36c-.52-.29-1.19-.13-1.62-.43-.49-.33-.8-.86-1.34-1.16-1.11-.62-2.42-.72-3.62-.32-1.54.51-1.37,3,.4,2.95,1.42-.05,3.69-.51,4.27-2.04.11-.3,0-.8.11-1.04-.2.41.34-.14.39-.19.57-.57.88-1.14,1.09-1.92l-.69.9.17-.12-1.16.15.18.04v-2.89c-.24.05-.49.05-.73.02-1.53-.23-2.82,1.93-1.16,2.74.84.41,1.57.89,2.28,1.49.28.23.55.49.87.67.23.13.93.19,1.09.35l.66-2.51c-.79.26-1.57.43-2.4.52-.65.07-1.25.14-1.77.6-1,.88-.64,2.37.5,2.91,1.22.58,3,.64,4.34.82.65.09,1.29.15,1.95.07.82-.1,1.44-.5,2.22-.72,1.67-.47,1.27-2.86-.4-2.95-2.19-.11-3.69,2.4-4.18,4.21-.65,2.38-.88,5.1-.28,7.51.47,1.87,3.36,1.08,2.89-.8-.39-1.56-.24-3.17.03-4.74.11-.65.23-1.34.5-1.94.15-.34.69-1.26,1.03-1.24l-.4-2.95c-.51.14-.95.45-1.45.59-.55.15-1.18.05-1.73-.03-.6-.08-1.19-.2-1.78-.3-.3-.05-.59-.11-.89-.17-.35-.07-.87-.38-.37.06l.44,1.06v-.19c-.15.35-.3.71-.45,1.06-.13.14,1.16-.03,1.28-.05.58-.1,1.14-.26,1.7-.45,1.06-.35,1.49-1.67.66-2.51-.66-.67-1.55-.7-2.25-1.27-.82-.66-1.65-1.24-2.6-1.7l-1.16,2.74c.81.13,1.51.13,2.33-.02,1.49-.27,1.37-2.55,0-2.89-.75-.19-1.44-.01-1.92.61-.21.28-.21.65-.39.91-.15.22-.42.38-.6.57-.46.49-.75,1.02-.84,1.69-.11.84.24.15.09-.04.07.09-1.39.36-1.5.37l.4,2.95c1.07-.36,1.44.17,2.16.85.36.34.8.62,1.28.76.15.04,1.45.29.95.06l-.69-.9c-.14-.43-.27.07-.36.26-.14.27-.26.56-.34.86-.16.59-.19,1.23-.13,1.84.14,1.36.75,2.57,1.39,3.76.93,1.72,3.41.21,2.59-1.51-.34-.72-.79-1.33-1.34-1.91-.94-.99-2.49-.19-2.56,1.06-.16,3.07.32,6.12,1.43,8.98.69,1.76,3.5,1.08,2.89-.8-.46-1.43-.63-2.91-.89-4.39-.12-.66-.25-1.32-.46-1.96-.2-.6-.69-1.3-.77-1.9l-.15,1.16c.3-.52.75-.96,1.13-1.41.79-.93.33-2.61-1.06-2.56-.99.03-1.98.06-2.97.1l.4,2.95c.88-.23,1.76-.45,2.64-.68.16-.04,1.12-.15,1.2-.31-1.02-.95-1.42-1.11-1.19-.46.06.22.12.44.17.67.36,1.58.52,3.2.68,4.82.29,3,.43,6.16,2.15,8.72l-.15-1.16-.07.25.69-.9c-.44.29-.67-.45-.94-.83-.42-.59-.85-1.17-1.25-1.77-.75-1.12-1.3-2.25-1.67-3.54-.7-2.38-1.2-4.74-2.92-6.63-.74-.81-2.27-.42-2.51.66-.48,2.15-.48,4.37.15,6.49s1.74,4,2.81,5.87c.91,1.59,1.83,4.27,3.81,4.7.92.2,1.86-.06,2.79-.05,1.15.01,2.2.53,3.32,0,1.99-.95,1.76-3.3,1.22-5.05-.67-2.17-1.59-4.26-2.29-6.42-.33-1.01-.62-2.04-.82-3.08-.12-.61-.19-1.23-.22-1.85-.01-.23-.01-.45-.01-.68,0-.41.2-.88-.21-.41.24-.27.69-.42.97-.69s.54-.59.74-.93c.46-.78.66-1.73.57-2.62-.1-1-.55-2.07-1.63-2.27s-2.48.21-3.56.4c-2.6.46-5.14,1.2-7.6,2.17-1.21.48-1.62,2.61,0,2.89-.27-.05-.22-.14-.05.17.1.19.28.35.45.49.35.3.76.47,1.22.55,1.16.21,2.12-.45,3.19-.78,2.29-.69,4.74-.42,7.07-.13l-1.5-1.5c.08.87.09,1.73-.04,2.6-.19,1.18,1,2.48,2.2,1.69,1.12-.73,1.16-2.2,0-2.92s-2.45.47-2.2,1.69c.14.72.14,1.41.06,2.14l2.95-.4c-.06-.42-.15-.76-.31-1.15-.71-1.77-3.28-1.13-2.89.8.62,3.11,1.34,6.25,2.19,9.32.17.6.37.86.16,1.43s-.74,1.1-1.2,1.47c-1.09.87-2.78,1.43-4.18,1.27l1.06.44c-.47-.38-.84-1.29-1.25-1.82-.42-.56-1.09-1.12-1.38-1.74-.31-.66-.49-1.31-.88-1.96-.42-.7-.73-1.39-.95-2.18l-2.2,1.69.3.17c1.06.6,2.68-.41,2.2-1.69s-.98-2.41-1.59-3.57c-.91-1.71-3.46-.2-2.59,1.51.15.3.3.6.45.9.78,1.54,3.18.46,2.74-1.16-.41-1.52-.82-3.05-1.24-4.57-.18-.65-.36-1.29-.62-1.92-.24-.59-.73-1.23-.69-1.89.12-1.93-2.88-1.92-3,0h0Z"/>
    <path class="cls-1" d="M23.67,28.83c.99,1.48,2.09,2.89,3.31,4.18.59.63,1.21,1.23,1.86,1.8.3.26.6.52.91.77.17.14.34.27.51.4.13.1.26.2.39.3-.1-.05-.16-.14-.18-.28v-.8c.12-.21.09-.2-.07.04-.1.12-.19.24-.29.36-.14.18-.29.36-.43.55-.13.16-.28.32-.4.5-.24.23-.13.2.34-.08.09.01.07.01-.06-.01-.4-.2-1.01-.22-1.45-.35-.07-.02-.48-.21-.56-.18.16-.07-.04,1.32.11.55l-.69.9c-.24.11-.01.08.03.08.33.05.65.12.98.16.63.07,1.26-.04,1.8-.38.64-.41,1.01-1.37.54-2.05-1.59-2.29-3.43-4.38-5.55-6.19-.92-.79-2.07-.41-2.51.66-.5,1.23-.13,2.6.45,3.73.42.81,1.25,1.68,1.31,2.58l1.9-1.45c-1.73-.6-3.08-1.93-3.86-3.6-.63-1.35-2.87-.68-2.8.76.15,2.73,1.96,4.61,4.02,6.19l1.51-2.59c-1.67-.75-3.09-1.8-4.28-3.18-.53-.61-1.58-.54-2.12,0-.61.61-.53,1.51,0,2.12,1.34,1.55,3.02,2.81,4.89,3.65.74.33,1.61.21,2.05-.54s.11-1.56-.54-2.05c-1.14-.88-2.45-2.06-2.54-3.6l-2.8.76c1.11,2.37,3.2,4.13,5.65,4.98.89.31,1.96-.51,1.9-1.45-.08-1.21-.57-2.21-1.2-3.23-.46-.74-.99-1.49-.67-2.29l-2.51.66c1.92,1.64,3.64,3.51,5.08,5.59l.54-2.05c-.23.13-.17.13.19,0-.1,0-.21,0-.31,0,.19.02-.36-.07-.43-.08-.59-.1-1.17-.16-1.75.02-1.64.49-1.54,2.5-.48,3.52.85.82,2.28,1.08,3.4,1.28.63.11,1.24.16,1.83-.16.54-.28.87-.76,1.23-1.22.79-1.01,2.02-2.18,1.17-3.52-.32-.5-.87-.81-1.32-1.18s-.88-.74-1.3-1.13c-1.6-1.48-3.02-3.13-4.22-4.94-.45-.67-1.32-.96-2.05-.54-.67.39-.99,1.37-.54,2.05h0Z"/>
    <path class="cls-1" d="M15.94,31.47v.04c.02-.13.04-.27.06-.4v.03c.04-.12.09-.24.14-.36l-.02.03.23-.3-.02.03.3-.23-.03.02.36-.15h-.03c.13,0,.27-.02.4-.04h-.03c.13.02.27.04.4.06h-.03c-.62-.16-1.38.09-1.69.68-.12.24-.19.49-.2.76-.02.35.17.83.44,1.06,1.07.93,2.15,1.85,3.16,2.85.28.27.67.44,1.06.44s.81-.16,1.06-.44.46-.66.44-1.06-.15-.78-.44-1.06c-1.01-1-2.09-1.92-3.16-2.85l-1.46,2.51c.52.13,1.02.03,1.44-.3.38-.29.69-.8.64-1.31,0-.21-.04-.4-.13-.58-.06-.19-.16-.35-.31-.48-.26-.26-.69-.46-1.06-.44s-.79.14-1.06.44c-.25.27-.48.67-.44,1.06h0Z"/>
    <path class="cls-1" d="M40.66,38.07c-3.2.02-6.17-.41-9.25-1.34-.75-.23-1.67.27-1.85,1.05s.24,1.6,1.05,1.85c3.25.98,6.65,1.46,10.04,1.44.78,0,1.54-.69,1.5-1.5s-.66-1.5-1.5-1.5h0Z"/>
    <path class="cls-1" d="M32.89,37.78c.97.39,1.94.78,2.91,1.18.23.1.47.19.7.29.13.05.25.1.38.16.05.02.42.18.07.03.5.21,1,.42,1.5.64.39.17.73.27,1.16.15.35-.1.73-.36.9-.69.34-.65.23-1.72-.54-2.05-2.08-.9-4.16-1.76-6.26-2.59-.34-.13-.85-.03-1.16.15s-.61.54-.69.9c-.2.86.26,1.53,1.05,1.85h0Z"/>
    <path class="cls-1" d="M38.62,38.16c-.75,0-1.5-.04-2.24-.13-.19-.02-.23-.03-.11-.02-.11-.02-.23-.03-.34-.05-.17-.03-.34-.06-.51-.09-.37-.07-.74-.15-1.11-.23-.81-.16-1.63-.3-2.46-.32-.34,0-.67.01-1.01,0-.15,0-.31,0-.46-.03.36.06-.39-.19-.1-.05-.7-.35-1.66-.21-2.05.54-.36.68-.21,1.68.54,2.05.81.4,1.63.49,2.53.48s1.4.05,2.21.22c1.69.34,3.38.62,5.11.62.78,0,1.54-.69,1.5-1.5s-.66-1.5-1.5-1.5h0Z"/>
    <path class="cls-1" d="M42.32,40.68c.05-.01.11-.02.16-.03l-.4.05c.34-.05.68-.02,1.03.02l-.4-.05c.48.07.95.16,1.43.2s.96,0,1.41-.11c.36-.09.71-.37.9-.69s.27-.8.15-1.16c-.25-.79-1.03-1.25-1.85-1.05-.09.02-.17.04-.26.05l.4-.05c-.32.04-.65.02-.97-.02l.4.05c-.47-.06-.93-.15-1.41-.2s-.93-.01-1.39.08c-.35.07-.72.38-.9.69-.19.32-.27.8-.15,1.16s.34.71.69.9c.37.2.74.24,1.16.15h0Z"/>
    <path class="cls-1" d="M44.83,37.68c-2.71-.5-5.5-.35-8.11.56-.74.26-1.31,1.04-1.05,1.85.24.73,1.05,1.32,1.85,1.05.58-.2,1.18-.37,1.78-.5.26-.05.52-.1.78-.14.18-.03.17-.03,0,0,.09-.01.18-.02.26-.03.13-.01.26-.03.4-.04.57-.04,1.15-.05,1.72-.03.31.01.62.04.92.07.44.04-.31-.05.13.02.17.03.35.06.52.09.77.14,1.65-.21,1.85-1.05.17-.74-.22-1.69-1.05-1.85h0Z"/>
    <path class="cls-1" d="M22.72,38.04c.42.11.84.22,1.25.34.2.06.4.07.6.03.2,0,.39-.07.56-.18.17-.09.32-.22.42-.39.13-.14.22-.31.27-.51l.05-.4c0-.27-.07-.52-.2-.76l-.23-.3c-.19-.19-.41-.31-.66-.39-.42-.12-.83-.23-1.25-.34-.2-.06-.4-.07-.6-.03-.2,0-.39.07-.56.18-.17.09-.32.22-.42.39-.13.14-.22.31-.27.51l-.05.4c0,.27.07.52.2.76l.23.3c.19.19.41.31.66.39h0Z"/>
    <path class="cls-1" d="M23.5,38.44l1.47.44c.2.06.4.07.6.03.2,0,.39-.07.56-.18.17-.09.32-.22.42-.39.13-.14.22-.31.27-.51l.05-.4c0-.27-.07-.52-.2-.76l-.23-.3c-.19-.19-.41-.31-.66-.39l-1.47-.44c-.2-.06-.4-.07-.6-.03-.2,0-.39.07-.56.18-.17.09-.32.22-.42.39-.13.14-.22.31-.27.51l-.05.4c0,.27.07.52.2.76l.23.3c.19.19.41.31.66.39h0Z"/>
    <path class="cls-1" d="M24.74,38.84c.08.02.17.04.25.07l-.36-.15c.09.04.17.09.25.15.17.11.36.17.56.18.2.04.4.04.6-.03.2-.05.37-.14.51-.27.16-.11.29-.25.39-.42l.15-.36c.07-.27.07-.53,0-.8l-.15-.36c-.13-.23-.31-.4-.54-.54-.08-.06-.16-.1-.24-.14-.14-.06-.27-.12-.41-.17-.02,0-.04-.02-.07-.02-.05-.01-.09-.03-.14-.03-.2-.06-.4-.07-.6-.03-.2,0-.39.07-.56.18-.17.09-.32.22-.42.39-.13.14-.22.31-.27.51l-.05.4c0,.27.07.52.2.76l.23.3c.19.19.41.31.66.39h0Z"/>
    <path class="cls-1" d="M24.5,38.77l1.07.47c.17.11.36.17.56.18.2.04.4.04.6-.03.2-.05.37-.14.51-.27.16-.11.29-.25.39-.42l.15-.36c.07-.27.07-.53,0-.8l-.15-.36c-.13-.23-.31-.4-.54-.54l-1.07-.47c-.17-.11-.36-.17-.56-.18-.2-.04-.4-.04-.6.03-.2.05-.37.14-.51.27-.16.11-.29.25-.39.42l-.15.36c-.07.27-.07.53,0,.8l.15.36c.13.23.31.4.54.54h0Z"/>
    <path class="cls-1" d="M26.77,39.73l.36.14c.2.06.4.07.6.03.2,0,.39-.07.56-.18l.3-.23c.15-.14.25-.3.31-.48.07-.12.1-.24.1-.38.04-.2.04-.4-.03-.6l-.15-.36c-.13-.23-.31-.4-.54-.54-.11-.06-.21-.11-.32-.16-.22-.1-.45-.2-.68-.28-.2-.06-.4-.07-.6-.03-.2,0-.39.07-.56.18-.17.09-.32.22-.42.39-.13.14-.22.31-.27.51l-.05.4c0,.27.07.52.2.76l.23.3c.19.19.41.31.66.39.08.03.17.06.25.1l-.36-.15c.14.06.27.12.4.19l1.16-2.74-.36-.14c-.2-.06-.4-.07-.6-.03-.2,0-.39.07-.56.18-.17.09-.32.22-.42.39-.13.14-.22.31-.27.51l-.05.4c0,.27.07.52.2.76l.23.3c.19.19.41.31.66.39h0Z"/>
    <path class="cls-1" d="M27.85,40.03l.39.11c.2.06.4.07.6.03.2,0,.39-.07.56-.18.17-.09.32-.22.42-.39.13-.14.22-.31.27-.51l.05-.4c0-.27-.07-.52-.2-.76l-.23-.3c-.19-.19-.41-.31-.66-.39l-.39-.11c-.2-.06-.4-.07-.6-.03-.2,0-.39.07-.56.18-.17.09-.32.22-.42.39-.13.14-.22.31-.27.51l-.05.4c0,.27.07.52.2.76l.23.3c.19.19.41.31.66.39h0Z"/>
    <path class="cls-1" d="M28.03,40.11c.48.18,1,.25,1.5.29.39.03.79.03,1.18.02s.78-.16,1.06-.44c.26-.26.46-.69.44-1.06s-.14-.79-.44-1.06-.66-.45-1.06-.44c-.48,0-.97.01-1.45-.05l.4.05c-.29-.04-.57-.1-.84-.21-.2-.06-.4-.07-.6-.03-.2,0-.39.07-.56.18-.31.18-.61.54-.69.9-.09.38-.07.81.15,1.16l.23.3c.19.19.41.31.66.39h0Z"/>
    <path class="cls-1" d="M30.77,40.77c.27.03.54.04.8.03.39,0,.78-.06,1.17-.12.2-.05.37-.14.51-.27.16-.11.29-.25.39-.42.11-.17.17-.36.18-.56.04-.2.04-.4-.03-.6-.12-.36-.34-.71-.69-.9l-.36-.15c-.27-.07-.53-.07-.8,0h-.03c.13-.01.27-.03.4-.05-.51.07-1.03.08-1.55.03-.21,0-.4.04-.58.13-.19.06-.35.16-.48.31-.15.14-.25.3-.31.48-.09.18-.14.37-.13.58l.05.4c.07.25.2.47.39.66l.3.23c.23.14.49.2.76.2h0Z"/>
    <path class="cls-1" d="M32.81,40.99c.35.04.71.07,1.07.08.47,0,.95-.04,1.42-.14.2-.05.37-.14.51-.27.16-.11.29-.25.39-.42.11-.17.17-.36.18-.56.04-.2.04-.4-.03-.6-.12-.36-.34-.71-.69-.9l-.36-.15c-.27-.07-.53-.07-.8,0-.1.02-.21.04-.31.05l.4-.05c-.59.07-1.19.01-1.77-.05-.21,0-.4.04-.58.13-.19.06-.35.16-.48.31-.15.14-.25.3-.31.48-.09.18-.14.37-.13.58.02.39.14.79.44,1.06l.3.23c.23.14.49.2.76.2h0Z"/>
    <path class="cls-1" d="M34.87,41.23c.9,0,1.79,0,2.69.01.38,0,.79-.17,1.06-.44s.46-.69.44-1.06-.14-.79-.44-1.06-.65-.44-1.06-.44c-.9,0-1.79,0-2.69-.01-.38,0-.79.17-1.06.44s-.46.69-.44,1.06.14.79.44,1.06.65.44,1.06.44h0Z"/>
    <path class="cls-1" d="M37.78,41.2h.17c.21,0,.4-.04.58-.13.19-.06.35-.16.48-.31.15-.14.25-.3.31-.48.09-.18.14-.37.13-.58l-.05-.4c-.07-.25-.2-.47-.39-.66l-.3-.23c-.23-.14-.49-.2-.76-.2h-.17c-.21,0-.4.04-.58.13-.19.06-.35.16-.48.31-.15.14-.25.3-.31.48-.09.18-.14.37-.13.58l.05.4c.07.25.2.47.39.66l.3.23c.23.14.49.2.76.2h0Z"/>
    <path class="cls-1" d="M23.39,9.46c.97,0,.97-1.5,0-1.5s-.97,1.5,0,1.5h0Z"/>
    <path class="cls-1" d="M23.15,9.71c.97,0,.97-1.5,0-1.5s-.97,1.5,0,1.5h0Z"/>
    <path class="cls-1" d="M22.88,9.85c.97,0,.97-1.5,0-1.5s-.97,1.5,0,1.5h0Z"/>
    <path class="cls-1" d="M23.04,7.6h0c-.09.05-.16.12-.21.2-.07.07-.11.16-.13.26-.03.1-.04.2-.01.3,0,.1.03.19.09.28l.12.15c.09.09.2.16.33.19l.2.03c.14,0,.26-.03.38-.1h0c.09-.05.16-.12.21-.2.07-.07.11-.16.13-.26.03-.1.04-.2.01-.3,0-.1-.03-.19-.09-.28l-.12-.15c-.09-.09-.2-.16-.33-.19l-.2-.03c-.14,0-.26.03-.38.1h0Z"/>
    <path class="cls-1" d="M23.02,7.57h0c-.1,0-.2.02-.29.06-.09.03-.17.08-.24.16-.07.07-.12.15-.16.24-.05.09-.07.19-.06.29l.03.2c.04.13.1.24.19.33l.15.12c.12.07.24.1.38.1h0c.1,0,.2-.02.29-.06.09-.03.17-.08.24-.16.07-.07.12-.15.16-.24.05-.09.07-.19.06-.29l-.03-.2c-.04-.13-.1-.24-.19-.33l-.15-.12c-.12-.07-.24-.1-.38-.1h0Z"/>
    <path class="cls-1" d="M26.42,9.71s.04.02.06.02l-.09-.04c.07.03.13.07.19.1.08.05.17.08.26.11l-.09-.04s.06.03.09.05l-.08-.06s.03.03.04.04l-.06-.08s.02.04.03.06l-.04-.09s.02.06.03.08c.02.09.1.18.17.22s.2.07.29.04.18-.09.22-.17c.05-.09.06-.19.04-.29-.03-.13-.09-.26-.2-.35-.05-.04-.1-.08-.17-.11s-.13-.05-.19-.08l.09.04c-.06-.02-.11-.06-.16-.09-.08-.05-.17-.08-.26-.11s-.21,0-.29.04-.15.13-.17.22c-.02.1-.02.2.04.29l.06.08s.1.08.17.1h0Z"/>
    <path class="cls-1" d="M13.36,3.8c.48,0,.48-.75,0-.75s-.48.75,0,.75h0Z"/>
    <path class="cls-1" d="M12.47,1.24s-.02-.02-.03-.02l.08.06c-.06-.05-.12-.1-.16-.16l.06.08s-.03-.04-.04-.06l.04.09s-.01-.03-.02-.05v.1s.01-.06.02-.1v.1c0-.11,0-.23.05-.33l-.04.09s.02-.03.03-.05l-.06.08s.04-.04.06-.06l-.08.06c.07-.05.15-.09.22-.12l-.09.04s.09-.03.14-.04h-.1c.1,0,.21-.01.31,0h-.1s.01-.01.02,0l-.09-.04s.02,0,.03.02l-.08-.06c.1.1.17.22.26.33l-.06-.08v.02s-.01-.06-.03-.09v.02c0-.07,0-.13,0-.2h0s.03-.05.04-.07h0s.04-.04.06-.06h-.01s.05-.03.08-.05c-.06.05-.13.1-.2.13l.09-.04s-.04.01-.06.01h.1s-.05-.01-.08-.02h.1c-.08,0-.16-.02-.23-.05l.09.04s-.09-.05-.14-.07c-.17-.1-.42-.04-.51.13-.1.18-.04.4.13.51.27.17.65.28.94.1.05-.03.1-.07.14-.1.07-.05.11-.08.16-.16.05-.09.07-.2.04-.31s-.11-.19-.18-.28c-.04-.05-.08-.1-.12-.15-.05-.07-.1-.12-.18-.17-.09-.06-.2-.06-.3-.06-.15,0-.31,0-.45.06-.15.06-.3.14-.43.24s-.18.27-.2.42c-.01.09-.03.19-.04.28-.01.11.02.22.07.32.08.15.23.26.36.37.07.05.21.06.29.04s.18-.09.22-.17c.05-.09.07-.19.04-.29s-.09-.16-.17-.22h0Z"/>
    <path class="cls-1" d="M46.94,38.89l.12-.03s.09-.03.13-.07c.04-.03.07-.06.1-.11.03-.04.04-.09.04-.14.01-.05,0-.1,0-.15l-.04-.09c-.03-.06-.08-.1-.13-.13l-.09-.04c-.07-.02-.13-.02-.2,0l-.12.03s-.09.03-.13.07c-.04.03-.07.06-.1.11-.03.04-.04.09-.04.14-.01.05,0,.1,0,.15l.04.09c.03.06.08.1.13.13l.09.04c.07.02.13.02.2,0h0Z"/>
    <path class="cls-1" d="M39.13,41.27h.01c.05,0,.1,0,.14-.03.05-.02.09-.04.12-.08.04-.03.06-.07.08-.12.02-.04.03-.09.03-.14v-.1c-.03-.06-.06-.12-.11-.17l-.08-.06c-.06-.03-.12-.05-.19-.05h-.01c-.05,0-.1,0-.14.03-.05.02-.09.04-.12.08-.04.03-.06.07-.08.12-.02.04-.03.09-.03.14v.1c.03.06.06.12.11.17l.08.06c.06.03.12.05.19.05h0Z"/>
    <path class="cls-1" d="M49.11,38.64c.48,0,.48-.75,0-.75s-.48.75,0,.75h0Z"/>
    <path class="cls-1" d="M49.61,38.91c.85-.05,1.71-.07,2.57-.05.2,0,.38-.18.38-.38s-.17-.37-.38-.38c-.86-.02-1.71,0-2.57.05-.2.01-.38.16-.38.38,0,.19.17.39.38.38h0Z"/>
    <path class="cls-1" d="M44.96,35.84c.48,0,.48-.75,0-.75s-.48.75,0,.75h0Z"/>
    <path class="cls-1" d="M43.18,36.97c.48,0,.48-.75,0-.75s-.48.75,0,.75h0Z"/>
  </g>
  <path d="M20.62,37.06c-1.78-1.4-3.67-2.73-4.96-4.62-2.72-3.33-4.82-7.17-6.25-11.22-.87-2.63-1.16-5.45-2.28-7.98-1.17-1.84.2-3.84,2.21-4.43.9-.17,2.47-1.02.57-.41-1.7,1.25-1.87-1.14-.12-1.29,1.19-.16,1.63-1.13,1.22-2.01-1.28-.84,3.11-1.75.9-3-2.3-2.48,3.22-2.96,1.85-.14-.33,2.17,3.85-.4,2.88,2.1.99,1.2,3.69.27,3.62,1.96,1.44.1,1.93,1.31,3.27,1.4,1.4.63,3.93,1.13,4.4,2.7-1.39,1.1-4.59-2.27-4.75.77.42,4.49.31,9.11,1.95,13.38.78,2.59,2.66,4.62,4.36,6.64,1.63,1.97,3.83,3.36,6.07,4.53,1.97.93,4.09,1.54,6.24,1.93.87-.67,2.41-3.14,3.76-2.1.07,1.17-2.69,2.45-.13,2.32,1.51-.45,2.55,1.16,3.79-.3,1.14,1.35,4.75-.86,3.94,1.9-1.1.71-2.7.28-3.8,1.26-1.82-.91-3.26.81-5.27.59-2.23.4-4.5.56-6.77.56-3.71-.29-7.5-.42-11.04-1.71-1.99-.58-3.93-1.71-5.68-2.85h0ZM23.76,38.42c1.94.84,3.84,1.73,5.97,1.99,3.38.47,6.87,1.19,10.26.53-1.53-.69-3.12.27-4.65-.5-1.83.39-3.8-.1-5.67-.35-2.12-.94-4.41-1.59-6.39-2.82-2.48-.91,1.28,1.16,1.95,1.33,1.55.88-1.71-.45-2.16-.82-1.3-.73-1.46-.58-.13.16.27.16.53.32.82.46h0ZM20.06,35.8c1.88.7,0-1.32-.87-1.21-.38-.66-1.46-1.08-.7-1.44-1.37.48-1.43-1.81-2.08-1.48-1.45-.46-.56-2.08-2.29-3.07-.16-1.05-1.71-1.96-2.21-3.54-.22-.81-1.76-3.13-.81-.97.8,2.08,2.22,3.86,3.4,5.64.91,1.7,2,3.47,3.66,4.53.56.54,1.1,1.36,1.9,1.53h0ZM14.64,29.85c.07-.28.34.62,0,0ZM22.32,36.64c.42-.19-.6-.24,0,0ZM23.34,37.01c-.11-.51-.47.29,0,0ZM24.62,37.54c.61-.58-.94-.37,0,0ZM26.81,38.77c.37-.55-1.18-.21,0,0ZM22.6,35.83c.94-.61-1.22,0,0,0ZM23.56,36.31c-.03-.32-.34.15,0,0ZM28.36,39.3c.77.49,4.5,1.07,2.17.2-.39.08-4.33-1.12-2.17-.2ZM20.74,33.37c-.08-.32-1.2-.36,0,0ZM22.98,34.68c.58-.41-1.21-.31,0,0ZM24.85,35.83c.83-.31-1.35-.32,0,0ZM19.83,32.38c.9.69,3.65.09,1.39-.41-1.03-.55-3.35-.92-1.77.33l.38.08ZM26.13,36.22c.38-.64-1.58-.37,0,0ZM24.21,34.7c2.21.63-1.86-1.4-.55-.23l.29.13.25.1ZM28.05,36.92c2.1.02-1.89-.29,0,0ZM19.03,31.17c-.08-.39-.52.03,0,0ZM31.59,38.91c.06-.7-.68.53,0,0ZM22.6,33.36c-.13-.37-.65-.02,0,0ZM19.23,30.93c1.2-.07-1.65-.53,0,0ZM15.23,28.34c-.15-.58-1.31-1.04,0,0ZM25.73,35.01c-.22-.25-.1.05,0,0ZM32.27,39.02c-.02-.38-.36.14,0,0ZM25.15,34.41c.12-.5-1.03-.15,0,0ZM20.28,31.32c.9-.1-1.43-.6,0,0ZM28.52,36.44c1.4-.55-1.36-.27,0,0ZM24.23,33.53c1.61.21-1.91-1.09-.35-.12l.35.12ZM29.82,36.97c1.5-.9,1.01,2.1,2.55.25,1.52-1.11-1.31,1.37.56.2,1.35-.91,3.35.43,4.62.86.91-.04,1.79.79,2.72.28,1.79-.48-3.51-.72-2.12-1.57-1.64.48-2.85-.57-3.66-1.62-1.84-.43-3.97-1.37-4.89-3-.38-.61.54.09-.32-.91-1.11-.99-1.66-2.11-2.41-3.3-.89-.47-.99-1.87-1.08-.05,0-1.15-1.07-1.93-1.34-1.6,0-1.11,1.16-.55.34-1.37-.17-1.15-.75-2.35-.92-3.64-.27-.63-.04-1.96-.92-.55-.32,1.5-.11-1.84.39-.74.65-1.12-.24-.99-.27-.83.43-.95.27-2.29-.11-1.78.23-1,.36-3.69-.34-3.22.42-1.05.8-4.8-1.04-3.37-.75.01-2.04.27-2.65.57,1.91,1.05-.19.38-.97.21-.1.98-.87.55-1.84.56,1.54.19-.75,1.57-1.63,1.04-1.15.55.99,1.92.02,2.34.12.64-1.76-.23-1.61,1.24-1.11-.47-.15,1.75.4,1,1.89.51,1.33,1.68,1.38,2.79-.31.65-1.52-1.52-.27-1.42-.99-1.61-1.09-.58-1.92.17-.19.05,2.1,1.06.66,1.56,1.26.2,1.3,1.3,1.56,2,.76.79.6-.87,1.51.08-.58-.85-3.04-2.39-1.06-1.89-.01-.85-.36-1.54.25-1.52.6-1.09-.63,2.69.73,1.31.38-.16.47-1.09,1.15.09.98.97.35,1.67-1.03.78.25.84,1.85,1.14,1.55,2.46.32,1.16.77.73,1.16.66.31,1.12.48.3.49-.24,1.4.3,1.07,1.13,1.51,1.71.97.44-1.38-2.95.28-1.02,1.74,1.58.65,2.23-.91,1.98.99-.08,1.31,1.34,2.55,1.29,1.13.54,1.9,2.6-.05,1.74-.68-.61-3.07-1.36-1.11-.2,1.8.84,3.24,1.33,4.98,2.38,1.24.89,1.78,1.91,2.25,2.11-1.05.5-3.15-.4-1.59-.67-.98-.18-2.07-.67-1.14.54.8.66,2.82.59,3.18.67-.31.68-.83.73.01.78-.94.5.3.58.39.87h0ZM27.89,31.51c-.57-.6-.72-1.73-.1-.75.32.13,1.02,1.84.1.75ZM34.18,35.51c.36-.02.01.27,0,0ZM26.98,30.04c-.02-.91.21.7,0,0ZM26.36,29.2c-.72-1.4.91.4,0,0ZM18.78,23.97c.43-.11.21.73,0,0ZM24.81,27.24c.26-.98.31.82,0,0ZM20.55,24.28c-.3-.54.63.51,0,0ZM24.21,25.45c-.68-1.53.49-.84.15.25l-.15-.25ZM17.9,21.24c-.31-.5-.81-1.98-.65-2.43.15.73,1.56,3.16.69,1-.96-1.81,1.15.59,1.36,1.04.1.45-.59-.12-.12.93-.86-1.2-.5.66-1.28-.54ZM15.95,19.9c.08-1.17.45.8,0,0ZM16.83,20.2c.42-.88.71,1.23,0,0ZM14.72,18.57c-.73-.72-1.25-1.39.03-.45.49.02-1.1-1.51.12-.49,1.28.23.63,2.1-.15.93h0ZM15.83,18.54c.42-.42.22.41,0,0ZM16.51,18.76c-.64-1.2.78.5,0,0ZM15.16,17.47c-2.11-1.88,2.65.98.34.35l-.34-.35ZM21.2,20.98c-.91-.55-.24-3.85.07-1.59.89-.29-.05,1.17.61,1.15-.1.92-.4,1.25-.68.44ZM23.43,22.3c.09-1,.19.68,0,0ZM23.04,21.91c.1-.42,0,.5,0,0ZM15.57,16.85c-1.35-1.87,3.94,1.89.87.47-.32-.08-.71-.11-.87-.47ZM19.87,19.13c-.13-1.57.29.26,0,0ZM23.14,21.23c.25-.9.02.59,0,0ZM15.78,16.14c.8-.17,3.34,1.41,1.01.45-.26-.29-.81-.16-1.01-.45h0ZM22.69,19.58c.09-1.61.48-.96,0,.23v-.23s0,0,0,0ZM16.38,15.58c.33-.48-.87-2.18.17-.61.45.36,1.31.6.55.75,1.19,1.05-.29.28-.72-.14ZM22.35,19.08c.23-1.83.2,1.07,0,0ZM15.69,13.88c.25-.11.13.33,0,0ZM17.25,14.81c.4-.84.74.94,0,0ZM21.64,17.26c0-.32.08.47,0,0ZM21.39,16.69c-.61-1.5.57.8,0,0ZM21.01,15.71c-.1-.62.35.78,0,0ZM21.62,14.72c-.42-.74.53-3.25.63-1.69-.44,1.21-.13,1.89.18.26.57-1.28-.12,2.53-.81,1.43h0ZM22.25,10.98c.18-.22.04.27,0,0ZM21.2,31.59c-.25-.22.03.14,0,0ZM23.36,32.68c1.2.31,1.19-.19.11-.33-.58-.54-2.42-1.12-.77-.07.11.28.45.27.67.4ZM19.1,29.85c.66.49,2.49,1.4.94.19.52-.61-1-.93-.49-1.33-1.28-.78-1.01-.71-.11-.69-1.54-.69.22-.64.14-.99-.59-.12-2.95-1.05-1.56.08-1.41-.72-.34.27-.76.16-1.44-.39,1.28,1.1-.23.73.83.65,2.23,1.68.35.69-.25.36,1.34.9,1.73,1.17h0ZM21.36,31.15c2.74.88-1.34-1.08,0,0ZM32.89,38.14c.04-.54-.37.46,0,0ZM34.08,38.63c.63-.61.03.98,1.05-.15.01-.81-.03-1.28-1.17-.3-.32.18-.46.92.13.45h0ZM15.26,26.81c-.19-.76-1.36-.76,0,0ZM16.52,27.64c-.47-.78-1.68-.71,0,0ZM23.73,31.99c.7.63,3.23.46.85.08-.35-.52-2.23-.4-.85-.08ZM33.63,38.1c1.08-.91-1.05.4,0,0ZM35.88,39.65c0-.29-.47.13,0,0ZM35.88,39.24c1.2-1.27-1.16.08,0,0ZM12.14,24.21c-1.02-1.46-.63-2.11-1.62-3.3-.19-.91-1.69-2.98-.78-.79.84,1.28,1.08,3.26,2.4,4.09h0ZM35.51,38.84c2.21-1.43-.9-.62,0,0ZM37.19,39.5c1.1-.95-.7-.2,0,0ZM14.88,25.2c.32-.47-.82-.06,0,0ZM36.84,39.05c1.07-.69-.25-.58-.19.06l.19-.06ZM22.33,29.9c-.04-.47-.57.04,0,0ZM23.23,30.42c-.29-.58-.44.09,0,0ZM38.55,39.51c1.37-.99-.83-.19-.29.19l.29-.19ZM38.03,39.26c1.12-.93-1.18.41,0,0ZM40.71,41.04c.75-.5-.91-.16,0,0ZM15.57,24.86c1,.22,4.01,2.47,2.24.16-.91-.27-.36-2.49-1.29-2.1.62,1.04.51,1.48-.8.83-1.64-.8-.92.4-.6.73-.44.1.58.38.45.39h0ZM10.99,21.25c.18-.74-1.66-4.09-.87-1.68.28.51.25,1.46.87,1.68ZM19.39,26.43c-.52-.43-.02-.06,0,0ZM20.66,26.73c0-.79-1.41-.32,0,0ZM31.7,33.68c-.21-.54-.83-.01,0,0ZM32.23,34.07c-.08-.3-.31.06,0,0ZM36.6,36.82c.42-.31-.53-.04,0,0ZM13.28,21.83c1.2-.47-1.29-.33,0,0ZM30.73,32.83c-.01-.78-.77.19,0,0ZM12.8,20.73c.77-.26-.72-.17,0,0ZM15.05,21.81c-.01-.26-.24.1,0,0ZM42.41,38.59c.99-.2,3.26.51,3.63-.26-1.21-.03-4.18-.85-4.32.19l.26.04.43.03h0ZM15.76,21.99c.02-.79-.62-.03,0,0ZM9.86,17.9c-.27-1.5-1.02-.23,0,0ZM11.27,18.25c.02-.48-1.29-.43,0,0ZM12.07,18.65c-.23-.19-.18.24,0,0ZM17.13,21.89c.24-.22-.56-.16,0,0ZM11.54,17.76c-.14-1.14-1.63-.17,0,0ZM8.65,15.89c-.04-.52-.28.2,0,0ZM9.08,15.56c-.07-.62-.37.08,0,0ZM11.45,16.98c1-.39-1.83-.81-.2-.07l.2.07ZM43.17,36.57c.64-.59-.81-.18,0,0ZM47,38.56c.26-.76-.65.1,0,0ZM11.69,15.74c.11-.74-.8.15,0,0ZM8.32,13.48c-.18-1.04-.16-2.86,1.58-2.25-2.31.46,1.6,2.87,1.11.97.97.05,1.9-.57,1.39.37,1.92-.21,3.24-1.87,5.1-1.64,1.44-.19,3.02-.34,4.57-.92,1.28-.09,2.51-1.47,1.81-2.28-1.74-.15-3.57.07-5.49.45-2.13.44-4.07,1.29-6.22,1.65-2.1.28.42.78-.18.89-1.09.38,1.31.64-.14,1.04-.89-.17-1.82-.48-1.44-1.42-2.01.26-3.78,1.1-2.19,3.14h.12s0,0,0,0ZM13.17,11.01c.47-1.74,2.52,1.43.77.23-.21-.16-.55-.28-.77-.23ZM13.26,10.17c.68-.51.36.28,0,0ZM14.12,10.18c.06-.8,1.98.42.32.29l-.32-.29h0ZM15.3,9.71c.43-.51.13.45,0,0ZM15.6,9.51c.72-.86,4.07-.55,1.62-.08-.66-.5-1.16.29-1.62.08h0ZM19.98,8.83c-.11-2.36,2.17.84,0,0ZM21.22,8.82c.45-1.19,1.76-.48.21-.24.03.13-.05.61-.21.24ZM11.2,15.13c1.35-.83-1.44-.72,0,0ZM12.21,15.4c.48-.5-1.03-.2,0,0ZM9.25,13.31c.77-.6-.92-.23,0,0ZM49.27,38.34c.02-.69-.59.31,0,0ZM45.2,35.57c.12-.79-.52.07,0,0ZM50.38,38.61c1.08,0,3.28-.34.92-.34-.37.06-2.15.05-.92.34ZM13.09,14.92c.88-.06,1.37-.97-.17-.91-2.39-.25,2.11.82-.31.51-.32.21.46.46.48.4ZM13.86,15.31c-.09-.56-.27.3,0,0ZM14.78,12.87c.38-.47-.53-.13,0,0ZM11.86,8c1.56-.53,3.7-1.13,4.44.26-.75-.9-.3-1.79.41-.47,1,1.34,1.51-.61.85-1.06.74.92,1.59,1.36.5.06,1.19-1.43-2.38.19-3.18.17-.39.17-4.02.93-3.01,1.04h0ZM12.78,6.24c.89-.67,3.08.4,1.68-.67-.14-.12-3.08.81-1.68.67ZM16.03,6.38c1.04.03-.45-1.4.79-.75-.2-.67-1.45-.79-2.06-1.06-.34.61.7,1.82,1.26,1.81ZM13.35,3.43c.36-.49-.63.25,0,0ZM14.68,3.74c1.68-.22-.43-.72-.34-.02l.34.02h0ZM12.2,1.8c-1.18-1.55,2.23.26,1.02-1.36-1.01-.81-1.99.91-1.02,1.36h0ZM27.39,9.99c.54-.96-2.24-1.3-.37-.34.17.06.13.41.37.34h0ZM16.37,45.82c-.12.47-.19,1.27-.22,2.39,0,.22-.1.33-.3.33s-.34-.1-.41-.29c-.21-.52-.41-.88-.61-1.08-.23-.24-.53-.39-.9-.44-.4-.06-1.41-.1-3.01-.1-.37,0-.61.04-.72.12-.07.05-.11.16-.11.32v4.81c0,.16.1.24.31.23.63,0,1.54-.05,2.74-.13.23-.03.39-.1.47-.23.08-.12.16-.44.24-.96.05-.28.22-.39.5-.33.24.05.34.16.31.33-.2.96-.26,2.22-.19,3.76,0,.18-.11.28-.35.3-.2.02-.32-.09-.37-.32-.18-.88-.53-1.36-1.02-1.42-.5-.06-1.31-.09-2.44-.09-.13,0-.19.05-.19.14v4.78c0,.35.13.59.39.72.21.11.65.2,1.33.29.35.04.5.19.46.46-.04.23-.35.33-.93.28-1.68-.13-3.06-.13-4.15.02-.3.04-.46-.08-.46-.37,0-.18.15-.29.46-.32.69-.08,1.04-.69,1.04-1.83v-9.09c0-.47-.08-.83-.25-1.08-.17-.25-.48-.48-.93-.68-.28-.13-.39-.3-.32-.52.04-.13.09-.21.17-.22.07-.02.26,0,.56.04.45.07,1.5.11,3.15.11,1.95,0,3.64-.04,5.06-.13.47-.03.71.01.71.12,0,.03,0,.06-.01.08h0ZM23.25,59.3c0,.28-.16.41-.48.37-.98-.09-2.19-.08-3.63.04-.29.03-.47.02-.54-.02-.07-.04-.1-.16-.1-.35,0-.17.19-.31.58-.43.39-.12.58-.46.58-1.05v-9.61c0-.57-.08-.99-.25-1.26-.17-.27-.46-.48-.88-.63-.22-.08-.33-.19-.33-.33,0-.21.16-.37.48-.48.48-.16.98-.4,1.5-.72.42-.25.69-.38.81-.38.26,0,.39.18.39.54,0-.03-.01.33-.04,1.06-.02.7-.03,1.39-.02,2.07l.04,9.48c0,.43.11.75.32.94.21.19.58.32,1.09.39.32.04.48.16.48.36h0ZM32.85,58.67c0,.15-.27.37-.81.67-.54.3-.98.45-1.3.45-.28,0-.52-.13-.73-.4-.21-.27-.36-.4-.45-.4-.06,0-.4.15-1.01.43-.61.29-1.22.44-1.84.44-.58,0-1.07-.17-1.45-.51-.42-.38-.64-.88-.64-1.53,0-1.22,1.4-2.1,4.2-2.63.48-.09.73-.29.73-.58l.02-.68c.04-1.16-.47-1.74-1.54-1.74-.3,0-.59.27-.87.82-.27.55-.66.84-1.17.88-.58.06-.87-.19-.87-.73,0-.34.43-.74,1.3-1.19.91-.47,1.78-.71,2.61-.71,1.44,0,2.15.68,2.13,2.05l-.04,4.37c0,.46.19.69.58.69.08,0,.23-.02.45-.05.22-.04.35-.05.38-.05.2,0,.31.14.31.41h0ZM29.58,56.25c0-.18-.03-.29-.12-.35-.09-.06-.23-.07-.42-.03-1.71.3-2.56.86-2.56,1.67s.44,1.22,1.33,1.22c.35,0,.72-.07,1.09-.2.44-.16.66-.34.66-.56l.02-1.74h0ZM40.74,57.45c0,.75-.29,1.35-.87,1.79-.58.44-1.36.66-2.36.66-.66,0-1.33-.07-2-.21-.57-.13-.91-.24-1-.35-.06-.1-.08-.58-.08-1.45,0-.38.08-.57.25-.58.17-.02.31.07.44.28.53.93,1.39,1.39,2.57,1.39,1,0,1.5-.35,1.5-1.04,0-.3-.11-.56-.34-.76-.25-.23-.73-.51-1.44-.82-1.03-.46-1.72-.86-2.07-1.21-.38-.37-.56-.86-.56-1.49,0-.76.29-1.36.88-1.78.54-.41,1.27-.62,2.19-.62.57,0,1.1.05,1.57.14.51.09.77.21.8.34.06.4.17.97.35,1.72.02.09-.08.17-.3.22-.23.05-.39.01-.47-.12-.56-.91-1.27-1.37-2.12-1.37-.97,0-1.45.31-1.45.93,0,.35.13.62.39.83.23.18.78.45,1.65.83.91.39,1.52.74,1.85,1.05.42.4.64.94.64,1.62h0ZM53.23,59.31c0,.25-.17.38-.5.39-.5,0-1.14.04-1.94.11-.4.08-.68.03-.85-.15-1.12-1.2-2.07-2.46-2.85-3.78-.06-.11-.14-.17-.24-.17-.12,0-.33.11-.63.32-.33.18-.5.45-.5.78,0,.24,0,.59.02,1.04.01.45.13.75.34.89.15.1.49.18,1.03.23.33.04.5.17.5.37,0,.16-.03.26-.08.3-.05.04-.19.05-.42.03-.71-.06-1.9-.03-3.59.11-.42.04-.65-.02-.69-.16-.01-.05-.02-.12-.02-.21,0-.22.22-.39.65-.5.39-.1.58-.56.58-1.37v-9.28c0-.58-.06-.98-.17-1.21-.16-.29-.48-.52-.98-.68-.23-.08-.35-.19-.35-.33,0-.21.17-.36.5-.48.53-.18,1.04-.43,1.52-.73.39-.25.63-.38.72-.38.29,0,.44.18.44.55,0-.05,0,.3-.01,1.05,0,.69-.01,1.39-.01,2.08l.02,6.64c0,.18.05.28.15.28.11,0,.27-.09.49-.28.59-.46,1.31-1.06,2.16-1.8.17-.18.25-.32.25-.42,0-.19-.29-.33-.86-.4-.25-.03-.36-.17-.35-.41.02-.25.15-.35.37-.32.51.07,1.25.11,2.23.12.68,0,1.36.01,2.03.01.22,0,.33.14.33.39,0,.24-.17.37-.52.39-.55.02-1.06.14-1.54.37-.67.3-1.39.84-2.16,1.6-.06.04-.08.1-.08.16,0,.1.12.34.36.71.88,1.34,1.72,2.36,2.5,3.05.5.43.97.65,1.41.65.33,0,.53.02.6.07.08.05.12.17.12.37h0Z"/>
</svg>