<?xml version="1.0" encoding="UTF-8"?>
<svg id="Layer_1" data-name="Layer 1" xmlns="http://www.w3.org/2000/svg" viewBox="0 0 60 60">
  <defs>
    <style>
      .cls-1 {
        fill: #4285f4;
      }

      .cls-2 {
        fill: #fbbc05;
      }

      .cls-3 {
        fill: #34a853;
      }

      .cls-4 {
        fill: #ea4335;
      }
    </style>
  </defs>
  <path class="cls-4" d="M38.07,19.15h1.83l5.22-5.22.26-2.21c-9.71-8.57-24.52-7.64-33.09,2.06-2.38,2.7-4.11,5.9-5.05,9.37.58-.24,1.22-.28,1.83-.11l10.43-1.72s.53-.88.8-.82c4.64-5.1,12.45-5.69,17.81-1.35h-.04Z"/>
  <path class="cls-1" d="M52.55,23.16c-1.2-4.41-3.66-8.38-7.08-11.42l-7.32,7.32c3.09,2.53,4.85,6.33,4.78,10.32v1.3c3.6,0,6.51,2.92,6.51,6.51s-2.92,6.51-6.51,6.51h-13.03l-1.3,1.32v7.81l1.3,1.3h13.03c7.47.06,14.1-4.78,16.31-11.92,2.21-7.14-.5-14.88-6.69-19.07h0Z"/>
  <path class="cls-3" d="M16.84,54.07h13.03v-10.43h-13.03c-.93,0-1.85-.2-2.69-.59l-1.83.57-5.25,5.22-.46,1.83c2.95,2.22,6.54,3.42,10.23,3.4h0Z"/>
  <path class="cls-2" d="M16.84,20.23c-7.24.04-13.65,4.68-15.96,11.54-2.31,6.86,0,14.43,5.73,18.84l7.56-7.56c-3.28-1.48-4.74-5.34-3.25-8.62s5.34-4.74,8.62-3.25c1.44.65,2.6,1.81,3.25,3.25l7.56-7.56c-3.22-4.2-8.21-6.66-13.51-6.64h0Z"/>
</svg>