<?xml version="1.0" encoding="UTF-8"?>
<svg id="Layer_1" data-name="Layer 1" xmlns="http://www.w3.org/2000/svg" viewBox="0 0 60 60">
  <defs>
    <style>
      .cls-1 {
        fill: #de4c36;
      }

      .cls-2 {
        fill: #fff;
      }
    </style>
  </defs>
  <rect class="cls-2" x="8.41" y="13.06" width="40.53" height="30.52" transform="translate(28.43 -11.98) rotate(45)"/>
  <path class="cls-1" d="M58.87,27.33L32.67,1.13c-1.51-1.51-3.95-1.51-5.46,0l-5.44,5.44,6.9,6.9c1.6-.54,3.44-.18,4.72,1.1,1.28,1.29,1.65,3.14,1.09,4.75l6.65,6.65c1.61-.55,3.47-.2,4.75,1.09,1.8,1.8,1.8,4.71,0,6.5-1.8,1.8-4.71,1.8-6.5,0-1.35-1.35-1.68-3.34-1-5l-6.2-6.2v16.32c.45.22.86.52,1.22.87,1.8,1.8,1.8,4.71,0,6.5-1.8,1.8-4.71,1.8-6.5,0-1.8-1.8-1.8-4.71,0-6.5.43-.43.94-.77,1.5-1v-16.47c-.56-.23-1.08-.57-1.5-1-1.36-1.36-1.69-3.36-.99-5.03l-6.8-6.8L1.13,27.21c-1.51,1.51-1.51,3.96,0,5.47l26.2,26.2c1.51,1.51,3.95,1.51,5.46,0l26.07-26.07c1.51-1.51,1.51-3.96,0-5.47"/>
</svg>