<?xml version="1.0" encoding="UTF-8"?>
<svg id="Layer_1" data-name="Layer 1" xmlns="http://www.w3.org/2000/svg" viewBox="0 0 60 60">
  <defs>
    <style>
      .cls-1 {
        fill: #00acd7;
      }
    </style>
  </defs>
  <path class="cls-1" d="M4.54,25.58c-.12,0-.15-.06-.09-.15l.61-.79c.06-.09.2-.15.32-.15h10.42c.12,0,.15.09.09.18l-.5.76c-.06.09-.2.18-.29.18l-10.57-.03ZM.13,28.27c-.12,0-.15-.06-.09-.15l.61-.79c.06-.09.2-.15.32-.15h13.31c.12,0,.18.09.15.18l-.23.7c-.03.12-.15.18-.26.18l-13.81.03ZM7.2,30.95c-.12,0-.15-.09-.09-.18l.41-.73c.06-.09.18-.18.29-.18h5.84c.12,0,.18.09.18.2l-.06.7c0,.12-.12.2-.2.2l-6.36-.03ZM37.51,25.06c-1.84.47-3.09.82-4.9,1.28-.44.12-.47.15-.85-.29-.44-.5-.76-.82-1.37-1.11-1.84-.91-3.62-.64-5.28.44-1.99,1.28-3.01,3.18-2.98,5.55.03,2.34,1.63,4.26,3.94,4.58,1.99.26,3.65-.44,4.96-1.93.26-.32.5-.67.79-1.08h-5.63c-.61,0-.76-.38-.55-.88.38-.91,1.08-2.42,1.49-3.18.09-.18.29-.47.73-.47h10.63c-.06.79-.06,1.58-.18,2.36-.32,2.1-1.11,4.03-2.39,5.72-2.1,2.77-4.85,4.5-8.32,4.96-2.86.38-5.52-.18-7.85-1.93-2.16-1.63-3.39-3.8-3.71-6.48-.38-3.18.55-6.04,2.48-8.55,2.07-2.72,4.82-4.44,8.17-5.05,2.74-.5,5.37-.18,7.74,1.43,1.55,1.02,2.66,2.42,3.39,4.12.18.26.06.41-.29.5Z"/>
  <path class="cls-1" d="M47.17,41.2c-2.66-.06-5.08-.82-7.12-2.57-1.72-1.49-2.8-3.39-3.15-5.63-.53-3.3.38-6.22,2.36-8.82,2.13-2.8,4.7-4.26,8.17-4.88,2.98-.53,5.78-.23,8.32,1.49,2.31,1.58,3.74,3.71,4.12,6.51.5,3.94-.64,7.15-3.36,9.9-1.93,1.96-4.29,3.18-7.01,3.74-.79.15-1.58.18-2.34.26h0ZM54.12,29.41c-.03-.38-.03-.67-.09-.96-.53-2.89-3.18-4.53-5.96-3.88-2.72.61-4.47,2.34-5.11,5.08-.53,2.28.58,4.58,2.69,5.52,1.61.7,3.21.61,4.76-.18,2.31-1.2,3.56-3.07,3.71-5.58h0Z"/>
</svg>