<?xml version="1.0" encoding="UTF-8"?>
<svg id="Layer_1" data-name="Layer 1" xmlns="http://www.w3.org/2000/svg" viewBox="0 0 60 60">
  <defs>
    <style>
      .cls-1 {
        fill: #ff4c46;
      }

      .cls-2 {
        fill: #fff;
      }
    </style>
  </defs>
  <path class="cls-1" d="M5.99.48c.13-.37.52-.57.9-.47l.05.02s11.84,4.5,20.1,7.64c.95-.16,1.89-.23,2.82-.23,3.51.02,6.82.81,10.14,2.77l19.34-1.6h0c.23-.01.44.11.56.3.17.28.09.64-.16.83l-.05.04c-.24.14-6.3,3.67-12.08,7.04.2.22.39.45.59.69,5.5,6.56,8.85,16.06,10.45,21.55.94,3.24.33,6.74-1.66,9.47-3.59,4.92-11.26,11.61-26.29,11.51-16.42-.11-24.89-8.28-28.97-13.3C-.01,44.56-.47,41.65.51,39.06l.3-.8c2.4-6.25,6.88-17.11,10.47-21.15,2.16-2.43,4.65-4.52,7.28-6.14L6.22,1.3h0c-.24-.2-.33-.53-.23-.82Z"/>
  <path class="cls-2" d="M30.23,42.98c.03-.07.1-.1.17-.07,2.62,1.51,5.77,1.78,8.62.77l.16-.06c.05-.02.11-.01.15.03.04.04.04.11,0,.16l-3.6,3.96h0c-.23.25-.61.27-.87.05-1.33-1.14-3.55-3.53-4.62-4.71-.03-.04-.03-.08-.02-.13ZM35.22,22.69c9.31-6.47,14.35-.85,17.18,5.38,2.04,4.49,2.77,12.9-3.87,14.19-5.08.99-9.78-4.16-13.26-8.97-.36-.49-1.05-.6-1.54-.25-.09.07-.17.15-.24.24l-.14.2c-2.38,3.34-8.05,12.4-16.45,10.11-8.1-2.22-9.88-11.33-6.51-17.63,4.98-9.5,12.27-12.59,24.82-3.28ZM33.9,35.72c.32-.31.82-.31,1.15-.02l.05.05h0l4.45,5.07h0s.04.06.06.09c.11.22.03.49-.19.61-1.34.68-2.81,1.05-4.32,1.09-1.98-.02-4-1.33-4.83-1.93l-.03-.03h0c-.17-.15-.2-.41-.07-.6l.03-.04,3.65-4.24h0s.03-.03.04-.04Z"/>
  <path class="cls-1" d="M46.02,28.29l.05.08c1.08,1.67.59,3.9-1.08,4.97-1.67,1.08-3.9.59-4.97-1.08-1.05-1.62-.62-3.78.95-4.89l.09-.06c1.56-1.12,3.74-.76,4.85.8.04.05.07.11.11.16ZM23.53,26.37c-1.87.64-2.8,2.63-2.25,4.48.64,1.87,2.63,2.8,4.48,2.25,1.87-.64,2.79-2.65,2.25-4.48,0-.01,0-.05-.03-.09-.58-1.8-2.42-2.76-4.17-2.26-.08-.02-.18.04-.28.1Z"/>
</svg>