<?xml version="1.0" encoding="UTF-8"?>
<svg id="Layer_1" data-name="Layer 1" xmlns="http://www.w3.org/2000/svg" viewBox="0 0 60 60">
  <defs>
    <style>
      .cls-1 {
        fill: #e34f26;
      }

      .cls-2 {
        fill: #fff;
      }

      .cls-3 {
        fill: #ef652a;
      }
    </style>
  </defs>
  <g>
    <path class="cls-1" d="M12.14,54.88l-3.59-43.9,42.9.09-3.8,43.81-17.49,5.06-18.02-5.06Z"/>
    <path class="cls-3" d="M30.16,55.7V15.16l17.67.06-3.15,36.28-14.52,4.21Z"/>
    <path class="cls-2" d="M42.97,25.28l.5-5.36h-27.18l1.5,16.43h18.76l-.74,7.01-6.01,1.62-6.09-1.77-.32-4.18h-5.39l.74,8.54,11.07,3.09,11.16-3.09,1.5-16.67h-19.7l-.56-5.62h20.76Z"/>
  </g>
  <g>
    <path d="M11.65,0h2.65v3.07h2.9V0h2.66v8.77h-2.66v-3.55h-2.9v3.55h-2.65V0Z"/>
    <path d="M21.01,0h8.05v2.17h-2.7v6.6h-2.65V2.17h-2.7V0Z"/>
    <path d="M30.23,0h3.48l1.34,5.34,1.33-5.34h3.48v8.77h-2.17V2.08l-1.67,6.69h-1.96l-1.67-6.69v6.69h-2.17V0Z"/>
    <path d="M41.57,0h2.65v6.61h4.14v2.16h-6.79V0Z"/>
  </g>
</svg>