<?xml version="1.0" encoding="UTF-8"?>
<svg id="Layer_1" data-name="Layer 1" xmlns="http://www.w3.org/2000/svg" viewBox="0 0 60 60">
  <defs>
    <style>
      .cls-1 {
        fill: #fff;
      }

      .cls-2 {
        fill: #99425b;
      }
    </style>
  </defs>
  <path class="cls-2" d="M53.5,29.55c0-3.05-2.47-5.52-5.52-5.52-.2,0-.39.01-.58.03L54.98,1.68H22.75l7.57,22.35c-.11,0-.22-.01-.34-.01-3.05,0-5.52,2.47-5.52,5.52,0,2.47,1.62,4.55,3.85,5.26-1.18,2.04-2.66,3.88-4.34,5.47-2.29,2.16-4.91,3.8-7.74,4.8-3.37-1.73-4.96-5.58-3.53-8.96.16-.38.33-.77.49-1.15,2.44-.57,4.26-2.76,4.26-5.38,0-3.05-2.47-5.52-5.52-5.52s-5.52,2.47-5.52,5.52c0,1.87.93,3.52,2.35,4.52-1.37,3.11-3.38,6.37-4,10.14-.75,4.52,0,9.33,3.91,12.04,9.11,6.32,19-3.92,29.43-6.49,3.78-.93,7.93-.78,11.26-2.71,2.5-1.45,4.15-3.85,4.62-6.54.46-2.66-.21-5.31-1.76-7.46.83-.99,1.29-2.25,1.28-3.54"/>
  <path class="cls-1" d="M52.65,40.32c-.41,2.34-1.85,4.38-3.96,5.61-1.97,1.14-4.33,1.48-6.83,1.84-1.34.19-2.72.39-4.08.73-3.58.88-7.04,2.6-10.39,4.27-6.7,3.33-12.49,6.21-17.95,2.42-4-2.77-3.81-7.9-3.35-10.71.43-2.6,1.6-5,2.73-7.32.19-.39.38-.79.57-1.18.57.23,1.17.38,1.77.45-1.15,3.79.66,7.92,4.45,9.86l.52.27.55-.2c3-1.07,5.76-2.78,8.21-5.09,1.58-1.49,2.95-3.15,4.07-4.91.34.05.68.08,1.03.08,3.48,0,6.36-2.6,6.81-5.96,1.42-.05,2.94-.05,4.37,0,.45,3.36,3.33,5.96,6.81,5.96,1.46,0,2.81-.46,3.92-1.23.77,1.58,1.06,3.36.75,5.13h0ZM11.93,25.41c2.3,0,4.17,1.87,4.17,4.17,0,.83-.24,1.6-.66,2.25-.69,1.08-1.87,1.82-3.23,1.92-.09,0-.19.01-.29.01-.51,0-1-.09-1.46-.26-.91-.34-1.68-1-2.17-1.85-.36-.63-.55-1.34-.55-2.07,0-2.3,1.87-4.17,4.17-4.17h0ZM25.81,29.55c0-2.09,1.55-3.83,3.55-4.13.2-.03.41-.05.62-.05,1.34,0,2.53.63,3.29,1.62.19.24.35.51.49.79.26.55.39,1.16.39,1.77,0,.33-.04.66-.11.97-.41,1.7-1.86,3-3.64,3.18-.14.01-.28.02-.42.02-.8,0-1.59-.23-2.26-.67-1.15-.74-1.91-2.04-1.91-3.5h0ZM43.23,24.58c-.91.87-1.56,1.97-1.89,3.18-1.57-.06-3.15-.06-4.72,0-.35-1.31-1.09-2.47-2.07-3.34l4.32-8.73,4.36,8.9ZM24.63,3.03h28.47l-6.72,19.83c-.29.07-.57.16-.85.26l-6.64-13.55-6.66,13.47c-.29-.1-.59-.18-.89-.24L24.63,3.03ZM52.15,29.55c0,.42-.06.82-.18,1.2-.27.9-.84,1.68-1.61,2.22-.7.49-1.53.75-2.39.75-1.93,0-3.55-1.31-4.03-3.09-.09-.35-.14-.72-.14-1.08,0-.57.12-1.11.32-1.61.11-.25.24-.5.39-.72.75-1.11,2.02-1.84,3.46-1.84.13,0,.26,0,.39.02,2.12.2,3.78,1.98,3.78,4.15h0ZM54.85,29.55c0-3.35-2.42-6.15-5.6-6.75L56.86.33H20.86l7.63,22.51c-3.07.68-5.38,3.43-5.38,6.71,0,2.46,1.3,4.62,3.25,5.83-.94,1.4-2.05,2.71-3.32,3.91-2.02,1.91-4.27,3.35-6.7,4.3-2.44-1.53-3.48-4.43-2.4-6.95l.08-.2.16-.37c2.68-.94,4.61-3.49,4.61-6.49,0-3.79-3.08-6.87-6.87-6.87s-6.87,3.08-6.87,6.87c0,1.91.79,3.64,2.05,4.89-.24.5-.48,1-.72,1.49-1.16,2.38-2.47,5.07-2.96,8.06-.98,5.94.6,10.69,4.47,13.37,2.35,1.63,4.73,2.27,7.13,2.27,4.52,0,9.09-2.27,13.56-4.49,3.22-1.6,6.55-3.25,9.84-4.06,1.22-.3,2.48-.48,3.82-.68,2.64-.38,5.38-.78,7.8-2.18,2.81-1.63,4.73-4.35,5.27-7.48.47-2.69-.09-5.38-1.46-7.66.66-1.08,1.01-2.31,1.01-3.58h0Z"/>
</svg>