<?xml version="1.0" encoding="UTF-8"?>
<svg id="Layer_1" data-name="Layer 1" xmlns="http://www.w3.org/2000/svg" viewBox="0 0 60 60">
  <defs>
    <style>
      .cls-1 {
        fill: #326de6;
      }

      .cls-2 {
        fill: #fff;
      }
    </style>
  </defs>
  <path class="cls-1" d="M19.16,58.28c-1.4,0-2.72-.62-3.61-1.75L1.97,39.66c-.89-1.13-1.24-2.56-.89-3.96L5.93,14.64c.31-1.4,1.24-2.52,2.52-3.14L28.08,2.11c.62-.31,1.32-.47,2.02-.47s1.4.16,2.02.47l19.63,9.35c1.28.62,2.21,1.75,2.52,3.14l4.85,21.07c.31,1.4,0,2.83-.89,3.96l-13.58,16.88c-.89,1.09-2.21,1.75-3.61,1.75l-21.88.04h0Z"/>
  <path class="cls-2" d="M30.06,2.61c.54,0,1.09.12,1.59.35l19.63,9.35c1.01.5,1.78,1.44,2.02,2.52l4.85,21.07c.27,1.13,0,2.29-.74,3.18l-13.58,16.88c-.7.89-1.78,1.4-2.91,1.4h-21.76c-1.13,0-2.21-.5-2.91-1.4L2.67,39.08c-.7-.89-.97-2.06-.74-3.18L6.78,14.83c.27-1.13,1.01-2.06,2.02-2.52L28.43,2.92c.5-.19,1.09-.31,1.63-.31h0ZM30.06.79c-.81,0-1.63.19-2.41.54L8.02,10.72c-1.55.74-2.64,2.09-3.03,3.76L.15,35.55c-.39,1.67,0,3.38,1.09,4.73l13.58,16.88c1.05,1.32,2.64,2.06,4.31,2.06h21.76c1.67,0,3.26-.74,4.31-2.06l13.58-16.88c1.09-1.32,1.47-3.06,1.09-4.73l-4.85-21.07c-.39-1.67-1.47-3.03-3.03-3.76L32.42,1.33c-.74-.35-1.55-.54-2.37-.54Z"/>
  <path class="cls-2" d="M49.73,34.23s-.04,0,0,0h-.04s-.08,0-.08-.04c-.08,0-.16-.04-.23-.04-.27-.04-.5-.08-.74-.08-.12,0-.23,0-.39-.04h-.04c-.81-.08-1.47-.16-2.1-.35-.27-.12-.35-.27-.43-.43,0-.04-.04-.04-.04-.08l-.5-.16c.24-1.83.15-3.68-.27-5.47-.42-1.81-1.16-3.53-2.17-5.08l.39-.35v-.08c0-.19.04-.39.19-.58.47-.43,1.05-.78,1.75-1.2.12-.08.23-.12.35-.19.23-.12.43-.23.66-.39.04-.04.12-.08.19-.16.04-.04.08-.04.08-.08.54-.47.66-1.24.27-1.75-.19-.27-.54-.43-.89-.43-.31,0-.58.12-.85.31l-.08.08c-.08.04-.12.12-.19.16-.19.19-.35.35-.5.54-.08.08-.16.19-.27.27-.54.58-1.05,1.05-1.55,1.4-.12.08-.23.12-.35.12-.08,0-.16,0-.23-.04h-.08l-.47.31c-.5-.54-1.05-1.01-1.59-1.47-2.34-1.83-5.15-2.95-8.11-3.22l-.04-.5-.08-.08c-.12-.12-.27-.23-.31-.5-.04-.62.04-1.32.12-2.1v-.04c0-.12.04-.27.08-.39.04-.23.08-.47.12-.74v-.35c0-.7-.54-1.28-1.2-1.28-.31,0-.62.16-.85.39-.23.23-.35.54-.35.89v.31c0,.27.04.5.12.74.04.12.04.23.08.39v.04c.08.78.19,1.47.12,2.1-.04.27-.19.39-.31.5l-.08.08-.04.5c-.7.08-1.4.16-2.1.31-2.99.66-5.63,2.17-7.68,4.35l-.39-.27h-.08c-.08,0-.16.04-.23.04-.12,0-.23-.04-.35-.12-.5-.35-1.01-.85-1.55-1.44-.08-.08-.16-.19-.27-.27-.16-.19-.31-.35-.5-.54-.04-.04-.12-.08-.19-.16-.04-.04-.08-.04-.08-.08-.24-.2-.54-.31-.85-.31-.35,0-.7.16-.89.43-.39.5-.27,1.28.27,1.75.04,0,.04.04.08.04.08.04.12.12.19.16.23.16.43.27.66.39.12.04.23.12.35.19.7.43,1.28.78,1.75,1.2.19.19.19.39.19.58v.08l.39.35c-.08.12-.16.19-.19.31-1.94,3.06-2.68,6.67-2.17,10.24l-.5.16s-.04.04-.04.08c-.08.16-.19.31-.43.43-.58.19-1.28.27-2.09.35h-.04c-.12,0-.27,0-.39.04-.23,0-.47.04-.74.08-.08,0-.16.04-.23.04-.04,0-.08,0-.12.04-.7.16-1.13.81-1.01,1.44.12.54.62.89,1.24.89.12,0,.19,0,.31-.04.04,0,.08,0,.08-.04.08,0,.16-.04.23-.04.27-.08.47-.16.7-.27.12-.04.23-.12.35-.16h.04c.74-.27,1.4-.5,2.02-.58h.08c.23,0,.39.12.5.19.04,0,.04.04.08.04l.54-.08c.93,2.87,2.72,5.43,5.08,7.29.54.43,1.09.78,1.67,1.13l-.23.5s.04.04.04.08c.08.16.16.35.08.62-.23.58-.58,1.16-1.01,1.82v.04c-.08.12-.16.19-.23.31-.16.19-.27.39-.43.62-.04.04-.08.12-.12.19,0,.04-.04.08-.04.08-.31.66-.08,1.4.5,1.67.16.08.31.12.47.12.47,0,.93-.31,1.16-.74,0-.04.04-.08.04-.08.04-.08.08-.16.12-.19.12-.27.16-.47.23-.7l.12-.35c.27-.78.47-1.4.81-1.94.16-.23.35-.27.5-.35t.08-.04l.27-.5c1.71.66,3.57,1.01,5.43,1.01,1.13,0,2.29-.12,3.38-.39.68-.15,1.36-.35,2.02-.58l.23.43s.04,0,.08.04c.19.04.35.12.5.35.31.54.54,1.2.81,1.94v.04l.12.35c.08.23.12.47.23.7.04.08.08.12.12.19,0,.04.04.08.04.08.23.47.7.74,1.16.74.16,0,.31-.04.47-.12.27-.16.5-.39.58-.7.08-.31.08-.66-.08-.97,0-.04-.04-.04-.04-.08-.04-.08-.08-.16-.12-.19-.12-.23-.27-.43-.43-.62-.08-.12-.16-.19-.23-.31v-.04c-.43-.66-.82-1.24-1.01-1.82-.08-.27,0-.43.04-.62,0-.04.04-.04.04-.08l-.19-.47c2.06-1.2,3.8-2.91,5.12-5,.7-1.09,1.24-2.29,1.63-3.49l.47.08s.04-.04.08-.04c.16-.08.27-.19.5-.19h.08c.62.08,1.28.31,2.02.58h.04c.12.04.23.12.35.16.23.12.43.19.7.27.08,0,.16.04.23.04.04,0,.08,0,.12.04.12.04.19.04.31.04.58,0,1.09-.39,1.24-.89,0-.47-.43-1.09-1.13-1.28h0ZM31.77,32.33l-1.71.81-1.71-.81-.43-1.82,1.16-1.47h1.9l1.16,1.47-.39,1.82h0ZM41.89,28.29c.3,1.28.39,2.61.27,3.92l-5.94-1.71c-.54-.16-.85-.7-.74-1.24.04-.16.12-.31.23-.43l4.69-4.23c.66,1.09,1.16,2.33,1.47,3.69h0ZM38.55,22.28l-5.08,3.61c-.43.27-1.01.19-1.36-.23-.12-.12-.16-.27-.19-.43l-.35-6.32c2.64.3,5.1,1.49,6.98,3.38h0ZM27.3,19.1c.43-.08.81-.16,1.24-.23l-.35,6.21c-.04.54-.47,1.01-1.05,1.01-.16,0-.35-.04-.47-.12l-5.16-3.69c1.59-1.59,3.57-2.68,5.78-3.18h0ZM19.66,24.61l4.62,4.11c.43.35.47,1.01.12,1.44-.12.16-.27.27-.47.31l-6.01,1.75c-.23-2.64.35-5.31,1.75-7.6h0ZM18.61,35.12l6.17-1.05c.5-.04.97.31,1.09.81.04.23.04.43-.04.62l-2.37,5.7c-2.17-1.4-3.92-3.53-4.85-6.09h0ZM32.77,42.84c-.89.19-1.78.31-2.72.31-1.36,0-2.68-.23-3.92-.62l3.06-5.55c.31-.35.81-.5,1.24-.27.18.11.34.26.47.43l2.99,5.39c-.35.12-.74.19-1.13.31h0ZM40.34,37.45c-.97,1.55-2.25,2.79-3.72,3.76l-2.44-5.86c-.12-.47.08-.97.54-1.2.16-.08.35-.12.54-.12l6.21,1.05c-.23.85-.62,1.63-1.13,2.37h0Z"/>
</svg>