<?xml version="1.0" encoding="UTF-8"?>
<svg id="Layer_1" data-name="Layer 1" xmlns="http://www.w3.org/2000/svg" viewBox="0 0 60 60">
  <defs>
    <style>
      .cls-1 {
        fill: #ff2d20;
      }
    </style>
  </defs>
  <path class="cls-1" d="M59.15,13.53c.02.08.03.16.03.25v12.9c0,.34-.18.65-.47.82l-10.82,6.23v12.35c0,.34-.18.65-.47.82l-22.59,13.01c-.05.03-.11.05-.16.07-.02,0-.04.02-.06.03-.16.04-.32.04-.48,0-.03,0-.05-.02-.07-.03-.05-.02-.11-.04-.16-.06L1.29,46.89c-.29-.17-.47-.48-.47-.82V7.39c0-.08.01-.17.03-.25,0-.03.02-.05.03-.08.02-.05.03-.1.06-.15.02-.03.04-.06.06-.08.03-.04.05-.08.08-.11.03-.03.06-.05.09-.07.03-.03.06-.06.1-.08h0L12.59.07c.29-.17.65-.17.94,0l11.29,6.5h0s.07.05.1.08c.03.02.06.04.09.07.03.03.06.07.08.11.02.03.05.05.06.08.03.05.04.1.06.15,0,.03.03.05.03.08.02.08.03.16.03.25v24.16l9.41-5.42v-12.35c0-.08.01-.17.03-.24,0-.03.02-.05.03-.08.02-.05.04-.1.06-.15.02-.03.04-.06.06-.08.03-.04.05-.08.08-.11.03-.03.06-.05.09-.07.04-.03.07-.06.1-.08h0l11.3-6.5c.29-.17.65-.17.94,0l11.29,6.5s.07.05.11.08c.03.02.06.04.09.07.03.03.06.07.08.11.02.03.05.05.06.08.03.05.04.1.06.15.01.03.03.05.03.08h0ZM57.3,26.13v-10.72l-3.95,2.28-5.46,3.14v10.72l9.41-5.42h0ZM46,45.53v-10.73l-5.37,3.07-15.34,8.75v10.83l20.71-11.92ZM2.7,9.02v36.51l20.71,11.92v-10.83l-10.82-6.12h0s0,0,0,0c-.04-.02-.07-.05-.1-.08-.03-.02-.06-.04-.09-.07h0s-.05-.07-.08-.1c-.02-.03-.05-.06-.07-.09h0s-.03-.08-.05-.12c-.02-.04-.04-.07-.04-.11h0s-.01-.09-.02-.14c0-.04-.01-.07-.01-.11V14.43l-5.46-3.15-3.95-2.27h0ZM13.06,1.97L3.65,7.39l9.41,5.42,9.41-5.42L13.06,1.97h0ZM17.95,35.78l5.46-3.14V9.02l-3.95,2.28-5.46,3.14v23.62l3.95-2.28ZM46.94,8.36l-9.41,5.42,9.41,5.42,9.41-5.42-9.41-5.42ZM46,20.83l-5.46-3.14-3.95-2.28v10.72l5.46,3.14,3.95,2.28v-10.72ZM24.35,44.99l13.8-7.88,6.9-3.94-9.4-5.41-10.83,6.23-9.87,5.68,9.39,5.32Z"/>
</svg>