<?xml version="1.0" encoding="UTF-8"?>
<svg id="Layer_1" data-name="Layer 1" xmlns="http://www.w3.org/2000/svg" viewBox="0 0 60 60">
  <defs>
    <style>
      .cls-1 {
        fill: #599636;
      }

      .cls-2 {
        fill: #c2bfbf;
      }

      .cls-3 {
        fill: #6cac48;
      }
    </style>
  </defs>
  <path class="cls-1" d="M29.81.16l1.6,3.01c.36.55.75,1.05,1.21,1.5,1.35,1.33,2.6,2.75,3.76,4.25,2.71,3.56,4.54,7.52,5.85,11.8.78,2.61,1.21,5.29,1.24,8.01.13,8.11-2.65,15.06-8.25,20.85-.91.92-1.9,1.76-2.94,2.52-.55,0-.82-.43-1.05-.82-.42-.73-.69-1.52-.82-2.35-.2-.98-.33-1.96-.26-2.97v-.46c-.04-.1-.53-45.09-.34-45.32h0Z"/>
  <path class="cls-3" d="M29.81.06c-.07-.13-.13-.03-.2.03.03.66-.2,1.24-.55,1.8-.39.55-.91.98-1.44,1.44-2.91,2.52-5.19,5.56-7.03,8.95-2.44,4.57-3.69,9.48-4.05,14.64-.16,1.86.59,8.43,1.18,10.33,1.6,5.03,4.48,9.25,8.2,12.91.91.88,1.89,1.7,2.91,2.48.29,0,.33-.26.39-.46.13-.42.23-.84.29-1.27l.66-4.9L29.81.06Z"/>
  <path class="cls-2" d="M31.41,54.08c.07-.75.43-1.37.82-1.99-.39-.16-.69-.49-.91-.85-.2-.34-.36-.7-.49-1.08-.46-1.37-.55-2.81-.69-4.21v-.85c-.16.13-.2,1.24-.2,1.41-.1,1.48-.29,2.96-.59,4.41-.1.59-.16,1.18-.52,1.7,0,.07,0,.13.03.23.59,1.73.75,3.5.85,5.29v.66c0,.78-.03.62.62.88.26.1.55.13.82.33.2,0,.23-.16.23-.29l-.1-1.08v-3.01c-.03-.52.07-1.05.13-1.54h0Z"/>
</svg>