<?xml version="1.0" encoding="UTF-8"?>
<svg id="Layer_1" data-name="Layer 1" xmlns="http://www.w3.org/2000/svg" viewBox="0 0 60 60">
  <defs>
    <style>
      .cls-1 {
        fill: #00678c;
      }

      .cls-1, .cls-2 {
        fill-rule: evenodd;
      }

      .cls-3 {
        fill: #fff;
      }

      .cls-2 {
        fill: #ce8b2c;
      }
    </style>
  </defs>
  <rect class="cls-3" x="0" y=".02" width="60" height="60" rx="4.55" ry="4.55"/>
  <g>
    <path class="cls-1" d="M2.65,39.91h1.82v-7.17l2.81,6.25c.33.75.78,1.01,1.67,1.01s1.33-.26,1.67-1.01l2.81-6.25v7.17h1.81v-7.15c0-.69-.28-1.03-.85-1.21-1.37-.43-2.31-.06-2.72.88l-2.75,6.15-2.67-6.15c-.4-.93-1.35-1.31-2.72-.88-.58.18-.86.51-.86,1.21v7.15h0ZM16.73,34.08h1.81v3.94c-.01.22.07.72,1.07.74.5.01,3.9,0,3.93,0v-4.69h1.82s0,6.4,0,6.43c.01,1.58-1.96,1.92-2.86,1.94h-5.72v-1.22s5.71.01,5.72,0c1.17-.11,1.03-.69,1.03-.89v-.47h-3.85c-1.79-.03-2.93-.81-2.94-1.71,0-.08.04-4.03,0-4.07h0ZM55.74,29.54c-1.11-.03-1.96.07-2.69.39-.21.08-.53.08-.57.35.11.11.14.29.22.44.18.28.47.65.74.85.28.22.57.44.87.64.56.33,1.17.51,1.68.85.32.19.63.44.93.67.14.11.25.28.43.35v-.03c-.1-.13-.13-.31-.21-.45l-.42-.42c-.4-.53-.92-1-1.46-1.39-.43-.31-1.4-.74-1.58-1.24-.01-.01-.03-.01-.03-.03.31-.04.67-.15.94-.22.47-.12.9-.1,1.39-.22.22-.07.44-.13.67-.19v-.13c-.25-.25-.42-.6-.69-.82-.71-.61-1.49-1.21-2.28-1.71-.44-.29-.99-.47-1.46-.71-.15-.07-.43-.11-.54-.25-.25-.31-.38-.71-.57-1.07-.41-.79-.79-1.6-1.14-2.42-.24-.54-.4-1.08-.69-1.58-1.44-2.36-2.99-3.79-5.39-5.19-.51-.29-1.12-.42-1.78-.57-.35-.03-.69-.04-1.04-.07-.21-.08-.43-.35-.64-.47-.79-.5-2.83-1.6-3.42-.15-.38.9.56,1.79.89,2.25.24.32.53.68.69,1.04.11.24.12.47.22.72.24.63.43,1.31.72,1.87.15.29.32.6.51.86.11.15.32.22.35.47-.19.28-.21.69-.32,1.04-.49,1.57-.31,3.5.42,4.67.22.35.74,1.11,1.46.82.63-.26.49-1.04.67-1.75.04-.15.01-.26.1-.38v.03c.18.39.38.76.57,1.14.42.68,1.17,1.4,1.81,1.87.32.25.58.68,1.01.82v-.03h-.04c-.08-.12-.21-.18-.31-.28-.25-.25-.53-.56-.74-.83-.57-.78-1.08-1.64-1.56-2.53-.22-.43-.42-.9-.6-1.33-.07-.17-.07-.42-.22-.51-.21.32-.5.58-.67.96-.25.6-.29,1.33-.37,2.08-.06.03-.04.01-.07.04-.44-.11-.6-.57-.76-.96-.4-.99-.49-2.57-.13-3.71.1-.29.53-1.21.35-1.49-.08-.26-.35-.43-.5-.64-.19-.25-.38-.58-.51-.87-.33-.78-.49-1.64-.85-2.42-.18-.38-.46-.75-.69-1.07-.26-.38-.56-.64-.76-1.08-.07-.15-.17-.4-.07-.57.04-.11.08-.15.19-.19.18-.14.69.06.89.12.5.22.93.42,1.36.71.21.14.42.4.67.47h.28c.44.1.94.03,1.36.15.74.22,1.4.57,2,.96,1.83,1.15,3.32,2.79,4.35,4.75.17.32.24.61.38.94.29.68.67,1.37.96,2.03.28.67.57,1.33.97,1.87.22.29,1.06.44,1.43.6.26.11.69.24.94.39.49.28.94.63,1.4.94.22.15.92.5.94.79h0Z"/>
    <path class="cls-1" d="M41.58,17.47c-.19,0-.38.02-.57.07v.03h.04c.11.22.31.38.44.57.1.22.21.44.31.67l.04-.04c.19-.12.28-.35.28-.69-.07-.08-.08-.18-.15-.28-.1-.14-.26-.21-.39-.32h0Z"/>
    <path class="cls-2" d="M26.76,39.91h5.21c.61,0,1.21-.13,1.68-.35.78-.36,1.17-.85,1.17-1.49v-1.33c0-.51-.44-1.01-1.29-1.33-.46-.18-1.01-.26-1.56-.26h-2.19c-.74,0-1.08-.22-1.17-.71-.01-.06-.01-.11-.01-.17v-.82c0-.06,0-.1.01-.15.08-.38.28-.49.92-.54.06,0,.12-.01.18-.01h5.18v-1.21h-5.1c-.74,0-1.11.06-1.46.15-1.08.35-1.56.87-1.56,1.81v1.06c0,.82.93,1.51,2.47,1.68.18,0,.35.01.53.01h1.88c.07,0,.14,0,.19.01.58.06.82.15,1,.36.1.11.14.21.14.33v1.06c0,.13-.08.29-.26.43-.15.14-.42.22-.76.25-.07,0-.12.01-.19.01h-5v1.21ZM46.12,37.8c0,1.25.92,1.94,2.79,2.08.17.01.35.03.51.03h4.72v-1.21h-4.75c-1.07,0-1.47-.26-1.47-.9v-6.26h-1.81v6.26h0ZM35.96,37.87v-4.3c0-1.1.76-1.76,2.29-1.97.15-.03.33-.03.49-.03h3.44c.17,0,.32,0,.5.03,1.51.21,2.29.87,2.29,1.97v4.3c0,.89-.33,1.36-1.08,1.67l1.79,1.61h-2.11l-1.44-1.29-1.46.08h-1.93c-.33,0-.68-.04-1.07-.15-1.15-.31-1.71-.92-1.71-1.92h0ZM37.92,37.76c0,.07.01.12.03.19.11.5.58.78,1.29.78h1.65l-1.51-1.36h2.11l1.32,1.18c.24-.13.4-.32.46-.57.01-.07.01-.12.01-.18v-4.14s0-.1-.01-.15c-.11-.47-.58-.74-1.28-.74h-2.75c-.81,0-1.32.35-1.32.89v4.1h0ZM54.98,39.91h.26v-1h.36v-.21h-.99v.21h.36v1h0ZM57.01,39.91h.24v-1.21h-.36l-.32.83-.32-.83h-.38v1.21h.25v-.92l.35.92h.18l.35-.92h.01v.92h0Z"/>
  </g>
</svg>