<?xml version="1.0" encoding="UTF-8"?>
<svg id="Layer_1" data-name="Layer 1" xmlns="http://www.w3.org/2000/svg" viewBox="0 0 60 60">
  <defs>
    <style>
      .cls-1 {
        fill: #00d486;
      }
    </style>
  </defs>
  <path class="cls-1" d="M30,60.13c-.81,0-1.61-.21-2.31-.62l-7.34-4.35c-1.1-.61-.56-.83-.2-.96,1.17-.36,2.28-.86,3.32-1.5.18-.08.38-.07.55.04l5.64,3.35c.21.11.47.11.68,0l22-12.7c.21-.13.34-.35.34-.6v-25.4c0-.25-.13-.48-.34-.61L30.34,4.11c-.21-.12-.47-.12-.68,0L7.67,16.81c-.21.13-.35.35-.35.6v25.39c0,.24.13.47.35.59l6.03,3.48c3.27,1.63,5.27-.29,5.27-2.23v-25.07c0-.36.29-.64.64-.64h2.79c.36,0,.64.29.64.64h0v25.07c0,4.36-2.38,6.86-6.51,6.86-1.79.03-3.54-.45-5.07-1.38l-5.78-3.32c-1.43-.83-2.31-2.36-2.31-4.01v-25.39c0-1.66.88-3.19,2.31-4.02L27.69.68c1.44-.79,3.18-.79,4.62,0l22,12.7c1.43.83,2.31,2.36,2.31,4.01v25.4c0,1.65-.88,3.18-2.31,4.01l-22,12.7c-.7.41-1.5.62-2.31.62h0Z"/>
  <path class="cls-1" d="M25.83,34.3c0-.36.29-.64.64-.64h2.85c.31,0,.58.23.63.54.43,2.9,1.72,4.36,7.53,4.36,4.63,0,6.61-1.05,6.61-3.51,0-1.42-.56-2.47-7.76-3.18-6.02-.6-9.74-1.93-9.74-6.74,0-4.44,3.74-7.09,10.01-7.09,7.05,0,10.54,2.45,10.98,7.7.03.35-.24.66-.59.69-.01,0-.03,0-.04,0h-2.86c-.3,0-.55-.21-.62-.5-.68-3.05-2.36-4.02-6.86-4.02-5.06,0-5.65,1.76-5.65,3.08,0,1.6.69,2.07,7.53,2.97,6.76.89,9.97,2.16,9.97,6.91s-4,7.54-10.97,7.54c-9.64.01-11.66-4.41-11.66-8.11h0Z"/>
</svg>