<?xml version="1.0" encoding="UTF-8"?>
<svg id="Layer_1" data-name="Layer 1" xmlns="http://www.w3.org/2000/svg" viewBox="0 0 60 60">
  <defs>
    <style>
      .cls-1 {
        fill: #00dc82;
      }
    </style>
  </defs>
  <path class="cls-1" d="M33.6,50h22.2c.71,0,1.39-.25,2-.6s1.25-.79,1.6-1.4.6-1.3.6-2c0-.7-.25-1.39-.6-2l-15-25.8c-.35-.61-.79-1.05-1.4-1.4s-1.49-.6-2.2-.6-1.39.25-2,.6-1.05.79-1.4,1.4l-3.8,6.6-7.6-12.8c-.35-.61-.79-1.25-1.4-1.6-.61-.35-1.29-.4-2-.4s-1.39.05-2,.4c-.61.35-1.25.99-1.6,1.6L.4,44C.05,44.61,0,45.3,0,46c0,.7.05,1.39.4,2,.35.61.99,1.05,1.6,1.4.61.35,1.29.6,2,.6h14c5.55,0,9.59-2.49,12.4-7.2l6.8-11.8,3.6-6.2,11,18.8h-14.6l-3.6,6.4ZM17.8,43.6h-9.8l14.6-25.2,7.4,12.6-4.9,8.55c-1.87,3.06-4,4.05-7.3,4.05Z"/>
</svg>