<?xml version="1.0" encoding="UTF-8"?>
<svg id="Layer_1" data-name="Layer 1" xmlns="http://www.w3.org/2000/svg" viewBox="0 0 60 60">
  <defs>
    <style>
      .cls-1 {
        fill: #fff;
      }
    </style>
  </defs>
  <rect x="0" width="60" height="60" rx="4.55" ry="4.55"/>
  <g>
    <path class="cls-1" d="M12.87,44.79c.42.57.63,1.3.63,2.19,0,.96-.24,1.77-.72,2.4-.56.75-1.36,1.12-2.4,1.12-.97,0-1.74-.33-2.29-.98-.5-.63-.74-1.43-.74-2.4,0-.87.21-1.62.64-2.24.54-.8,1.35-1.2,2.42-1.2s1.94.37,2.48,1.1ZM12.11,48.91c.34-.55.51-1.19.51-1.91,0-.76-.19-1.37-.58-1.83-.39-.46-.92-.7-1.59-.7s-1.19.23-1.6.69c-.41.46-.62,1.14-.62,2.03,0,.72.18,1.32.53,1.81.35.49.93.74,1.72.74s1.3-.28,1.64-.83Z"/>
    <path class="cls-1" d="M14.35,43.85h.75v2.34c.17-.23.37-.4.61-.52.24-.12.49-.18.77-.18.58,0,1.04.2,1.4.6.36.4.54,1,.54,1.78,0,.74-.18,1.36-.53,1.85s-.84.74-1.47.74c-.35,0-.65-.09-.89-.26-.14-.1-.3-.27-.46-.49v.6h-.71v-6.48ZM17.31,49.27c.21-.34.31-.79.31-1.35,0-.49-.1-.9-.31-1.23-.21-.32-.52-.49-.92-.49-.35,0-.66.13-.93.4-.27.27-.4.71-.4,1.32,0,.44.05.8.16,1.08.2.52.59.78,1.14.78.42,0,.73-.17.94-.51Z"/>
    <path class="cls-1" d="M18.58,51.52c.35-.01.56-.04.63-.09.07-.05.11-.21.11-.48v-5.3h.77v5.38c0,.34-.05.6-.16.77-.18.29-.52.43-1.03.43-.04,0-.08,0-.12,0-.04,0-.11,0-.2-.02v-.69ZM20.08,44.79h-.77v-.91h.77v.91Z"/>
    <path class="cls-1" d="M24.11,45.75c.31.16.54.36.7.61.15.24.26.51.31.83.05.22.07.56.07,1.04h-3.35c.01.48.12.86.33,1.15s.52.43.95.43c.4,0,.72-.14.96-.41.13-.16.23-.34.28-.55h.76c-.02.17-.09.37-.2.58-.11.21-.24.39-.38.52-.23.23-.52.39-.87.47-.19.05-.39.07-.63.07-.57,0-1.05-.21-1.45-.64-.4-.43-.59-1.02-.59-1.79s.2-1.37.6-1.84.92-.71,1.56-.71c.32,0,.64.08.94.24ZM24.39,47.6c-.03-.34-.1-.62-.22-.82-.21-.38-.56-.57-1.05-.57-.35,0-.65.13-.89.39-.24.26-.37.6-.38,1h2.54Z"/>
    <path class="cls-1" d="M29.21,45.87c.33.26.52.7.59,1.33h-.75c-.05-.29-.15-.53-.31-.72-.16-.19-.43-.29-.79-.29-.49,0-.85.25-1.06.74-.14.32-.21.71-.21,1.18s.1.87.29,1.19c.2.32.5.48.92.48.32,0,.58-.1.76-.3.19-.2.32-.47.39-.82h.75c-.09.62-.3,1.08-.65,1.37-.34.29-.78.43-1.32.43-.6,0-1.08-.23-1.44-.67-.36-.45-.54-1.01-.54-1.69,0-.83.2-1.47.59-1.93.39-.46.89-.69,1.5-.69.52,0,.94.13,1.27.39Z"/>
    <path class="cls-1" d="M30.73,44.31h.78v1.31h.74v.65h-.74v3.07c0,.16.05.27.16.33.06.03.16.05.3.05.04,0,.08,0,.12,0s.09,0,.15-.02v.63c-.09.03-.18.04-.28.06s-.2.02-.31.02c-.36,0-.61-.09-.74-.28-.13-.19-.19-.43-.19-.74v-3.12h-.62v-.65h.62v-1.31Z"/>
    <path class="cls-1" d="M33.02,43.87h.79v.9h-.79v-.9ZM33.02,45.64h.79v4.68h-.79v-4.68Z"/>
    <path class="cls-1" d="M35.36,45.62l1.23,3.83,1.28-3.83h.85l-1.73,4.71h-.83l-1.7-4.71h.9Z"/>
    <path class="cls-1" d="M42.23,45.75c.3.16.54.36.7.61.15.24.26.51.31.83.04.22.07.56.07,1.04h-3.35c.01.48.12.86.33,1.15s.52.43.95.43c.4,0,.72-.14.96-.41.13-.16.23-.34.28-.55h.76c-.02.17-.09.37-.2.58-.11.21-.24.39-.38.52-.23.23-.52.39-.87.47-.18.05-.39.07-.63.07-.57,0-1.05-.21-1.45-.64-.4-.43-.59-1.02-.59-1.79s.2-1.37.6-1.84c.4-.47.92-.71,1.56-.71.33,0,.64.08.95.24ZM42.5,47.6c-.03-.34-.1-.62-.22-.82-.21-.38-.56-.57-1.05-.57-.35,0-.65.13-.89.39-.24.26-.37.6-.38,1h2.54Z"/>
    <path class="cls-1" d="M44.08,47.41h2.16v.81h-2.16v-.81Z"/>
    <path class="cls-1" d="M51.79,44.34c.44.43.68.92.73,1.47h-.83c-.09-.42-.28-.75-.56-.99s-.67-.37-1.17-.37c-.61,0-1.1.22-1.48.67s-.56,1.13-.56,2.06c0,.76.17,1.37.51,1.84.34.47.85.71,1.52.71.62,0,1.09-.25,1.42-.74.17-.26.3-.6.38-1.03h.83c-.07.68-.32,1.25-.73,1.71-.5.55-1.17.83-2.01.83-.73,0-1.33-.23-1.83-.68-.65-.6-.97-1.53-.97-2.78,0-.95.24-1.73.73-2.34.53-.66,1.25-.99,2.18-.99.79,0,1.4.21,1.84.65Z"/>
  </g>
  <path class="cls-1" d="M38.5,23.21c.04,4.71,4.14,6.28,4.18,6.3-.03.11-.65,2.24-2.16,4.43-1.3,1.9-2.65,3.79-4.77,3.83-2.09.04-2.76-1.24-5.14-1.24s-3.13,1.2-5.1,1.28c-2.05.08-3.61-2.05-4.92-3.94-2.67-3.87-4.72-10.93-1.97-15.69,1.36-2.37,3.8-3.87,6.45-3.9,2.01-.04,3.91,1.35,5.14,1.35s3.54-1.67,5.96-1.43c1.02.04,3.87.41,5.7,3.09-.15.09-3.4,1.99-3.37,5.93M34.58,11.63c1.09-1.32,1.82-3.15,1.62-4.97-1.57.06-3.46,1.04-4.59,2.36-1.01,1.17-1.89,3.03-1.65,4.82,1.75.14,3.53-.89,4.62-2.21"/>
</svg>