<?xml version="1.0" encoding="UTF-8"?>
<svg id="Layer_1" data-name="Layer 1" xmlns="http://www.w3.org/2000/svg" viewBox="0 0 60 60">
  <defs>
    <style>
      .cls-1 {
        fill: #fff;
      }

      .cls-1, .cls-2, .cls-3 {
        fill-rule: evenodd;
      }

      .cls-3 {
        fill: #6e81b6;
      }
    </style>
  </defs>
  <path class="cls-3" d="M30,45.1c16.46,0,29.8-6.76,29.8-15.1s-13.34-15.1-29.8-15.1S.2,21.66.2,30s13.34,15.1,29.8,15.1h0Z"/>
  <path class="cls-1" d="M36.04,34.88l1.48-7.61c.33-1.72.06-3-.82-3.81-.85-.78-2.3-1.16-4.43-1.16h-2.56l.73-3.77c.05-.26-.12-.52-.38-.57-.03,0-.06,0-.09,0h-3.53c-.23,0-.43.16-.48.39l-1.57,8.08c-.14-.91-.49-1.69-1.06-2.33-1.04-1.19-2.68-1.79-4.87-1.79h-6.85c-.23,0-.43.16-.48.39l-3.18,16.35c-.03.14,0,.29.1.4.09.11.23.18.37.18h3.56c.23,0,.43-.16.48-.39l.77-3.95h2.65c1.39,0,2.56-.15,3.47-.45.93-.3,1.79-.82,2.55-1.53.61-.56,1.12-1.19,1.51-1.87l-.63,3.27c-.03.14,0,.29.1.4.09.11.23.18.37.18h3.53c.23,0,.43-.16.48-.39l1.74-8.97h2.42c1.03,0,1.34.21,1.42.29.07.08.23.37.06,1.26l-1.41,7.23c-.05.26.12.52.39.57.03,0,.06,0,.09,0h3.59c.23,0,.43-.16.48-.39h0ZM19.66,28.6c-.22,1.14-.64,1.95-1.24,2.42-.61.47-1.59.71-2.91.71h-1.58l1.14-5.87h2.04c1.5,0,2.1.32,2.35.59.34.37.41,1.12.21,2.16ZM50.92,24.09c-1.04-1.19-2.68-1.79-4.87-1.79h-6.85c-.23,0-.43.16-.48.39l-3.18,16.35c-.03.14,0,.29.1.4s.23.18.37.18h3.56c.23,0,.43-.16.48-.39l.77-3.95h2.65c1.39,0,2.56-.15,3.47-.45.93-.3,1.79-.82,2.55-1.53.63-.58,1.15-1.23,1.54-1.94s.68-1.49.84-2.33c.4-2.08.08-3.75-.96-4.94h0ZM47.45,28.6c-.22,1.14-.64,1.95-1.24,2.42-.61.47-1.59.71-2.91.71h-1.58l1.14-5.87h2.04c1.5,0,2.1.32,2.35.59.34.37.41,1.12.21,2.16Z"/>
  <path class="cls-2" d="M17.1,25.37c1.35,0,2.25.25,2.71.75.45.5.56,1.36.32,2.57-.25,1.27-.72,2.17-1.42,2.71s-1.77.81-3.21.81h-2.17l1.33-6.84h2.44ZM8.43,39.14h3.56l.85-4.35h3.05c1.35,0,2.45-.14,3.32-.42s1.66-.76,2.37-1.42c.6-.55,1.08-1.15,1.45-1.82.37-.66.63-1.39.79-2.19.38-1.94.09-3.45-.85-4.53-.94-1.08-2.45-1.62-4.51-1.62h-6.85l-3.18,16.35ZM26.43,18.44h3.53l-.84,4.35h3.15c1.98,0,3.35.35,4.1,1.04s.98,1.81.68,3.36l-1.48,7.61h-3.59l1.41-7.23c.16-.82.1-1.38-.18-1.68-.28-.3-.87-.45-1.77-.45h-2.82l-1.82,9.37h-3.53l3.18-16.35ZM44.9,25.37c1.35,0,2.25.25,2.71.75.45.5.56,1.36.32,2.57-.25,1.27-.72,2.17-1.42,2.71-.7.54-1.77.81-3.21.81h-2.17l1.33-6.84h2.44ZM36.22,39.14h3.56l.84-4.35h3.05c1.35,0,2.45-.14,3.32-.42s1.66-.76,2.37-1.42c.6-.55,1.08-1.15,1.45-1.82s.63-1.39.79-2.19c.38-1.94.09-3.45-.85-4.53-.95-1.08-2.45-1.62-4.51-1.62h-6.85l-3.18,16.35Z"/>
</svg>