<?xml version="1.0" encoding="UTF-8"?>
<svg id="Layer_1" data-name="Layer 1" xmlns="http://www.w3.org/2000/svg" viewBox="0 0 60 60">
  <defs>
    <style>
      .cls-1 {
        fill: #fff;
      }

      .cls-2 {
        fill: #336791;
      }
    </style>
  </defs>
  <path d="M58.94,35.94c-.35-1.06-1.27-1.8-2.45-1.97-.56-.08-1.2-.05-1.96.11-1.32.27-2.3.38-3.01.4,2.7-4.55,4.89-9.75,6.15-14.64,2.04-7.9.95-11.51-.32-13.13C53.98,2.39,49.06.07,43.12,0c-3.17-.04-5.95.59-7.4,1.04-1.35-.24-2.8-.37-4.33-.4-2.86-.05-5.38.58-7.54,1.86-1.19-.4-3.11-.97-5.32-1.34-5.21-.85-9.4-.19-12.47,1.98C2.34,5.77.62,10.33.94,16.7c.1,2.02,1.23,8.17,3.01,14.01,1.02,3.35,2.12,6.14,3.24,8.28,1.6,3.03,3.31,4.82,5.24,5.46,1.08.36,3.04.61,5.1-1.11.26.32.61.63,1.07.92.59.37,1.31.67,2.02.85,2.58.65,5.01.48,7.07-.42.01.37.02.72.03,1.02.01.49.03.97.05,1.42.12,3.05.33,5.42.94,7.08.03.09.08.23.13.38.31.94.82,2.51,2.12,3.74,1.35,1.27,2.98,1.67,4.48,1.67.75,0,1.47-.1,2.09-.23,2.24-.48,4.78-1.21,6.62-3.83,1.74-2.47,2.58-6.2,2.74-12.08.02-.17.04-.32.06-.48l.04-.31.41.04h.11c2.28.11,5.07-.37,6.78-1.17,1.35-.63,5.69-2.92,4.67-6"/>
  <path class="cls-2" d="M55.05,36.54c-6.78,1.4-7.24-.9-7.24-.9,7.16-10.62,10.15-24.09,7.57-27.39C48.33-.75,36.14,3.51,35.93,3.62h-.07c-1.34-.27-2.84-.43-4.52-.46-3.07-.05-5.39.8-7.16,2.14,0,0-21.75-8.96-20.73,11.27.22,4.3,6.17,32.56,13.27,24.02,2.59-3.12,5.1-5.76,5.1-5.76,1.25.83,2.74,1.25,4.3,1.1l.12-.1c-.04.39-.02.77.05,1.22-1.83,2.04-1.29,2.4-4.95,3.15-3.7.76-1.53,2.12-.11,2.47,1.72.43,5.7,1.04,8.39-2.72l-.11.43c.72.57,1.22,3.73,1.14,6.6-.08,2.86-.14,4.83.42,6.37.56,1.54,1.13,4.99,5.93,3.96,4.02-.86,6.1-3.09,6.39-6.81.21-2.64.67-2.25.7-4.62l.37-1.12c.43-3.59.07-4.74,2.54-4.2l.6.05c1.82.08,4.2-.29,5.6-.94,3.01-1.4,4.8-3.73,1.83-3.12h0"/>
  <path class="cls-1" d="M25.46,18.49c-.61-.08-1.16,0-1.44.21-.16.12-.21.26-.22.35-.04.25.14.53.25.67.31.41.75.69,1.2.75.06,0,.13.01.19.01.74,0,1.41-.58,1.47-1,.07-.53-.7-.89-1.45-.99M45.69,18.51c-.06-.42-.8-.54-1.51-.44-.7.1-1.39.42-1.33.83.05.33.63.88,1.33.88.06,0,.12,0,.18-.01.46-.06.8-.36.97-.53.25-.26.39-.55.36-.73"/>
  <path class="cls-1" d="M57.3,36.38c-.26-.78-1.09-1.03-2.47-.75-4.1.85-5.57.26-6.05-.1,3.19-4.86,5.81-10.73,7.23-16.21.67-2.6,1.04-5.01,1.07-6.97.03-2.16-.33-3.74-1.09-4.71-3.05-3.9-7.54-6-12.96-6.05-3.73-.04-6.88.91-7.49,1.18-1.29-.32-2.69-.52-4.22-.54-2.8-.05-5.22.63-7.22,1.99-.87-.32-3.12-1.1-5.87-1.54-4.76-.77-8.54-.19-11.23,1.73-3.22,2.28-4.7,6.36-4.42,12.11.1,1.94,1.2,7.9,2.94,13.6,2.29,7.51,4.79,11.76,7.41,12.64.31.1.66.17,1.05.17.96,0,2.13-.43,3.35-1.9,1.49-1.79,3.03-3.53,4.62-5.22,1.03.55,2.16.86,3.32.89,0,.03,0,.06,0,.09-.2.24-.39.48-.59.72-.8,1.02-.97,1.23-3.55,1.76-.73.15-2.69.55-2.72,1.92-.03,1.49,2.31,2.12,2.57,2.19.93.23,1.82.35,2.68.35,2.07,0,3.9-.68,5.36-2-.04,5.33.18,10.58.82,12.18.52,1.31,1.8,4.51,5.85,4.51.59,0,1.25-.07,1.96-.22,4.22-.9,6.05-2.77,6.76-6.88.38-2.2,1.03-7.45,1.34-10.26.65.2,1.48.29,2.38.29,1.88,0,4.04-.4,5.4-1.03,1.52-.71,4.28-2.45,3.78-3.96h0ZM47.25,17.36c-.01.83-.13,1.59-.25,2.37-.13.85-.27,1.72-.3,2.79-.03,1.03.1,2.11.22,3.15.25,2.1.51,4.26-.49,6.4-.17-.3-.31-.6-.44-.91-.12-.3-.4-.79-.77-1.46-1.46-2.62-4.87-8.74-3.12-11.24.52-.74,1.84-1.51,5.16-1.1h0ZM43.23,3.28c4.86.11,8.71,1.93,11.43,5.41,2.09,2.67-.21,14.81-6.87,25.29-.07-.09-.13-.17-.2-.25l-.08-.11c1.72-2.84,1.38-5.65,1.08-8.14-.12-1.02-.24-1.99-.21-2.9.03-.96.16-1.79.28-2.58.15-.98.3-2,.26-3.2.03-.13.04-.27.03-.45-.11-1.15-1.42-4.59-4.1-7.7-1.46-1.7-3.6-3.61-6.51-4.9,1.25-.26,2.97-.5,4.89-.46h0ZM16.03,39.97c-1.34,1.62-2.27,1.31-2.58,1.21-1.99-.66-4.3-4.87-6.33-11.54-1.76-5.77-2.79-11.57-2.87-13.2-.26-5.15.99-8.73,3.71-10.66,4.42-3.14,11.69-1.26,14.61-.31-.04.04-.09.08-.13.12-4.79,4.84-4.68,13.11-4.67,13.62,0,.2.02.47.04.85.08,1.39.24,3.98-.17,6.91-.38,2.72.46,5.39,2.3,7.32.19.2.39.38.6.56-.82.88-2.61,2.82-4.51,5.11h0ZM21.15,33.14c-1.49-1.55-2.16-3.71-1.85-5.92.43-3.1.27-5.79.19-7.24-.01-.2-.02-.38-.03-.52.7-.62,3.95-2.36,6.26-1.83,1.06.24,1.7.96,1.97,2.2,1.38,6.4.18,9.07-.78,11.22-.2.44-.39.86-.55,1.29l-.12.33c-.31.84-.61,1.63-.79,2.38-1.58,0-3.12-.68-4.29-1.9h0ZM21.39,41.77c-.46-.12-.88-.32-1.12-.48.2-.1.57-.23,1.19-.36,3.04-.63,3.51-1.07,4.53-2.37.23-.3.5-.64.87-1.05h0c.55-.62.8-.51,1.26-.32.37.15.73.62.88,1.13.07.24.15.7-.11,1.05-2.14,3-5.26,2.96-7.5,2.4ZM37.3,56.58c-3.72.8-5.03-1.1-5.9-3.27-.56-1.4-.84-7.71-.64-14.69,0-.09-.01-.18-.04-.27-.02-.17-.06-.33-.1-.49-.29-1.01-1-1.86-1.85-2.21-.34-.14-.96-.4-1.7-.21.16-.65.43-1.39.73-2.19l.13-.34c.14-.38.32-.77.5-1.19,1.01-2.24,2.39-5.32.89-12.26-.56-2.6-2.44-3.87-5.29-3.58-1.71.18-3.27.87-4.05,1.26-.17.08-.32.17-.46.25.22-2.62,1.04-7.52,4.11-10.62,1.93-1.95,4.51-2.91,7.65-2.86,6.18.1,10.15,3.28,12.39,5.92,1.93,2.28,2.97,4.57,3.39,5.81-3.13-.32-5.27.3-6.35,1.84-2.35,3.36,1.29,9.88,3.03,13.02.32.57.6,1.07.68,1.28.57,1.38,1.31,2.3,1.84,2.97.16.21.32.41.45.58-.95.27-2.65.91-2.5,4.07-.13,1.59-1.02,9.01-1.47,11.64-.6,3.47-1.87,4.76-5.46,5.53h0ZM52.82,38.82c-.97.45-2.6.79-4.14.86-1.7.08-2.57-.19-2.78-.36-.1-1.97.64-2.18,1.41-2.39.12-.03.24-.07.36-.11.07.06.15.12.24.17,1.37.9,3.81,1,7.26.29h.04c-.47.43-1.26,1.01-2.39,1.54h0Z"/>
</svg>