<?xml version="1.0" encoding="UTF-8"?>
<svg id="Layer_1" data-name="Layer 1" xmlns="http://www.w3.org/2000/svg" xmlns:xlink="http://www.w3.org/1999/xlink" viewBox="0 0 60 60">
  <defs>
    <style>
      .cls-1 {
        fill: url(#linear-gradient-2);
      }

      .cls-2 {
        fill: url(#linear-gradient);
      }

      .cls-3 {
        fill: #fff;
      }
    </style>
    <linearGradient id="linear-gradient" x1="-262.64" y1="-199.98" x2="-262.63" y2="-200" gradientTransform="translate(485705.78 -370637.33) scale(1849.27 -1853.39)" gradientUnits="userSpaceOnUse">
      <stop offset="0" stop-color="#387eb8"/>
      <stop offset="1" stop-color="#366994"/>
    </linearGradient>
    <linearGradient id="linear-gradient-2" x1="-262.98" y1="-199.65" x2="-262.97" y2="-199.67" gradientTransform="translate(486350.16 -370009.99) scale(1849.27 -1853.39)" gradientUnits="userSpaceOnUse">
      <stop offset="0" stop-color="#ffe052"/>
      <stop offset="1" stop-color="#ffc331"/>
    </linearGradient>
  </defs>
  <rect class="cls-3" x="18.63" y="4.23" width="6.57" height="6.57"/>
  <rect class="cls-3" x="34.89" y="49.19" width="6.57" height="6.57"/>
  <g>
    <path class="cls-2" d="M29.79.36C14.66.36,15.6,6.92,15.6,6.92l.02,6.8h14.44v2.04H9.88S.2,14.66.2,29.92s8.45,14.72,8.45,14.72h5.04v-7.08s-.27-8.45,8.32-8.45h14.32s8.05.13,8.05-7.78v-13.07S45.6.36,29.79.36ZM21.82,4.93c1.43,0,2.6,1.16,2.6,2.59,0,0,0,0,0,0,0,1.43-1.16,2.6-2.59,2.6,0,0,0,0,0,0-1.43,0-2.6-1.16-2.6-2.59,0,0,0,0,0,0,0-1.43,1.16-2.6,2.59-2.6,0,0,0,0,0,0Z"/>
    <path class="cls-1" d="M30.21,59.64c15.13,0,14.18-6.56,14.18-6.56l-.02-6.8h-14.44v-2.04h20.17s9.68,1.1,9.68-14.17-8.45-14.72-8.45-14.72h-5.04v7.08s.27,8.45-8.32,8.45h-14.32s-8.05-.13-8.05,7.78v13.07s-1.22,7.91,14.59,7.91h0ZM38.18,55.07c-1.43,0-2.6-1.16-2.6-2.59h0c0-1.44,1.16-2.6,2.59-2.6h0c1.43,0,2.6,1.16,2.6,2.59h0c0,1.44-1.16,2.6-2.59,2.6h0Z"/>
  </g>
</svg>