<?xml version="1.0" encoding="UTF-8"?>
<svg id="Layer_1" data-name="Layer 1" xmlns="http://www.w3.org/2000/svg" viewBox="0 0 60 60">
  <defs>
    <style>
      .cls-1 {
        fill: #c00;
      }

      .cls-2 {
        fill: #fff;
      }
    </style>
  </defs>
  <circle class="cls-1" cx="30" cy="30" r="30"/>
  <g>
    <path class="cls-2" d="M48.31,36.43v2.26h4.08c.84,0,2.27-.61,2.32-2.32v-.87c0-1.46-1.2-2.32-2.32-2.32h-2.04v-1.05h4.03v-2.27h-3.87c-1,0-2.33.82-2.33,2.36v.79c0,1.54,1.32,2.32,2.33,2.32,2.81.01-.67,0,1.92,0v1.1M26.44,35.88s2.19-.19,2.19-3.01-2.65-3.08-2.65-3.08h-4.77v8.9h2.4v-2.15l2.07,2.15h3.55l-2.78-2.81h0ZM25.51,34.06h-1.91v-2.04h1.92s.54.2.54,1.01-.55,1.02-.55,1.02h0ZM34.54,29.85h-2.43c-1.74,0-2.32,1.57-2.32,2.32v6.52h2.43v-1.56h2.28v1.56h2.36v-6.52c0-1.9-1.72-2.32-2.32-2.32h0ZM34.5,34.61h-2.3v-2.16s0-.49.76-.49h.84c.67,0,.69.49.69.49v2.16h.01,0ZM37.97,29.85h2.53v8.84h-2.53v-8.84ZM44.07,36.41v-6.56h-2.52v8.84h5.93v-2.28h-3.41Z"/>
    <path class="cls-2" d="M6.16,38.69h9.86s-1.89-8.6,4.36-12.09c1.36-.66,5.69-3.13,12.79,2.11.22-.19.44-.34.44-.34,0,0-6.49-6.48-13.72-5.76-3.63.32-8.1,3.63-10.73,8s-3,8.07-3,8.07Z"/>
    <path class="cls-2" d="M6.16,38.69h9.86s-1.89-8.6,4.36-12.09c1.36-.66,5.69-3.13,12.79,2.11.22-.19.44-.34.44-.34,0,0-6.49-6.48-13.72-5.76-3.63.32-8.1,3.63-10.73,8s-3,8.07-3,8.07Z"/>
    <path class="cls-2" d="M6.16,38.69h9.86s-1.89-8.6,4.36-12.09c1.36-.66,5.69-3.13,12.79,2.11.22-.19.44-.34.44-.34,0,0-6.49-6.48-13.72-5.76-3.65.32-8.12,3.63-10.74,8s-2.98,8.07-2.98,8.07ZM26.71,23.32l.05-.84c-.11-.06-.42-.21-1.21-.44l-.05.82c.41.14.81.29,1.21.45Z"/>
    <path class="cls-2" d="M25.52,25.97l-.05.79c.41.01.82.06,1.24.15l.05-.77c-.42-.09-.84-.14-1.24-.16ZM20.9,22.07h.12l-.25-.76c-.39,0-.79.02-1.2.07l.24.74c.36-.04.72-.05,1.09-.05ZM21.5,26.67l.29.86c.36-.17.72-.32,1.09-.44l-.27-.82c-.42.12-.79.26-1.1.4h0ZM15.83,23.38l-.56-.86c-.31.16-.64.34-.97.54l.57.87c.32-.2.64-.39.96-.55h0ZM18.39,29l.6.9c.21-.31.46-.6.74-.89l-.56-.85c-.29.26-.55.55-.77.84h0ZM16.58,33.02l1.01.8c.05-.49.14-.97.26-1.46l-.9-.71c-.16.46-.27.92-.37,1.37h0ZM11.12,27.09l-.89-.77c-.32.31-.64.62-.92.94l.96.82c.26-.34.55-.67.85-.99h0ZM7.34,32.67l-1.44-.52c-.24.54-.5,1.16-.62,1.5l1.44.52c.16-.42.42-1.04.62-1.5ZM16.4,36.19c.02.66.09,1.2.15,1.57l1.5.54c-.11-.49-.22-1.04-.3-1.62l-1.35-.49Z"/>
  </g>
</svg>