<?xml version="1.0" encoding="UTF-8"?>
<svg id="Layer_1" data-name="Layer 1" xmlns="http://www.w3.org/2000/svg" viewBox="0 0 60 60">
  <defs>
    <style>
      .cls-1 {
        fill: #61dafb;
      }
    </style>
  </defs>
  <path class="cls-1" d="M60,30.01c0-3.97-4.98-7.74-12.61-10.08,1.76-7.78.98-13.97-2.47-15.95-.79-.46-1.72-.68-2.74-.68v2.73c.56,0,1.02.11,1.39.32,1.66.95,2.38,4.59,1.82,9.26-.13,1.15-.35,2.36-.62,3.6-2.4-.59-5.01-1.04-7.77-1.33-1.65-2.26-3.36-4.32-5.09-6.11,3.99-3.71,7.73-5.74,10.27-5.74v-2.73c-3.36,0-7.77,2.4-12.22,6.56-4.45-4.13-8.85-6.51-12.22-6.51v2.73c2.53,0,6.29,2.02,10.27,5.7-1.71,1.8-3.42,3.84-5.05,6.1-2.76.29-5.38.75-7.78,1.35-.28-1.22-.49-2.41-.64-3.55-.57-4.67.13-8.3,1.79-9.27.37-.22.84-.32,1.41-.32v-2.73c-1.03,0-1.96.22-2.76.68-3.44,1.98-4.21,8.16-2.43,15.91C4.95,22.29,0,26.04,0,30.01s4.98,7.74,12.61,10.08c-1.76,7.78-.98,13.97,2.47,15.95.79.46,1.72.68,2.75.68,3.36,0,7.77-2.4,12.22-6.56,4.45,4.13,8.85,6.51,12.22,6.51,1.03,0,1.96-.22,2.76-.68,3.44-1.98,4.21-8.16,2.43-15.91,7.58-2.34,12.54-6.1,12.54-10.07h0ZM44.08,21.85c-.45,1.58-1.02,3.2-1.65,4.83-.5-.98-1.03-1.96-1.6-2.94-.56-.98-1.16-1.93-1.76-2.86,1.74.26,3.41.57,5.01.97h0ZM38.48,34.87c-.95,1.65-1.93,3.22-2.95,4.67-1.82.16-3.67.24-5.53.24s-3.69-.09-5.5-.23c-1.02-1.46-2.01-3.01-2.96-4.65-.93-1.6-1.77-3.23-2.54-4.87.76-1.64,1.61-3.28,2.53-4.88.95-1.65,1.93-3.22,2.95-4.67,1.82-.16,3.67-.24,5.53-.24s3.69.09,5.5.23c1.02,1.46,2.01,3.01,2.96,4.65.93,1.6,1.77,3.23,2.54,4.87-.77,1.64-1.61,3.28-2.53,4.88h0ZM42.43,33.28c.66,1.64,1.22,3.28,1.69,4.87-1.6.39-3.29.72-5.04.98.6-.94,1.2-1.91,1.76-2.9.56-.98,1.09-1.97,1.59-2.95h0ZM30.02,46.33c-1.14-1.17-2.27-2.48-3.4-3.91,1.1.05,2.23.09,3.36.09s2.29-.02,3.4-.09c-1.1,1.43-2.24,2.74-3.36,3.91ZM20.93,39.13c-1.74-.26-3.41-.57-5.01-.97.45-1.58,1.02-3.2,1.65-4.83.5.98,1.03,1.96,1.6,2.94s1.16,1.93,1.76,2.86ZM29.96,13.68c1.14,1.17,2.27,2.48,3.4,3.91-1.1-.05-2.23-.09-3.36-.09s-2.29.02-3.4.09c1.1-1.43,2.24-2.74,3.36-3.91ZM20.91,20.88c-.6.94-1.2,1.91-1.76,2.9-.56.98-1.09,1.96-1.59,2.94-.66-1.64-1.22-3.28-1.69-4.87,1.6-.38,3.29-.71,5.04-.97h0ZM9.85,36.19c-4.33-1.85-7.13-4.27-7.13-6.19s2.8-4.35,7.13-6.19c1.05-.45,2.2-.86,3.39-1.24.7,2.4,1.61,4.89,2.75,7.45-1.13,2.54-2.03,5.03-2.72,7.41-1.21-.38-2.36-.79-3.42-1.25h0ZM16.42,53.67c-1.66-.95-2.38-4.59-1.82-9.26.13-1.15.35-2.36.62-3.6,2.4.59,5.01,1.04,7.77,1.33,1.65,2.26,3.36,4.32,5.09,6.11-3.99,3.71-7.73,5.74-10.27,5.74-.55-.01-1.02-.12-1.38-.33h0ZM45.43,44.35c.57,4.67-.13,8.3-1.79,9.27-.37.22-.84.32-1.41.32-2.53,0-6.29-2.02-10.27-5.7,1.71-1.8,3.42-3.84,5.05-6.1,2.76-.29,5.38-.75,7.78-1.35.28,1.24.5,2.42.64,3.56ZM50.14,36.19c-1.05.45-2.2.86-3.39,1.24-.7-2.4-1.61-4.89-2.75-7.45,1.13-2.54,2.03-5.03,2.72-7.41,1.21.38,2.36.79,3.44,1.25,4.33,1.85,7.13,4.27,7.13,6.19-.01,1.92-2.81,4.35-7.14,6.19h0Z"/>
  <circle class="cls-1" cx="29.99" cy="30.01" r="5.59"/>
</svg>