<?xml version="1.0" encoding="UTF-8"?>
<svg id="Layer_1" data-name="Layer 1" xmlns="http://www.w3.org/2000/svg" viewBox="0 0 60 60">
  <defs>
    <style>
      .cls-1 {
        fill: #ff4438;
        fill-rule: evenodd;
      }
    </style>
  </defs>
  <path class="cls-1" d="M53.15,30.36c0-2.1,1.55-3.31,3.49-3.31,1.45,0,2.74.7,3.36,2.43-.18.88-1.27,1.86-1.73,2.02-.39-.83-.83-1.32-1.24-1.32-.52,0-.54.36-.54.83,0,.33.09.82.21,1.4.17.88.39,1.99.39,3.13,0,2.07-1.45,3.59-3.67,3.59-2.04,0-3.16-1.34-3.66-3.47-1.33,2.38-3.28,3.47-4.77,3.47-2.33,0-2.88-1.72-2.82-3.47-.94,1.66-2.74,3.47-4.47,3.47s-2.39-1.54-2.25-3.33c-1.06,1.97-2.97,3.33-4.81,3.33-2,0-2.99-1.59-2.67-3.56-1.35,1.65-3.85,3.56-6.46,3.56-2.97,0-4.26-1.6-4.42-3.61-1.43,2.3-3.37,3.69-5.67,3.69-3.32,0-4.51-2.96-4.69-5.37-1.36,1.82-2.8,3.58-4.32,5.27-.18.18-.34.28-.52.28-.6,0-1.81-2.64-1.89-3.62.51-.79,3.73-4.33,6.32-7.17.91-1,1.74-1.92,2.35-2.6-1.59.48-3.22,1.43-5.28,2.92-.36.26-1.37-2.1-1.35-3.91,2.38-1.76,6-2.87,8.92-2.87,4.09,0,6.44,2.28,6.44,5.43,0,2.64-2.2,5.53-5.4,5.64-1.67.04-2.74-.89-3.28-2.05.06,1.79.99,3.99,3.49,3.99,2.72,0,4.03-1.64,5.97-4.09.13-.16.26-.32.39-.49,1.66-2.04,3.57-3.85,6.36-3.85,1.71,0,2.87,1.06,2.87,2.66,0,1.94-2.28,4.63-5.46,4.63-.54,0-1.04-.07-1.46-.21-.01.08-.02.16-.02.24,0,.9.34,1.45,1.81,1.45,2.17,0,4.21-1.29,6.7-4.32,2.43-2.97,4.27-4.27,6.21-4.27,1.31,0,2.3.71,2.74,1.9,2.6-3.75,4.8-6.42,6.67-8.19,1.84.78,3.16,2.3,2.79,2.61-1.37,1.24-5.95,6.23-7.76,9.21-.47.78-.91,1.63-.91,2.04,0,.39.23.52.49.52,1.24,0,3.73-2.93,5.88-5.47.8-.95,1.56-1.84,2.18-2.5,1.45.6,2.92,1.86,2.56,2.3-1.91,2.28-3.36,4.14-3.36,5.2,0,.28.1.47.49.47.72,0,1.4-.65,2.51-2.02.23-.28.52-.28.7.16.49,1.19,1.22,1.84,1.78,1.84.67,0,1.01-.6,1.01-1.5,0-.62-.08-1.34-.14-1.96-.05-.47-.09-.88-.09-1.15M11.43,30.03c1.37,0,2.87-.75,2.87-2.28,0-.93-.57-1.78-2.11-2.04l-.24.38c-.78,1.22-1.52,2.37-2.26,3.5.44.25,1.01.44,1.74.44M25.29,30.49c0-.41-.26-.7-.67-.7-1.04,0-2.6,1.46-3.34,2.86.27.11.59.16.93.16,1.84,0,3.08-1.4,3.08-2.33M32.1,34.24c0,.47.26.78.8.78,1.68,0,3.78-3.05,3.78-4.29,0-.52-.28-.83-.75-.83-1.53,0-3.83,2.9-3.83,4.34M53.69,24.91c-.6.98-1.5,2.1-1.84,2.43-1.55-.65-3-1.94-2.79-2.3.57-1.01,1.5-2.1,1.84-2.43,1.55.65,3,1.97,2.79,2.3"/>
</svg>