<?xml version="1.0" encoding="UTF-8"?>
<svg id="Layer_1" data-name="Layer 1" xmlns="http://www.w3.org/2000/svg" xmlns:xlink="http://www.w3.org/1999/xlink" viewBox="0 0 60 60">
  <defs>
    <style>
      .cls-1 {
        fill: url(#radial-gradient-2);
      }

      .cls-2 {
        fill: url(#linear-gradient-8);
      }

      .cls-3 {
        fill: url(#linear-gradient-7);
      }

      .cls-4 {
        fill: url(#linear-gradient-5);
      }

      .cls-5 {
        fill: url(#linear-gradient-6);
      }

      .cls-6 {
        fill: url(#linear-gradient-9);
      }

      .cls-7 {
        fill: url(#linear-gradient-4);
      }

      .cls-8 {
        fill: url(#linear-gradient-3);
      }

      .cls-9 {
        fill: url(#linear-gradient-2);
      }

      .cls-10 {
        fill: url(#radial-gradient);
      }

      .cls-11 {
        fill: url(#linear-gradient);
      }

      .cls-12 {
        fill: #fff;
      }

      .cls-13 {
        fill: #9e1209;
      }

      .cls-14 {
        fill: url(#linear-gradient-10);
      }

      .cls-15 {
        fill: url(#linear-gradient-11);
      }

      .cls-16 {
        fill: url(#linear-gradient-12);
      }

      .cls-17 {
        fill: url(#linear-gradient-13);
      }

      .cls-18 {
        fill: url(#linear-gradient-14);
      }
    </style>
    <linearGradient id="linear-gradient" x1="-341.74" y1="-555.71" x2="-341.75" y2="-555.7" gradientTransform="translate(677245.97 -1100299.21) scale(1981.58 -1980.1)" gradientUnits="userSpaceOnUse">
      <stop offset="0" stop-color="#fb7655"/>
      <stop offset="0" stop-color="#fb7655"/>
      <stop offset=".41" stop-color="#e42b1e"/>
      <stop offset=".99" stop-color="#900"/>
      <stop offset="1" stop-color="#900"/>
    </linearGradient>
    <linearGradient id="linear-gradient-2" x1="-344.45" y1="-555.05" x2="-344.48" y2="-555.04" gradientTransform="translate(202900.69 -605779.68) scale(588.89 -1091.48)" gradientUnits="userSpaceOnUse">
      <stop offset="0" stop-color="#871101"/>
      <stop offset="0" stop-color="#871101"/>
      <stop offset=".99" stop-color="#911209"/>
      <stop offset="1" stop-color="#911209"/>
    </linearGradient>
    <linearGradient id="linear-gradient-3" x1="-341.77" y1="-548.05" x2="-341.78" y2="-548" gradientTransform="translate(628523.38 -117592.67) scale(1838.89 -214.69)" xlink:href="#linear-gradient-2"/>
    <linearGradient id="linear-gradient-4" x1="-341.8" y1="-554.67" x2="-341.79" y2="-554.69" gradientTransform="translate(217699.91 -525873.58) scale(636.89 -948.15)" gradientUnits="userSpaceOnUse">
      <stop offset="0" stop-color="#fff"/>
      <stop offset="0" stop-color="#fff"/>
      <stop offset=".23" stop-color="#e57252"/>
      <stop offset=".46" stop-color="#de3b20"/>
      <stop offset=".99" stop-color="#a60003"/>
      <stop offset="1" stop-color="#a60003"/>
    </linearGradient>
    <linearGradient id="linear-gradient-5" x1="-342.22" y1="-555.45" x2="-342.21" y2="-555.47" gradientTransform="translate(351969.72 -579382.72) scale(1028.42 -1043.12)" gradientUnits="userSpaceOnUse">
      <stop offset="0" stop-color="#fff"/>
      <stop offset="0" stop-color="#fff"/>
      <stop offset=".23" stop-color="#e4714e"/>
      <stop offset=".56" stop-color="#be1a0d"/>
      <stop offset=".99" stop-color="#a80d00"/>
      <stop offset="1" stop-color="#a80d00"/>
    </linearGradient>
    <linearGradient id="linear-gradient-6" x1="-343.12" y1="-556.2" x2="-343.12" y2="-556.21" gradientTransform="translate(316067.05 -360713.8) scale(921.02 -648.55)" gradientUnits="userSpaceOnUse">
      <stop offset="0" stop-color="#fff"/>
      <stop offset="0" stop-color="#fff"/>
      <stop offset=".18" stop-color="#e46342"/>
      <stop offset=".4" stop-color="#c82410"/>
      <stop offset=".99" stop-color="#a80d00"/>
      <stop offset="1" stop-color="#a80d00"/>
    </linearGradient>
    <linearGradient id="linear-gradient-7" x1="-343.52" y1="-558.03" x2="-343.51" y2="-558" gradientTransform="translate(237416.6 -132411.58) scale(691.02 -237.29)" gradientUnits="userSpaceOnUse">
      <stop offset="0" stop-color="#fff"/>
      <stop offset="0" stop-color="#fff"/>
      <stop offset=".54" stop-color="#c81f11"/>
      <stop offset=".99" stop-color="#bf0905"/>
      <stop offset="1" stop-color="#bf0905"/>
    </linearGradient>
    <linearGradient id="linear-gradient-8" x1="-341.69" y1="-554.7" x2="-341.68" y2="-554.71" gradientTransform="translate(60648.78 -393442.75) scale(177.49 -709.36)" gradientUnits="userSpaceOnUse">
      <stop offset="0" stop-color="#fff"/>
      <stop offset="0" stop-color="#fff"/>
      <stop offset=".31" stop-color="#de4024"/>
      <stop offset=".99" stop-color="#bf190b"/>
      <stop offset="1" stop-color="#bf190b"/>
    </linearGradient>
    <linearGradient id="linear-gradient-9" x1="-341.58" y1="-556" x2="-341.55" y2="-555.97" gradientTransform="translate(527533.99 -857430.21) scale(1544.41 -1542.21)" gradientUnits="userSpaceOnUse">
      <stop offset="0" stop-color="#bd0012"/>
      <stop offset="0" stop-color="#bd0012"/>
      <stop offset=".07" stop-color="#fff"/>
      <stop offset=".17" stop-color="#fff"/>
      <stop offset=".27" stop-color="#c82f1c"/>
      <stop offset=".33" stop-color="#820c01"/>
      <stop offset=".46" stop-color="#a31601"/>
      <stop offset=".72" stop-color="#b31301"/>
      <stop offset=".99" stop-color="#e82609"/>
      <stop offset="1" stop-color="#e82609"/>
    </linearGradient>
    <linearGradient id="linear-gradient-10" x1="-341.92" y1="-554.69" x2="-341.93" y2="-554.69" gradientTransform="translate(424289.9 -527553.55) scale(1240.83 -951.17)" gradientUnits="userSpaceOnUse">
      <stop offset="0" stop-color="#8c0c01"/>
      <stop offset="0" stop-color="#8c0c01"/>
      <stop offset=".54" stop-color="#990c00"/>
      <stop offset=".99" stop-color="#a80d0e"/>
      <stop offset="1" stop-color="#a80d0e"/>
    </linearGradient>
    <linearGradient id="linear-gradient-11" x1="-343.13" y1="-555.45" x2="-343.14" y2="-555.44" gradientTransform="translate(315040.31 -572736.22) scale(917.99 -1031.18)" gradientUnits="userSpaceOnUse">
      <stop offset="0" stop-color="#7e110b"/>
      <stop offset="0" stop-color="#7e110b"/>
      <stop offset=".99" stop-color="#9e0c00"/>
      <stop offset="1" stop-color="#9e0c00"/>
    </linearGradient>
    <linearGradient id="linear-gradient-12" x1="-343.66" y1="-556.36" x2="-343.67" y2="-556.35" gradientTransform="translate(267521.06 -444332.71) scale(778.27 -798.67)" gradientUnits="userSpaceOnUse">
      <stop offset="0" stop-color="#79130d"/>
      <stop offset="0" stop-color="#79130d"/>
      <stop offset=".99" stop-color="#9e120b"/>
      <stop offset="1" stop-color="#9e120b"/>
    </linearGradient>
    <radialGradient id="radial-gradient" cx="-343.15" cy="-555.19" fx="-343.15" fy="-555.19" r=".02" gradientTransform="translate(312050.52 -263751.44) scale(909.23 -475.1)" gradientUnits="userSpaceOnUse">
      <stop offset="0" stop-color="#a80d00"/>
      <stop offset="0" stop-color="#a80d00"/>
      <stop offset=".99" stop-color="#7e0e08"/>
      <stop offset="1" stop-color="#7e0e08"/>
    </radialGradient>
    <radialGradient id="radial-gradient-2" cx="-342.35" cy="-554.41" fx="-342.35" fy="-554.41" r=".02" gradientTransform="translate(325742.06 -410569.62) scale(951.41 -740.63)" gradientUnits="userSpaceOnUse">
      <stop offset="0" stop-color="#a30c00"/>
      <stop offset="0" stop-color="#a30c00"/>
      <stop offset=".99" stop-color="#800e08"/>
      <stop offset="1" stop-color="#800e08"/>
    </radialGradient>
    <linearGradient id="linear-gradient-13" x1="-341.86" y1="-554.33" x2="-341.87" y2="-554.31" gradientTransform="translate(133986.88 -439155.37) scale(391.92 -792.34)" gradientUnits="userSpaceOnUse">
      <stop offset="0" stop-color="#8b2114"/>
      <stop offset="0" stop-color="#8b2114"/>
      <stop offset=".43" stop-color="#9e100a"/>
      <stop offset=".99" stop-color="#b3100c"/>
      <stop offset="1" stop-color="#b3100c"/>
    </linearGradient>
    <linearGradient id="linear-gradient-14" x1="-343.72" y1="-557.41" x2="-343.71" y2="-557.42" gradientTransform="translate(262175.98 -177561.31) scale(762.62 -318.55)" gradientUnits="userSpaceOnUse">
      <stop offset="0" stop-color="#b31000"/>
      <stop offset="0" stop-color="#b31000"/>
      <stop offset=".44" stop-color="#910f08"/>
      <stop offset=".99" stop-color="#791c12"/>
      <stop offset="1" stop-color="#791c12"/>
    </linearGradient>
  </defs>
  <path class="cls-11" d="M46.53,39.6L12.18,60l44.48-3.02,3.43-44.85-13.55,27.47h0Z"/>
  <path class="cls-9" d="M56.73,56.95l-3.82-26.39-10.41,13.75,14.24,12.64h0Z"/>
  <path class="cls-8" d="M56.78,56.95l-28.01-2.2-16.45,5.19,44.45-2.99h0Z"/>
  <path class="cls-7" d="M12.37,59.95l7-22.92-15.4,3.29,8.4,19.63h0Z"/>
  <path class="cls-4" d="M42.49,44.39l-6.44-25.22-18.42,17.27,24.86,7.95h0Z"/>
  <path class="cls-5" d="M58.62,19.53l-17.42-14.22-4.85,15.68,22.27-1.45h0Z"/>
  <path class="cls-3" d="M50.48.23l-10.24,5.66L33.77.16l16.71.08h0Z"/>
  <path class="cls-2" d="M-.08,48.01l4.29-7.83L.74,30.86-.08,48.01Z"/>
  <path class="cls-12" d="M.51,30.56l3.49,9.91,15.17-3.4,17.32-16.1,4.89-15.53-7.7-5.44-13.09,4.9c-4.12,3.84-12.13,11.42-12.41,11.57-.29.15-5.28,9.59-7.68,14.1h0Z"/>
  <path class="cls-6" d="M12.77,12.77C21.71,3.91,33.23-1.33,37.65,3.13c4.42,4.46-.27,15.3-9.2,24.16-8.94,8.86-20.32,14.38-24.73,9.92-4.42-4.46.12-15.59,9.06-24.45h0Z"/>
  <path class="cls-14" d="M12.37,59.94l6.94-22.99,23.05,7.41c-8.34,7.82-17.61,14.42-30,15.59h0Z"/>
  <path class="cls-15" d="M36.53,20.92l5.92,23.44c6.96-7.32,13.21-15.19,16.27-24.93l-22.19,1.48h0Z"/>
  <path class="cls-16" d="M58.66,19.55c2.37-7.15,2.92-17.4-8.25-19.31l-9.16,5.06,17.42,14.25Z"/>
  <path class="cls-13" d="M-.08,47.9c.33,11.8,8.84,11.97,12.47,12.08l-8.38-19.56L-.08,47.9Z"/>
  <path class="cls-10" d="M36.56,20.96c5.35,3.29,16.13,9.89,16.35,10.02.34.19,4.65-7.27,5.63-11.48l-21.98,1.47Z"/>
  <path class="cls-1" d="M19.3,36.94l9.28,17.9c5.49-2.98,9.78-6.6,13.72-10.49l-23-7.42h0Z"/>
  <path class="cls-17" d="M3.97,40.45l-1.31,15.66c2.48,3.39,5.89,3.68,9.47,3.42-2.59-6.45-7.76-19.34-8.16-19.08Z"/>
  <path class="cls-18" d="M41.19,5.35l18.44,2.59c-.98-4.17-4.01-6.86-9.16-7.7l-9.28,5.11h0Z"/>
</svg>