<?xml version="1.0" encoding="UTF-8"?>
<svg id="Layer_1" data-name="Layer 1" xmlns="http://www.w3.org/2000/svg" viewBox="0 0 60 60">
  <defs>
    <style>
      .cls-1 {
        fill: #fff;
      }
    </style>
  </defs>
  <circle class="cls-1" cx="29.91" cy="30.02" r="25.6"/>
  <path d="M59.59,29.26l-2.52-1.56c-.02-.24-.05-.49-.07-.73l2.16-2.02c.22-.2.32-.51.26-.8-.06-.29-.26-.54-.55-.64l-2.77-1.03c-.07-.24-.14-.48-.22-.71l1.73-2.4c.28-.39.19-.93-.2-1.21-.11-.08-.24-.13-.37-.15l-2.92-.47c-.11-.22-.23-.44-.35-.66l1.23-2.69c.13-.27.1-.59-.07-.84-.17-.25-.45-.4-.75-.38l-2.96.1c-.15-.19-.31-.38-.47-.57l.68-2.88c.07-.29-.02-.6-.23-.81-.21-.21-.52-.3-.81-.23l-2.88.68c-.19-.16-.38-.31-.57-.47l.1-2.96c.01-.3-.13-.58-.38-.75-.25-.17-.57-.19-.84-.07l-2.69,1.23c-.22-.12-.44-.24-.66-.35l-.48-2.92c-.08-.47-.52-.79-1-.72-.13.02-.26.07-.37.15l-2.4,1.73c-.24-.07-.47-.15-.71-.22l-1.03-2.77c-.1-.28-.35-.49-.64-.55-.29-.06-.6.04-.8.26l-2.02,2.17c-.24-.03-.49-.05-.73-.07l-1.56-2.52c-.25-.41-.79-.53-1.19-.28-.11.07-.21.17-.28.28l-1.56,2.52c-.25.02-.49.04-.73.07l-2.02-2.17c-.33-.35-.87-.37-1.22-.04-.1.09-.17.21-.22.33l-1.03,2.77c-.24.07-.48.14-.71.22l-2.4-1.73c-.24-.18-.56-.21-.84-.1-.28.12-.48.37-.52.66l-.48,2.92c-.22.11-.44.23-.66.35l-2.69-1.23c-.27-.12-.59-.1-.84.07-.25.17-.4.45-.38.75l.1,2.96c-.19.15-.38.31-.57.47l-2.88-.68c-.29-.07-.6.02-.81.23-.21.21-.3.52-.23.81l.68,2.88c-.16.19-.31.38-.47.57l-2.96-.1c-.3,0-.58.14-.75.38-.17.25-.19.57-.07.84l1.23,2.69c-.12.22-.24.43-.35.66l-2.92.47c-.47.08-.79.52-.72,1,.02.13.07.26.15.37l1.73,2.4c-.07.24-.15.47-.22.71l-2.77,1.03c-.45.17-.68.67-.51,1.12.05.13.12.24.22.33l2.16,2.02c-.03.24-.05.49-.07.73l-2.52,1.56C.16,29.42,0,29.7,0,30c0,.3.16.58.41.74l2.52,1.56c.02.25.04.49.07.73l-2.17,2.02c-.35.33-.37.87-.04,1.22.09.1.2.17.33.22l2.77,1.03c.07.24.14.48.22.71l-1.73,2.4c-.28.39-.19.93.2,1.21.11.08.24.13.37.15l2.92.47c.11.22.23.44.35.66l-1.23,2.69c-.12.27-.1.59.07.84.17.25.45.4.75.38l2.96-.1c.15.19.31.38.47.57l-.68,2.89c-.07.29.02.6.23.81.21.21.52.3.81.23l2.88-.68c.19.16.38.31.57.47l-.1,2.96c-.02.48.36.88.83.9.13,0,.27-.02.39-.08l2.69-1.23c.22.12.44.24.66.35l.48,2.92c.05.3.25.55.52.66.28.11.59.08.84-.1l2.4-1.73c.24.08.47.15.71.22l1.03,2.77c.1.28.35.49.64.55.29.06.6-.04.8-.26l2.02-2.17c.24.03.49.05.73.07l1.56,2.52c.16.25.44.41.74.41.3,0,.58-.16.74-.41l1.56-2.52c.25-.02.49-.05.73-.07l2.02,2.17c.2.22.51.32.8.26.29-.06.54-.26.64-.55l1.03-2.77c.24-.07.48-.14.71-.22l2.4,1.73c.39.28.93.19,1.21-.2.08-.11.13-.23.15-.37l.48-2.92c.22-.11.44-.23.66-.35l2.69,1.23c.43.2.95,0,1.15-.43.06-.12.08-.26.08-.39l-.1-2.96c.19-.15.38-.31.57-.47l2.88.68c.29.07.6-.02.81-.23.21-.21.3-.52.23-.81l-.68-2.89c.16-.19.31-.38.47-.57l2.96.1c.3.01.58-.13.75-.38.17-.25.19-.57.07-.84l-1.23-2.69c.12-.22.24-.44.35-.66l2.92-.47c.3-.05.55-.25.66-.52.12-.28.08-.59-.1-.84l-1.73-2.4c.07-.24.15-.47.22-.71l2.77-1.03c.28-.1.49-.35.55-.64.06-.29-.04-.6-.26-.8l-2.16-2.02c.03-.24.05-.49.07-.73l2.52-1.56c.26-.16.41-.44.41-.74,0-.3-.15-.58-.41-.74h0ZM42.73,50.16c-.96-.21-1.57-1.16-1.37-2.12.21-.96,1.15-1.58,2.11-1.37.96.21,1.57,1.16,1.37,2.12-.21.96-1.15,1.58-2.12,1.37h0ZM41.87,44.37c-.88-.19-1.74.37-1.93,1.25,0,0,0,0,0,0l-.89,4.17c-2.76,1.25-5.82,1.95-9.05,1.95s-6.43-.73-9.24-2.04l-.89-4.17c-.19-.88-1.05-1.44-1.93-1.25l-3.68.79c-.68-.7-1.32-1.45-1.9-2.25h17.93c.2,0,.34-.04.34-.22v-6.34c0-.18-.14-.22-.34-.22h-5.24v-4.02h5.67c.52,0,2.77.15,3.49,3.02.23.88.72,3.76,1.06,4.68.34,1.03,1.71,3.1,3.17,3.1h8.93c.1,0,.21-.01.32-.03-.62.84-1.3,1.64-2.03,2.38l-3.77-.81h0ZM17.08,50.07c-.96.21-1.91-.41-2.12-1.37-.21-.97.41-1.91,1.37-2.12.96-.21,1.91.41,2.12,1.37.21.96-.41,1.91-1.37,2.12h0ZM10.28,22.5c.4.9,0,1.96-.91,2.35-.9.4-1.95,0-2.35-.91-.4-.9,0-1.95.91-2.35.9-.4,1.95,0,2.35.91h0ZM8.19,27.45l3.84-1.71c.82-.36,1.19-1.33.83-2.15l-.79-1.79h3.11v14.01h-6.27c-.56-1.96-.84-3.98-.84-6.02,0-.8.04-1.58.13-2.36h0ZM25.03,26.09v-4.13h7.4c.38,0,2.7.44,2.7,2.17,0,1.44-1.78,1.95-3.24,1.95h-6.86ZM51.94,29.81c0,.55-.02,1.09-.06,1.63h-2.25c-.23,0-.32.15-.32.37v1.03c0,2.43-1.37,2.96-2.57,3.1-1.14.13-2.41-.48-2.57-1.18-.68-3.8-1.8-4.61-3.58-6.01,2.21-1.4,4.5-3.47,4.5-6.23,0-2.99-2.05-4.87-3.44-5.79-1.96-1.29-4.12-1.55-4.71-1.55H13.66c3.16-3.52,7.43-6.02,12.27-6.93l2.74,2.88c.62.65,1.65.67,2.29.06,0,0,0,0,0,0l3.07-2.94c6.43,1.2,11.88,5.2,15.02,10.7l-2.1,4.75c-.36.82,0,1.78.83,2.15l4.05,1.8c.07.72.11,1.44.11,2.18h0ZM28.68,5.8c.71-.68,1.84-.65,2.52.06.68.71.65,1.84-.06,2.52-.71.68-1.84.65-2.52-.06-.68-.71-.65-1.84.06-2.52h0ZM49.53,22.58c.4-.9,1.45-1.31,2.35-.91,0,0,0,0,0,0,.9.4,1.31,1.45.91,2.35-.4.9-1.45,1.31-2.35.91,0,0,0,0,0,0-.9-.4-1.3-1.45-.91-2.35h0Z"/>
</svg>