<?xml version="1.0" encoding="UTF-8"?>
<svg id="Layer_1" data-name="Layer 1" xmlns="http://www.w3.org/2000/svg" viewBox="0 0 60 60">
  <defs>
    <style>
      .cls-1 {
        fill: #cf649a;
      }
    </style>
  </defs>
  <path class="cls-1" d="M51.65,33.34c-2.1.01-3.91.52-5.44,1.27-.56-1.11-1.13-2.09-1.22-2.81-.11-.84-.23-1.36-.11-2.37.13-1.01.71-2.44.71-2.56-.01-.11-.13-.62-1.34-.63s-2.25.23-2.37.55-.35,1.04-.5,1.79c-.21,1.1-2.41,5-3.67,7.06-.41-.8-.76-1.5-.83-2.06-.11-.84-.23-1.36-.11-2.37.13-1.01.71-2.44.71-2.55-.01-.11-.13-.62-1.34-.63-1.21-.01-2.25.23-2.37.55s-.25,1.07-.5,1.79c-.25.73-3.18,7.24-3.94,8.94-.39.87-.73,1.56-.97,2.03-.25.47-.01.04-.04.08-.21.4-.33.62-.33.62h0c-.16.3-.34.59-.42.59-.06,0-.18-.79.02-1.86.43-2.26,1.49-5.79,1.48-5.92,0-.06.2-.68-.68-1-.86-.32-1.16.21-1.23.21s-.13.19-.13.19c0,0,.95-3.97-1.82-3.97-1.73,0-4.13,1.89-5.31,3.61-.75.41-2.34,1.28-4.03,2.2-.64.35-1.31.73-1.95,1.07l-.13-.14c-3.35-3.57-9.55-6.11-9.29-10.91.09-1.75.7-6.35,11.91-11.93,9.18-4.57,16.52-3.32,17.8-.53,1.82,3.98-3.93,11.39-13.47,12.46-3.63.41-5.54-1-6.02-1.52-.5-.55-.57-.57-.76-.47-.3.16-.12.66,0,.95.28.74,1.45,2.05,3.45,2.71,1.75.57,6.01.89,11.17-1.1,5.78-2.24,10.29-8.45,8.97-13.64-1.35-5.29-10.11-7.02-18.4-4.08-4.93,1.76-10.28,4.5-14.12,8.1C.48,21.3-.24,25.03.06,26.58c1.07,5.52,8.67,9.12,11.72,11.78-.15.08-.29.16-.42.23-1.52.75-7.32,3.79-8.78,7-1.64,3.63.26,6.25,1.52,6.6,3.91,1.09,7.92-.87,10.09-4.09,2.16-3.22,1.9-7.41.9-9.32l-.04-.07,1.2-.7c.77-.46,1.54-.88,2.2-1.24-.37,1.02-.64,2.23-.79,3.98-.16,2.06.68,4.73,1.79,5.79.49.46,1.08.47,1.44.47,1.29,0,1.88-1.07,2.52-2.34.8-1.56,1.5-3.36,1.5-3.36,0,0-.88,4.89,1.52,4.89.88,0,1.76-1.14,2.16-1.72h0s.02-.02.07-.11c.05-.07.1-.15.14-.22v-.02c.35-.61,1.14-2,2.31-4.31,1.51-2.98,2.97-6.7,2.97-6.7,0,0,.14.91.57,2.41.26.89.82,1.86,1.25,2.81-.35.49-.56.77-.56.77h.01c-.28.39-.6.79-.93,1.18-1.2,1.43-2.63,3.06-2.81,3.53-.22.55-.18.96.26,1.29.32.23.88.28,1.48.23,1.08-.07,1.83-.34,2.2-.5.59-.21,1.25-.53,1.9-1,1.17-.87,1.89-2.1,1.82-3.74-.04-.9-.33-1.79-.69-2.64.11-.15.21-.3.32-.47,1.85-2.71,3.28-5.68,3.28-5.68,0,0,.14.91.57,2.41.22.76.67,1.59,1.07,2.41-1.73,1.42-2.82,3.06-3.2,4.14-.69,1.99-.15,2.89.87,3.11.46.09,1.11-.12,1.61-.33.61-.2,1.35-.54,2.03-1.04,1.17-.87,2.3-2.07,2.24-3.7-.04-.75-.23-1.49-.5-2.19,1.48-.61,3.39-.96,5.81-.67,5.22.61,6.25,3.87,6.05,5.23-.2,1.36-1.29,2.11-1.65,2.34-.36.22-.48.3-.45.47.05.25.21.23.53.19.43-.07,2.74-1.11,2.84-3.62.14-3.22-2.92-6.74-8.34-6.7h0ZM11.43,46.9c-1.72,1.89-4.15,2.6-5.18,1.99-1.11-.64-.68-3.42,1.44-5.43,1.29-1.22,2.97-2.34,4.07-3.04.25-.15.62-.37,1.07-.64.07-.05.12-.07.12-.07.08-.05.18-.11.27-.16.79,2.86.04,5.37-1.78,7.35h0ZM24.03,38.33c-.6,1.46-1.86,5.23-2.63,5.02-.66-.18-1.05-3.02-.13-5.84.47-1.42,1.46-3.11,2.05-3.76.95-1.05,1.98-1.41,2.24-.97.3.56-1.16,4.64-1.54,5.56ZM34.42,43.3c-.26.13-.49.22-.6.15-.08-.05.11-.22.11-.22,0,0,1.3-1.39,1.82-2.04.29-.37.64-.81,1.02-1.3v.14c0,1.69-1.62,2.81-2.34,3.27h0ZM42.44,41.47c-.19-.14-.16-.57.47-1.93.25-.54.81-1.44,1.78-2.3.12.35.19.69.18,1.01-.01,2.11-1.51,2.89-2.43,3.22Z"/>
</svg>