<?xml version="1.0" encoding="UTF-8"?>
<svg id="Layer_1" data-name="Layer 1" xmlns="http://www.w3.org/2000/svg" viewBox="0 0 60 60">
  <defs>
    <style>
      .cls-1 {
        fill: #95bf46;
      }

      .cls-2 {
        fill: #fff;
      }

      .cls-3 {
        fill: #5e8e3e;
      }
    </style>
  </defs>
  <path class="cls-1" d="M49.83,11.68c-.04-.3-.31-.47-.52-.49-.22-.02-4.83-.36-4.83-.36,0,0-3.2-3.18-3.55-3.53-.35-.35-1.04-.24-1.31-.17-.04.01-.7.22-1.79.55-1.07-3.08-2.96-5.91-6.28-5.91-.09,0-.19,0-.28,0-.94-1.25-2.11-1.79-3.13-1.79-7.74,0-11.43,9.67-12.59,14.59-3.01.93-5.14,1.59-5.42,1.68-1.68.53-1.73.58-1.95,2.16-.17,1.2-4.56,35.16-4.56,35.16l34.22,6.41,18.54-4.01s-6.51-44.01-6.55-44.31h0ZM35.93,8.28l-2.9.9c0-.2,0-.4,0-.62,0-1.91-.27-3.45-.69-4.68,1.71.21,2.85,2.16,3.59,4.4ZM30.23,4.25c.48,1.19.79,2.9.79,5.21,0,.12,0,.23,0,.34-1.88.58-3.93,1.22-5.98,1.85,1.15-4.44,3.31-6.59,5.2-7.4h0ZM27.93,2.08c.33,0,.67.11.99.34-2.48,1.17-5.14,4.11-6.26,9.98l-4.73,1.46c1.31-4.48,4.44-11.77,9.99-11.77h0Z"/>
  <path class="cls-3" d="M49.31,11.2c-.22-.02-4.83-.36-4.83-.36,0,0-3.2-3.18-3.55-3.53-.13-.13-.31-.2-.49-.23l-2.59,52.92,18.54-4.01s-6.51-44.01-6.55-44.31c-.04-.3-.31-.47-.52-.49"/>
  <path class="cls-2" d="M31.54,21.44l-2.29,6.8s-2-1.07-4.46-1.07c-3.6,0-3.78,2.26-3.78,2.83,0,3.11,8.1,4.3,8.1,11.57,0,5.72-3.63,9.41-8.53,9.41-5.87,0-8.88-3.66-8.88-3.66l1.57-5.2s3.09,2.65,5.69,2.65c1.7,0,2.4-1.34,2.4-2.32,0-4.05-6.64-4.23-6.64-10.89,0-5.6,4.02-11.03,12.14-11.03,3.13,0,4.67.9,4.67.9"/>
</svg>