<?xml version="1.0" encoding="UTF-8"?>
<svg id="Layer_1" data-name="Layer 1" xmlns="http://www.w3.org/2000/svg" viewBox="0 0 60 60">
  <defs>
    <style>
      .cls-1 {
        fill: #fff;
      }

      .cls-2 {
        fill: #635bff;
      }
    </style>
  </defs>
  <circle class="cls-2" cx="30" cy="30" r="30"/>
  <path class="cls-1" d="M45.8,30.22c0-2.25-1.09-4.02-3.17-4.02s-3.35,1.77-3.35,4c0,2.64,1.49,3.98,3.63,3.98,1.04,0,1.83-.23,2.43-.57v-1.76c-.6.3-1.28.48-2.15.48s-1.61-.3-1.7-1.33h4.29c0-.11.02-.57.02-.78ZM41.47,29.39c0-.99.61-1.41,1.16-1.41s1.11.41,1.11,1.41h-2.27ZM35.89,26.2c-.64,0-1.26.24-1.72.68l-.11-.54h-1.93v10.24l2.19-.47v-2.48c.32.23.79.55,1.56.55,1.57,0,3-1.26,3-4.05,0-2.55-1.46-3.93-2.99-3.93h0ZM35.36,32.25c-.52,0-.83-.18-1.04-.41v-3.26c.22-.25.54-.43,1.04-.43.8,0,1.35.9,1.35,2.05,0,1.17-.54,2.05-1.35,2.05h0ZM29.1,25.68l2.2-.47v-1.78l-2.2.47v1.79ZM29.1,26.35h2.2v7.68h-2.2v-7.68ZM26.74,27l-.14-.65h-1.89v7.68h2.19v-5.21c.52-.68,1.4-.55,1.67-.46v-2.02c-.28-.11-1.31-.3-1.83.65h0ZM22.35,24.44l-2.14.46v7.03c0,1.3.97,2.26,2.26,2.26.72,0,1.25-.13,1.54-.29v-1.78c-.28.11-1.67.52-1.67-.78v-3.12h1.67v-1.87h-1.67v-1.9ZM16.42,28.58c0-.34.28-.47.75-.47.76.02,1.5.21,2.18.56v-2.06c-.69-.27-1.43-.41-2.17-.4-1.78,0-2.97.93-2.97,2.48,0,2.42,3.34,2.04,3.34,3.08,0,.4-.35.54-.84.54-.73,0-1.66-.3-2.4-.7v2.09c.76.33,1.57.5,2.4.5,1.83,0,3.08-.9,3.08-2.48,0-2.62-3.35-2.15-3.35-3.13h0Z"/>
</svg>