<?xml version="1.0" encoding="UTF-8"?>
<svg id="Layer_1" data-name="Layer 1" xmlns="http://www.w3.org/2000/svg" xmlns:xlink="http://www.w3.org/1999/xlink" viewBox="0 0 60 60">
  <defs>
    <style>
      .cls-1 {
        fill: url(#linear-gradient-2);
      }

      .cls-2 {
        fill: url(#linear-gradient);
      }

      .cls-3 {
        fill: #fff;
      }
    </style>
    <linearGradient id="linear-gradient" x1="-1754.25" y1="-1510.99" x2="-1753.09" y2="-1504.41" gradientTransform="translate(-17095.67 14753.61) rotate(-180) scale(9.77 -9.77)" gradientUnits="userSpaceOnUse">
      <stop offset="0" stop-color="#faae42"/>
      <stop offset="1" stop-color="#ef3e31"/>
    </linearGradient>
    <linearGradient id="linear-gradient-2" x1="-113.63" y1="-327.4" x2="-114.48" y2="-332.22" gradientTransform="translate(1140.27 -3196.28) scale(9.77 -9.77)" gradientUnits="userSpaceOnUse">
      <stop offset="0" stop-color="#e39f3a"/>
      <stop offset="1" stop-color="#d33929"/>
    </linearGradient>
  </defs>
  <path class="cls-2" d="M13.32,0h33.23c1.62,0,3.19.26,4.71.8,2.2.8,4.2,2.2,5.7,4.03,1.52,1.83,2.53,4.08,2.88,6.42.14.87.16,1.73.16,2.6v32.41c0,1.03-.05,2.09-.26,3.09-.47,2.32-1.57,4.5-3.16,6.26-1.57,1.76-3.63,3.07-5.86,3.77-1.36.42-2.77.61-4.2.61-.63,0-33.3,0-33.8-.02-2.39-.12-4.76-.89-6.75-2.23-1.95-1.31-3.54-3.14-4.57-5.25-.89-1.8-1.34-3.82-1.34-5.84V13.34c-.05-1.99.37-3.96,1.24-5.74,1.01-2.11,2.58-3.96,4.52-5.27C7.84.96,10.18.16,12.57.05c.23-.05.49-.05.75-.05Z"/>
  <path class="cls-1" d="M50.61,49.08c-.21-.33-.45-.66-.7-.96-.59-.7-1.27-1.31-2.02-1.83-.94-.63-2.04-1.03-3.16-1.08-.8-.05-1.59.09-2.34.38-.75.26-1.48.63-2.18,1.01-.82.42-1.64.84-2.51,1.2-1.03.42-2.11.75-3.21.98-1.38.26-2.79.35-4.17.33-2.51-.05-5.02-.42-7.41-1.13-2.11-.63-4.12-1.5-6.02-2.6-1.66-.96-3.21-2.06-4.66-3.3-1.2-1.03-2.3-2.13-3.33-3.3-.7-.82-1.38-1.69-2.02-2.58-.26-.35-.49-.73-.7-1.1L-.01,28.41v-15.12C-.01,5.95,5.92,0,13.25,0h11.84l8.77,8.91c19.78,13.45,13.38,28.29,13.38,28.29,0,0,5.62,6.33,3.37,11.88Z"/>
  <path class="cls-3" d="M33.9,8.91c19.78,13.45,13.38,28.29,13.38,28.29,0,0,5.62,6.35,3.35,11.91,0,0-2.32-3.89-6.21-3.89s-5.95,3.89-13.5,3.89c-16.8,0-24.75-14.04-24.75-14.04,15.14,9.96,25.48,2.91,25.48,2.91-6.82-3.96-21.33-22.9-21.33-22.9,12.63,10.76,18.09,13.59,18.09,13.59-3.26-2.7-12.4-15.87-12.4-15.87,7.31,7.41,21.84,17.74,21.84,17.74,4.12-11.44-3.96-21.63-3.96-21.63Z"/>
</svg>