<?xml version="1.0" encoding="UTF-8"?>
<svg id="Layer_1" data-name="Layer 1" xmlns="http://www.w3.org/2000/svg" viewBox="0 0 60 60">
  <defs>
    <style>
      .cls-1 {
        fill: #06b6d4;
      }
    </style>
  </defs>
  <path class="cls-1" d="M30,12c-8,0-13,4-15,12,3-4,6.5-5.5,10.5-4.5,2.28.57,3.91,2.23,5.72,4.06,2.94,2.98,6.35,6.44,13.78,6.44,8,0,13-4,15-12-3,4-6.5,5.5-10.5,4.5-2.28-.57-3.91-2.23-5.72-4.06-2.94-2.98-6.35-6.44-13.78-6.44h0ZM15,30c-8,0-13,4-15,12,3-4,6.5-5.5,10.5-4.5,2.28.57,3.91,2.23,5.72,4.06,2.94,2.98,6.35,6.44,13.78,6.44,8,0,13-4,15-12-3,4-6.5,5.5-10.5,4.5-2.28-.57-3.91-2.23-5.72-4.06-2.94-2.98-6.35-6.44-13.78-6.44h0Z"/>
</svg>