<?xml version="1.0" encoding="UTF-8"?>
<svg id="Layer_1" data-name="Layer 1" xmlns="http://www.w3.org/2000/svg" viewBox="0 0 60 60">
  <defs>
    <style>
      .cls-1 {
        fill: #fff;
      }

      .cls-2 {
        fill: #007acc;
      }
    </style>
  </defs>
  <path class="cls-2" d="M0,30V0h60v60H0"/>
  <path class="cls-1" d="M13.15,30.1v2.45h7.8v22.2h5.54v-22.2h7.8v-2.4c0-1.35,0-2.45-.06-2.48,0-.05-4.75-.06-10.53-.06l-10.5.05v2.46l-.05-.02h0ZM48.21,27.6c1.53.36,2.7,1.05,3.75,2.15.56.6,1.38,1.65,1.44,1.92,0,.09-2.59,1.85-4.17,2.82-.06.05-.3-.21-.54-.6-.78-1.11-1.58-1.59-2.82-1.68-1.8-.12-3,.83-3,2.4,0,.48.09.75.27,1.14.41.83,1.16,1.32,3.48,2.34,4.29,1.84,6.15,3.06,7.28,4.8,1.27,1.95,1.56,5.01.71,7.31-.96,2.51-3.3,4.2-6.64,4.76-1.05.18-3.45.15-4.58-.04-2.4-.45-4.69-1.65-6.1-3.19-.55-.6-1.62-2.21-1.56-2.31l.57-.36,2.25-1.31,1.69-.99.39.52c.49.78,1.61,1.83,2.25,2.19,1.95,1.01,4.56.87,5.85-.3.56-.51.79-1.05.79-1.8,0-.69-.11-1.01-.45-1.53-.48-.66-1.44-1.2-4.14-2.4-3.11-1.32-4.42-2.16-5.66-3.45-.71-.78-1.35-2-1.65-3-.23-.87-.3-3-.09-3.85.65-3,2.91-5.1,6.15-5.7,1.05-.21,3.52-.12,4.56.15l-.03.03h0Z"/>
</svg>