<?xml version="1.0" encoding="UTF-8"?>
<svg id="Layer_1" data-name="Layer 1" xmlns="http://www.w3.org/2000/svg" xmlns:xlink="http://www.w3.org/1999/xlink" viewBox="0 0 60 60">
  <defs>
    <style>
      .cls-1 {
        fill: url(#linear-gradient-2);
      }

      .cls-2 {
        fill: url(#linear-gradient);
      }
    </style>
    <linearGradient id="linear-gradient" x1="-427.87" y1="-471.38" x2="-427.86" y2="-471.4" gradientTransform="translate(1050150.03 -1031026.74) scale(2454.32 -2187.24)" gradientUnits="userSpaceOnUse">
      <stop offset="0" stop-color="#41d1ff"/>
      <stop offset="1" stop-color="#bd34fe"/>
    </linearGradient>
    <linearGradient id="linear-gradient-2" x1="-428.58" y1="-471.52" x2="-428.58" y2="-471.54" gradientTransform="translate(482370.88 -967397.01) scale(1125.42 -2051.66)" gradientUnits="userSpaceOnUse">
      <stop offset="0" stop-color="#ffea83"/>
      <stop offset=".08" stop-color="#ffdd35"/>
      <stop offset="1" stop-color="#ffa800"/>
    </linearGradient>
  </defs>
  <path class="cls-2" d="M59.76,8.88l-28.15,50.34c-.58,1.04-2.07,1.05-2.66.01L.24,8.89c-.64-1.13.32-2.49,1.6-2.26l28.18,5.04c.18.03.36.03.54,0l27.59-5.03c1.27-.23,2.24,1.12,1.61,2.25Z"/>
  <path class="cls-1" d="M43.44.01l-20.83,4.08c-.34.07-.6.36-.62.71l-1.28,21.64c-.03.42.3.78.72.81.07,0,.15,0,.22-.02l5.8-1.34c.54-.13,1.03.35.92.9l-1.72,8.44c-.12.57.42,1.05.97.88l3.58-1.09c.56-.17,1.09.32.97.89l-2.74,13.25c-.17.83.93,1.28,1.39.57l.31-.47L48.11,15.39c.28-.57-.21-1.21-.83-1.09l-5.97,1.15c-.56.11-1.04-.41-.88-.96l3.9-13.51c.16-.55-.32-1.07-.88-.96h0Z"/>
</svg>