<?xml version="1.0" encoding="UTF-8"?>
<svg id="Layer_1" data-name="Layer 1" xmlns="http://www.w3.org/2000/svg" viewBox="0 0 60 60">
  <defs>
    <style>
      .cls-1 {
        fill: #1c78c0;
      }

      .cls-2 {
        fill: #fff;
      }

      .cls-3 {
        fill: #8ed6fb;
      }
    </style>
  </defs>
  <path class="cls-2" d="M30,0l26.52,15v30.01l-26.52,15L3.48,45.01V15L30,0Z"/>
  <path class="cls-3" d="M51.79,43.98l-20.91,11.83v-9.21l13.03-7.17,7.88,4.55ZM53.22,42.68v-24.74l-7.65,4.42v15.9l7.65,4.42h0ZM8.13,43.98l20.91,11.83v-9.21l-13.03-7.17-7.88,4.55h0ZM6.7,42.68v-24.74l7.65,4.42v15.9l-7.65,4.42h0ZM7.59,16.34L29.04,4.21v8.91l-13.74,7.56-.11.06-7.6-4.39ZM52.32,16.34L30.88,4.21v8.91l13.74,7.56.11.06,7.6-4.39Z"/>
  <path class="cls-1" d="M29.04,44.5l-12.85-7.07v-14l12.85,7.42v13.65M30.88,44.5l12.85-7.07v-14l-12.85,7.42v13.65M17.06,21.81l12.9-7.1,12.9,7.1-12.9,7.45-12.9-7.45"/>
</svg>