<?xml version="1.0" encoding="UTF-8"?>
<svg id="Layer_1" data-name="Layer 1" xmlns="http://www.w3.org/2000/svg" viewBox="0 0 60 60">
  <defs>
    <style>
      .cls-1 {
        fill: #9b5c8f;
      }

      .cls-2 {
        fill: #fff;
      }
    </style>
  </defs>
  <path class="cls-1" d="M5.6,12.16h48.78c3.09,0,5.59,2.5,5.59,5.59v18.62c0,3.09-2.5,5.59-5.59,5.59h-17.49l2.4,5.88-10.56-5.88H5.62C2.53,41.96.04,39.46.04,36.37v-18.62c-.02-3.06,2.47-5.59,5.56-5.59Z"/>
  <path class="cls-2" d="M3.45,17.26c.34-.46.85-.71,1.53-.76,1.24-.1,1.95.49,2.12,1.75.76,5.09,1.58,9.4,2.46,12.94l5.34-10.16c.49-.93,1.1-1.41,1.83-1.46,1.07-.07,1.73.61,2,2.05.61,3.24,1.39,5.99,2.31,8.33.63-6.19,1.71-10.65,3.22-13.4.37-.68.9-1.02,1.61-1.07.56-.05,1.07.12,1.53.49s.71.83.76,1.39c.02.44-.05.8-.24,1.17-.95,1.75-1.73,4.7-2.36,8.79-.61,3.97-.83,7.06-.68,9.28.05.61-.05,1.14-.29,1.61-.29.54-.73.83-1.29.88-.63.05-1.29-.24-1.92-.9-2.27-2.31-4.07-5.77-5.38-10.38-1.58,3.12-2.75,5.46-3.51,7.02-1.44,2.75-2.66,4.17-3.68,4.24-.66.05-1.22-.51-1.71-1.68-1.24-3.19-2.58-9.35-4.02-18.49-.1-.63.05-1.19.39-1.63h0ZM55.8,21.08c-.88-1.53-2.17-2.46-3.9-2.83-.46-.1-.9-.15-1.32-.15-2.34,0-4.24,1.22-5.72,3.65-1.27,2.07-1.9,4.36-1.9,6.87,0,1.88.39,3.48,1.17,4.82.88,1.53,2.17,2.46,3.9,2.83.46.1.9.15,1.32.15,2.36,0,4.26-1.22,5.72-3.65,1.27-2.1,1.9-4.39,1.9-6.89.02-1.9-.39-3.48-1.17-4.8h0ZM52.73,27.83c-.34,1.61-.95,2.8-1.85,3.61-.71.63-1.36.9-1.97.78-.58-.12-1.07-.63-1.44-1.58-.29-.76-.44-1.51-.44-2.22,0-.61.05-1.22.17-1.78.22-1,.63-1.97,1.29-2.9.8-1.19,1.66-1.68,2.53-1.51.58.12,1.07.63,1.44,1.58.29.76.44,1.51.44,2.22,0,.63-.05,1.24-.17,1.8h0ZM40.55,21.08c-.88-1.53-2.19-2.46-3.9-2.83-.46-.1-.9-.15-1.32-.15-2.34,0-4.24,1.22-5.72,3.65-1.27,2.07-1.9,4.36-1.9,6.87,0,1.88.39,3.48,1.17,4.82.88,1.53,2.17,2.46,3.9,2.83.46.1.9.15,1.32.15,2.36,0,4.26-1.22,5.72-3.65,1.27-2.1,1.9-4.39,1.9-6.89,0-1.9-.39-3.48-1.17-4.8h0ZM37.46,27.83c-.34,1.61-.95,2.8-1.85,3.61-.71.63-1.36.9-1.97.78-.58-.12-1.07-.63-1.44-1.58-.29-.76-.44-1.51-.44-2.22,0-.61.05-1.22.17-1.78.22-1,.63-1.97,1.29-2.9.8-1.19,1.66-1.68,2.53-1.51.58.12,1.07.63,1.44,1.58.29.76.44,1.51.44,2.22.02.63-.05,1.24-.17,1.8h0Z"/>
</svg>