<?xml version="1.0" encoding="UTF-8"?>
<svg id="Layer_1" data-name="Layer 1" xmlns="http://www.w3.org/2000/svg" viewBox="0 0 60 60">
  <defs>
    <style>
      .cls-1 {
        fill: #21759b;
      }

      .cls-2 {
        fill: #fff;
      }
    </style>
  </defs>
  <circle class="cls-2" cx="30.08" cy="30" r="30"/>
  <path class="cls-1" d="M4.35,30c0,10.19,5.92,18.99,14.5,23.16L6.58,19.53c-1.47,3.3-2.23,6.86-2.23,10.47ZM47.46,28.7c0-3.18-1.14-5.38-2.12-7.1-1.3-2.12-2.53-3.92-2.53-6.04,0-2.37,1.79-4.57,4.32-4.57.11,0,.22.01.33.02-4.58-4.19-10.68-6.76-17.38-6.76-8.99,0-16.9,4.61-21.5,11.6.6.02,1.17.03,1.66.03,2.69,0,6.86-.33,6.86-.33,1.39-.08,1.55,1.96.17,2.12,0,0-1.39.16-2.95.25l9.37,27.88,5.63-16.89-4.01-10.99c-1.39-.08-2.7-.25-2.7-.25-1.39-.08-1.22-2.2.16-2.12,0,0,4.25.33,6.78.33,2.69,0,6.86-.33,6.86-.33,1.39-.08,1.55,1.96.17,2.12,0,0-1.4.16-2.95.25l9.3,27.67,2.57-8.58c1.11-3.56,1.96-6.12,1.96-8.32h0ZM30.53,32.25l-7.72,22.44c2.36.7,4.81,1.05,7.27,1.05,3,0,5.87-.52,8.55-1.46-.07-.11-.13-.23-.18-.35l-7.91-21.67h0ZM52.67,17.65c.11.82.17,1.7.17,2.65,0,2.61-.49,5.55-1.96,9.22l-7.86,22.73c7.65-4.46,12.8-12.75,12.8-22.25,0-4.47-1.14-8.68-3.15-12.35h0ZM30.08,0C13.54,0,.08,13.46.08,30s13.46,30,30,30,30-13.46,30-30C60.08,13.46,46.62,0,30.08,0h0ZM30.08,58.63c-15.78,0-28.62-12.84-28.62-28.63S14.3,1.38,30.08,1.38s28.62,12.84,28.62,28.62-12.84,28.63-28.62,28.63Z"/>
</svg>